<?xml version="1.0" encoding="UTF-8"?>
<svg id="Layer_1" xmlns="http://www.w3.org/2000/svg" version="1.1" viewBox="0 0 1000 800">
  <!-- Generator: Adobe Illustrator 30.0.0, SVG Export Plug-In . SVG Version: 2.1.1 Build 123)  -->
  <defs>
    <style>
      .st0 {
        fill: #c52f21;
      }
    </style>
  </defs>
  <path class="st0" d="M271.11,183.47c-.64,0-1.18-.52-1.18-1.18s.52-1.18,1.18-1.18,1.18.52,1.18,1.18-.52,1.18-1.18,1.18h0ZM262.76,184.08c-.88,0-1.61-.67-1.71-1.53v-.2c0-.11,0-.21.03-.32.16-.79.86-1.39,1.69-1.39s1.54.6,1.69,1.39c.03.11.03.21.03.32v.2c-.09.86-.83,1.53-1.71,1.53h0ZM256.27,190.45c0,.83-.6,1.54-1.39,1.69-.11.03-.21.03-.32.03h-.2c-.86-.09-1.53-.83-1.53-1.71s.67-1.61,1.53-1.71h.2c.11,0,.21,0,.32.03.79.16,1.39.86,1.39,1.69h0ZM255.78,198.8c0,.64-.52,1.18-1.18,1.18s-1.18-.52-1.18-1.18.52-1.18,1.18-1.18,1.18.52,1.18,1.18h0ZM246.46,183.96c-.83,0-1.54-.6-1.69-1.39-.03-.11-.03-.21-.03-.32v-.2c.09-.86.83-1.53,1.71-1.53s1.61.67,1.71,1.53v.2c0,.11,0,.21-.03.32-.16.79-.86,1.39-1.69,1.39h0ZM252.95,174.15c0-.83.6-1.54,1.39-1.69.11-.03.21-.03.32-.03h.2c.86.09,1.53.83,1.53,1.71s-.67,1.61-1.53,1.71h-.2c-.11,0-.21,0-.32-.03-.79-.16-1.39-.86-1.39-1.69h0ZM253.43,165.8c0-.64.52-1.18,1.18-1.18s1.18.52,1.18,1.18-.52,1.18-1.18,1.18-1.18-.52-1.18-1.18h0ZM262.06,188.52c.33,0,.64.13.88.36.24.24.36.55.36.88,0,.24-.07.47-.2.67-.05.07-.11.15-.16.2-.07.07-.13.12-.2.16-.2.13-.43.2-.67.2-.33,0-.64-.13-.88-.36-.24-.24-.36-.55-.36-.88,0-.24.07-.47.2-.67.05-.07.11-.15.16-.2h0s.13-.12.2-.16c.2-.13.43-.2.67-.2h0ZM248.39,189.76c0,.33-.13.64-.36.88-.24.24-.55.36-.88.36-.24,0-.47-.07-.67-.2-.07-.05-.15-.11-.2-.16-.07-.07-.12-.13-.16-.2-.13-.2-.2-.43-.2-.67,0-.33.13-.64.36-.88.24-.24.55-.36.88-.36.24,0,.47.07.67.2.07.05.15.11.2.16h0s.12.13.16.2c.13.2.2.43.2.67h0ZM238.11,183.47c-.64,0-1.18-.52-1.18-1.18s.52-1.18,1.18-1.18,1.18.52,1.18,1.18-.52,1.18-1.18,1.18h0ZM247.14,176.07c-.33,0-.64-.13-.88-.36-.24-.24-.36-.55-.36-.88,0-.24.07-.47.2-.67.05-.07.11-.15.16-.2.07-.07.13-.12.2-.16.2-.13.43-.2.67-.2.33,0,.64.13.88.36.24.24.36.55.36.88,0,.24-.07.47-.2.67-.05.07-.11.15-.16.2-.07.07-.13.12-.2.16-.2.13-.43.2-.67.2h0ZM261.19,173.95c.24-.24.56-.36.88-.36.24,0,.47.07.67.2.07.05.15.11.2.16.07.07.12.13.16.2.31.48.25,1.14-.16,1.55-.43.43-1.07.48-1.55.16-.07-.05-.15-.11-.2-.16-.07-.07-.12-.13-.16-.2-.31-.48-.25-1.14.16-1.55h0ZM271.11,180.6c-.84,0-1.55.63-1.67,1.43h-2.74l3.09-3.09-.37-.37-3.47,3.47h-.96c-.16-1.08-1.1-1.93-2.22-1.93s-2.06.83-2.22,1.93h-5.29l3.47-3.47h4.9v-.52h-4.38l1.78-1.78c.31.23.68.35,1.06.35.45,0,.91-.17,1.24-.52.63-.63.68-1.61.17-2.3l.43-.43h3.04v-.52h-2.5l1.75-1.75-.37-.37-1.75,1.75v-2.5h-.52v3.04l-.43.43c-.7-.51-1.67-.45-2.3.17s-.68,1.61-.17,2.3l-1.78,1.78v-4.38h-.52v4.9l-3.47,3.47v-5.27c1.15-.09,2.05-1.07,2.05-2.25s-.91-2.14-2.05-2.25v-.95l3.47-3.47-.37-.37-3.09,3.09v-2.74c.82-.12,1.43-.83,1.43-1.67,0-.94-.76-1.7-1.7-1.7s-1.7.76-1.7,1.7c0,.84.63,1.55,1.43,1.67v2.74l-3.09-3.09-.37.37,3.47,3.47v.96c-1.08.16-1.93,1.1-1.93,2.22s.83,2.06,1.93,2.22v5.29l-3.47-3.47v-4.9h-.52v4.38l-1.78-1.78c.23-.31.35-.67.35-1.06,0-.47-.19-.92-.52-1.24-.33-.33-.78-.52-1.24-.52-.39,0-.75.12-1.06.35l-.43-.43v-3.04h-.52v2.5l-1.75-1.75-.37.37,1.75,1.75h-2.5v.52h3.04l.43.43c-.23.31-.35.67-.35,1.06,0,.47.19.92.52,1.24.33.33.78.52,1.24.52.39,0,.75-.12,1.06-.35l1.78,1.78h-4.38v.52h4.9l3.47,3.47h-5.27c-.09-1.15-1.07-2.05-2.25-2.05s-2.14.91-2.25,2.05h-.95l-3.47-3.47-.37.37,3.09,3.09h-2.74c-.12-.82-.83-1.43-1.67-1.43-.94,0-1.7.76-1.7,1.7s.76,1.7,1.7,1.7c.84,0,1.55-.63,1.67-1.43h2.74l-3.09,3.09.37.37,3.47-3.47h.96c.16,1.08,1.1,1.93,2.22,1.93s2.06-.83,2.22-1.93h5.29l-3.47,3.47h-4.9v.52h4.38l-1.78,1.78c-.31-.23-.67-.35-1.06-.35-.47,0-.92.19-1.24.52-.33.33-.52.78-.52,1.24,0,.39.12.75.35,1.06l-.43.43h-3.04v.52h2.5l-1.75,1.75.37.37,1.75-1.75v2.5h.52v-3.04l.43-.43c.31.23.67.35,1.06.35.47,0,.92-.19,1.24-.52.33-.33.52-.78.52-1.24,0-.39-.12-.75-.35-1.06l1.78-1.78v4.38h.52v-4.9l3.47-3.47v5.27c-1.15.09-2.05,1.07-2.05,2.25s.91,2.14,2.05,2.25v.95l-3.47,3.47.37.37,3.09-3.09v2.74c-.82.12-1.43.83-1.43,1.67,0,.94.76,1.7,1.7,1.7s1.7-.76,1.7-1.7c0-.84-.63-1.55-1.43-1.67v-2.74l3.09,3.09.37-.37-3.47-3.47v-.96c1.08-.16,1.93-1.1,1.93-2.22s-.83-2.06-1.93-2.22v-5.29l3.47,3.47v4.9h.52v-4.38l1.78,1.78c-.23.31-.35.67-.35,1.06,0,.47.19.92.52,1.24.33.33.78.52,1.24.52.39,0,.75-.12,1.06-.35l.43.43v3.04h.52v-2.5l1.75,1.75.37-.37-1.75-1.75h2.5v-.52h-3.04l-.43-.43c.23-.31.35-.67.35-1.06,0-.47-.19-.92-.52-1.24-.33-.33-.78-.52-1.24-.52-.39,0-.75.12-1.06.35l-1.78-1.78h4.38v-.52h-4.9l-3.47-3.47h5.27c.09,1.15,1.07,2.05,2.25,2.05s2.14-.91,2.25-2.05h.95l3.47,3.47.37-.37-3.09-3.09h2.74c.12.82.83,1.43,1.67,1.43.94,0,1.7-.76,1.7-1.7s-.76-1.7-1.7-1.7h0Z"/>
  <g>
    <path class="st0" d="M98.11,184.65c0-.67.55-1.22,1.22-1.22s1.22.55,1.22,1.22-.55,1.22-1.22,1.22-1.22-.55-1.22-1.22h0Z"/>
    <path class="st0" d="M85.2,175.79c.58-.33,1.32-.13,1.66.44.33.58.13,1.32-.44,1.66s-1.32.13-1.66-.44c-.33-.58-.13-1.32.44-1.66h0Z"/>
    <path class="st0" d="M113.45,162.28c-.58.33-1.32.13-1.66-.44s-.13-1.32.44-1.66,1.32-.13,1.66.44.13,1.32-.44,1.66h0Z"/>
    <path class="st0" d="M86.4,160.18c.58.33.78,1.08.44,1.66s-1.08.78-1.66.44-.78-1.08-.44-1.66,1.08-.78,1.66-.44h0Z"/>
    <path class="st0" d="M112.24,177.89c-.58-.33-.78-1.08-.44-1.66s1.08-.78,1.66-.44.78,1.08.44,1.66-1.08.78-1.66.44h0Z"/>
    <path class="st0" d="M99.32,154.64c.67,0,1.22-.55,1.22-1.22s-.55-1.22-1.22-1.22-1.22.55-1.22,1.22.55,1.22,1.22,1.22h0Z"/>
    <path class="st0" d="M99.32,173.09l-4.05,2.97.55-4.99-4.59-2.02,4.59-2.02-.55-4.99,4.05,2.97,4.05-2.97-.55,4.99,4.59,2.02-4.59,2.02.55,4.99-4.05-2.97h0ZM110.29,172.68l-.12-.47-3.32.9-3.21-1.86,4.99-2.21-4.99-2.21,3.21-1.86,3.32.9.12-.47-2.86-.76,3.48-2.01-.24-.41-3.48,2.01.76-2.86-.47-.12-.9,3.32-3.21,1.86.59-5.43-4.4,3.22v-3.72l2.44-2.44-.33-.33-2.09,2.09v-4.01h-.48v4.01l-2.09-2.09-.33.33,2.44,2.44v3.72l-4.4-3.22.59,5.43-3.21-1.86-.9-3.32-.47.12.76,2.86-3.48-2.01-.24.41,3.48,2.01-2.86.76.12.47,3.32-.9,3.21,1.86-4.99,2.21,4.99,2.21-3.21,1.86-3.32-.9-.12.47,2.86.76-3.48,2.01.24.41,3.48-2.01-.76,2.86.47.12.9-3.32,3.21-1.86-.59,5.43,4.42-3.22v3.72l-2.44,2.44.33.33,2.09-2.09v4.01h.48v-4.01l2.09,2.09.33-.33-2.44-2.44v-3.72l4.4,3.22-.59-5.43,3.21,1.86.9,3.32.47-.12-.76-2.86,3.48,2.01.24-.41-3.48-2.01,2.86-.76h-.01Z"/>
    <path class="st0" d="M99.32,170.82c-.99,0-1.81-.82-1.81-1.81s.82-1.81,1.81-1.81,1.81.82,1.81,1.81-.82,1.81-1.81,1.81h0ZM99.32,166.74c-1.26,0-2.29,1.03-2.29,2.29s1.03,2.29,2.29,2.29,2.29-1.03,2.29-2.29-1.03-2.29-2.29-2.29h0Z"/>
  </g>
  <g>
    <path class="st0" d="M187.03,149c0-.45.37-.83.83-.83s.83.37.83.83-.37.83-.83.83-.83-.37-.83-.83h0Z"/>
    <path class="st0" d="M178.18,142.94c.4-.23.91-.09,1.14.31s.09.91-.31,1.14-.91.09-1.14-.31-.09-.91.31-1.14h0Z"/>
    <path class="st0" d="M197.53,133.68c-.4.23-.91.09-1.14-.31s-.09-.91.31-1.14.91-.09,1.14.31.09.91-.31,1.14h0Z"/>
    <path class="st0" d="M179.01,132.23c.4.23.54.74.31,1.14s-.74.54-1.14.31-.54-.74-.31-1.14.74-.54,1.14-.31h0Z"/>
    <path class="st0" d="M196.7,144.37c-.4-.23-.54-.74-.31-1.14s.74-.54,1.14-.31.54.74.31,1.14-.74.54-1.14.31h0Z"/>
    <path class="st0" d="M187.86,128.45c.45,0,.83-.37.83-.83s-.37-.83-.83-.83-.83.37-.83.83.37.83.83.83h0Z"/>
    <path class="st0" d="M187.86,141.08l-2.77,2.03.37-3.41-3.14-1.39,3.14-1.39-.37-3.41,2.77,2.03,2.77-2.03-.37,3.41,3.14,1.39-3.14,1.39.37,3.41-2.77-2.03h0ZM195.36,140.8l-.08-.32-2.27.62-2.21-1.27,3.43-1.51-3.43-1.51,2.21-1.27,2.27.62.08-.32-1.95-.52,2.38-1.38-.16-.28-2.38,1.38.52-1.95-.32-.08-.62,2.27-2.21,1.27.4-3.72-3.02,2.21v-2.54l1.66-1.66-.23-.23-1.43,1.43v-2.74h-.33v2.74l-1.43-1.43-.23.23,1.66,1.66v2.54l-3.02-2.21.4,3.72-2.21-1.27-.62-2.27-.32.08.52,1.95-2.38-1.38-.16.28,2.38,1.38-1.95.52.08.32,2.27-.62,2.21,1.27-3.43,1.51,3.43,1.51-2.21,1.27-2.27-.62-.08.32,1.95.52-2.38,1.38.16.28,2.38-1.38-.52,1.95.32.08.62-2.27,2.21-1.27-.4,3.72,3.02-2.21v2.54l-1.66,1.66.23.23,1.43-1.43v2.74h.33v-2.74l1.43,1.43.23-.23-1.66-1.66v-2.54l3.02,2.21-.4-3.72,2.21,1.27.62,2.27.32-.08-.52-1.95,2.38,1.38.16-.28-2.38-1.38,1.95-.52h0Z"/>
    <path class="st0" d="M187.86,139.53c-.68,0-1.23-.56-1.23-1.23s.56-1.23,1.23-1.23,1.23.56,1.23,1.23-.56,1.23-1.23,1.23h0ZM187.86,136.73c-.86,0-1.57.71-1.57,1.57s.71,1.57,1.57,1.57,1.57-.71,1.57-1.57-.71-1.57-1.57-1.57h0Z"/>
  </g>
  <g>
    <polygon class="st0" points="308.24 93.28 308.3 95.18 309.91 96.18 309.84 94.28 308.24 93.28 308.24 93.28"/>
    <polygon class="st0" points="314.56 104.29 314.5 102.39 312.89 101.38 312.96 103.29 314.56 104.29 314.56 104.29"/>
    <polygon class="st0" points="305.09 98.85 306.78 99.74 308.45 98.85 306.78 97.95 305.09 98.85 305.09 98.85"/>
    <polygon class="st0" points="317.79 98.86 316.12 97.98 314.43 98.86 316.12 99.76 317.79 98.86 317.79 98.86"/>
    <polygon class="st0" points="308.34 104.35 309.95 103.34 310.02 101.44 308.41 102.45 308.34 104.35 308.34 104.35"/>
    <path class="st0" d="M312.69,99.66c-.12.17-.28.31-.45.41-.71.41-1.62.16-2.03-.55-.13-.23-.2-.5-.2-.74s.07-.51.2-.74c.12-.2.28-.37.47-.5h0s.04-.03.07-.04h.03s.04-.03.07-.04c.01,0,.03,0,.05-.03h.04s.04,0,.05-.03h0c.16-.05.32-.09.51-.09.82,0,1.49.67,1.49,1.49,0,.32-.11.62-.28.86h0ZM321.12,102.41l-.09-.33-2.3.62-.09.03-.29-.17-2.36-1.35,4.58-1.23-.09-.33-4.82,1.28-.09.03-.29-.17-2.11-1.22c.11-.23.16-.47.16-.72v-.07c0-.25-.07-.5-.17-.74l2.11-1.22.29-.17.09.03,4.82,1.28.09-.33-4.58-1.23,2.36-1.35.29-.17.09.03,2.3.62.09-.33-2.06-.55,2.86-1.65-.17-.29-2.86,1.65.55-2.06-.33-.09-.62,2.3-.03.09-.29.17-2.36,1.35,1.23-4.58-.33-.09-1.28,4.82-.03.09-.29.17-2.11,1.22c-.24-.35-.6-.59-1.02-.71-.09-.03-.2-.04-.31-.05v-2.78l.07-.07,3.52-3.52-.24-.24-3.36,3.36v-3.06l.07-.07,1.69-1.69-.24-.24-1.51,1.51v-3.31h-.35v3.31l-1.51-1.51-.24.24,1.69,1.69.07.07v3.06l-3.36-3.36-.24.24,3.52,3.52.07.07v2.78c-.25.03-.51.11-.75.24h0c-.24.13-.43.32-.58.52l-2.11-1.22-.29-.17-.03-.09-1.28-4.82-.33.09,1.23,4.58-2.36-1.35-.29-.17-.03-.09-.62-2.3-.33.09.55,2.06-2.86-1.65-.17.29,2.86,1.65-2.06.55.09.33,2.3-.62.09-.03.29.17,2.36,1.35-4.58,1.23.09.33,4.82-1.28.09-.03.29.17,2.11,1.22c-.11.24-.17.5-.17.78s.07.52.16.76l-2.11,1.22-.29.17-.09-.03-4.82-1.28-.09.33,4.58,1.23-2.36,1.35-.29.17-.09-.03-2.3-.62-.09.33,2.06.55-2.86,1.65.17.29,2.86-1.65-.55,2.06.33.09.62-2.3.03-.09.29-.17,2.36-1.35-1.23,4.58.33.09,1.28-4.82.03-.09.29-.17,2.1-1.22c.31.43.79.72,1.34.78v2.77l-.07.07-3.52,3.52.24.24,3.36-3.36v3.06l-.07.07-1.69,1.69.24.24,1.51-1.51v3.31h.35v-3.31l1.51,1.51.24-.24-1.69-1.69-.07-.07v-3.06l3.36,3.36.24-.24-3.52-3.52-.07-.07v-2.77c.25-.03.51-.11.72-.23h.03s.03-.01.05-.03c.2-.12.39-.29.54-.5l2.11,1.22.29.17.03.09,1.28,4.82.33-.09-1.23-4.58,2.36,1.35.29.17.03.09.62,2.3.33-.09-.55-2.06,2.86,1.65.17-.29-2.86-1.65,2.06-.55h0v-.04Z"/>
    <polygon class="st0" points="314.71 93.36 313.09 94.36 313.03 96.26 314.63 95.26 314.71 93.36 314.71 93.36"/>
  </g>
  <g>
    <polygon class="st0" points="119.56 239.11 119.65 241.72 121.86 243.09 121.76 240.5 119.56 239.11 119.56 239.11"/>
    <polygon class="st0" points="128.23 254.19 128.13 251.58 125.93 250.2 126.02 252.81 128.23 254.19 128.23 254.19"/>
    <polygon class="st0" points="115.25 246.73 117.55 247.95 119.85 246.73 117.55 245.52 115.25 246.73 115.25 246.73"/>
    <polygon class="st0" points="132.64 246.76 130.34 245.54 128.04 246.76 130.34 247.98 132.64 246.76 132.64 246.76"/>
    <polygon class="st0" points="119.7 254.27 121.91 252.89 121.99 250.29 119.8 251.67 119.7 254.27 119.7 254.27"/>
    <path class="st0" d="M125.66,247.84c-.17.23-.37.43-.63.58-.98.56-2.22.23-2.78-.75-.19-.32-.27-.67-.27-1.02s.08-.7.27-1c.16-.28.39-.51.64-.68h.01s.05-.04.08-.05c0,0,.03,0,.03-.01.03-.01.07-.03.08-.05.03,0,.04-.03.07-.03,0,0,.03,0,.04-.03.03,0,.05-.03.08-.03h.01c.21-.08.45-.12.7-.12,1.12,0,2.03.91,2.03,2.03,0,.44-.13.84-.37,1.18h.01ZM137.19,251.6l-.12-.45-3.14.84-.13.04-.41-.24-3.22-1.86,6.26-1.69-.12-.45-6.6,1.77-.13.04-.41-.24-2.89-1.67c.15-.32.21-.66.23-.99v-.09c0-.35-.08-.68-.23-1l2.89-1.67.41-.24.13.04,6.6,1.77.12-.45-6.26-1.69,3.22-1.86.41-.24.13.04,3.14.84.12-.45-2.82-.75,3.92-2.26-.24-.41-3.92,2.26.75-2.82-.45-.12-.84,3.14-.04.13-.41.24-3.22,1.86,1.69-6.26-.45-.12-1.77,6.6-.04.13-.41.24-2.89,1.67c-.33-.47-.83-.82-1.39-.96-.13-.04-.28-.07-.41-.07v-3.81l.09-.09,4.82-4.82-.33-.33-4.59,4.59v-4.19l.09-.09,2.3-2.3-.33-.33-2.06,2.06v-4.52h-.47v4.52l-2.06-2.06-.33.33,2.3,2.3.09.09v4.19l-4.59-4.59-.33.33,4.82,4.82.09.09v3.81c-.35.04-.71.15-1.02.32h0c-.32.19-.59.44-.79.72l-2.89-1.67-.41-.24-.04-.13-1.77-6.6-.45.12,1.69,6.26-3.22-1.86-.41-.24-.04-.13-.84-3.14-.45.12.75,2.82-3.92-2.26-.24.41,3.92,2.26-2.82.75.12.45,3.14-.84.13-.04.41.24,3.22,1.86-6.26,1.69.12.45,6.6-1.77.13-.04.41.24,2.89,1.67c-.15.32-.24.68-.24,1.06s.08.72.23,1.03l-2.89,1.66-.41.24-.13-.04-6.6-1.77-.12.45,6.26,1.69-3.22,1.86-.41.24-.13-.04-3.14-.84-.12.45,2.82.75-3.92,2.26.24.41,3.92-2.26-.75,2.82.45.12.84-3.14.04-.13.41-.24,3.22-1.86-1.69,6.26.45.12,1.77-6.6.04-.13.41-.24,2.89-1.66c.41.59,1.07.99,1.82,1.06v3.8l-.09.09-4.82,4.82.33.33,4.59-4.59v4.19l-.09.09-2.3,2.3.33.33,2.06-2.06v4.52h.47v-4.52l2.06,2.06.33-.33-2.3-2.3-.09-.09v-4.19l4.59,4.59.33-.33-4.82-4.82-.09-.09v-3.8c.36-.04.7-.15.99-.31,0,0,.03,0,.04-.03.03,0,.04-.03.07-.04.28-.17.54-.4.72-.68l2.89,1.67.41.24.04.13,1.77,6.6.45-.12-1.69-6.26,3.22,1.86.41.24.04.13.84,3.14.45-.12-.75-2.82,3.92,2.26.24-.41-3.92-2.26,2.82-.75h-.01Z"/>
    <polygon class="st0" points="128.42 239.23 126.21 240.6 126.11 243.2 128.32 241.82 128.42 239.23 128.42 239.23"/>
  </g>
  <g>
    <path class="st0" d="M362.02,212.65h3.77l1.89-3.28-1.89-3.28h-3.77l-1.89,3.28,1.89,3.28h0ZM366.16,213.28h-4.5l-2.25-3.89,2.25-3.89h4.5l2.25,3.89-2.25,3.89h0Z"/>
    <path class="st0" d="M368.24,216.88h-8.64l-4.15-7.17-.19-.31.19-.31,4.15-7.17h8.64l4.15,7.17.19.31-.19.31-4.15,7.17h0ZM385.36,209.07h-3.29l2.26-2.26-.44-.44-2.58,2.58-.13.13h-3.53l3.02-3.02-.44-.44-3.33,3.33-.13.13h-3.67l-3.08-5.34,2.77-2.77.44-.44h4.9v-.62h-4.27l2.06-2.06.44-.44h3.83v-.62h-3.2l2.33-2.33-.44-.44-2.33,2.33v-3.2h-.62v3.83l-.44.44-2.06,2.06v-4.27h-.62v4.9l-.44.44-2.65,2.65-1.1-1.89h-4.36v-4.75l.13-.13,3.33-3.33-.44-.44-3.02,3.02v-3.53l.13-.13,2.58-2.58-.44-.44-2.26,2.26v-3.29h-.62v3.29l-2.26-2.26-.44.44,2.58,2.58.13.13v3.53l-3.02-3.02-.44.44,3.33,3.33.13.13v4.75h-4.36l-1.1,1.89-2.65-2.65-.44-.44v-4.9h-.62v4.27l-2.06-2.06-.44-.44v-3.83h-.62v3.2l-2.33-2.33-.44.44,2.33,2.33h-3.2v.62h3.83l.44.44,2.06,2.06h-4.27v.62h4.9l.44.44,2.77,2.77-3.08,5.34h-3.67l-.13-.13-3.33-3.33-.44.44,3.02,3.02h-3.53l-.13-.13-2.58-2.58-.44.44,2.26,2.26h-3.29v.62h3.29l-2.26,2.26.44.44,2.58-2.58.13-.13h3.53l-3.02,3.02.44.44,3.33-3.33.13-.13h3.67l3.08,5.34-2.77,2.77-.44.44h-4.9v.62h4.27l-2.06,2.06-.44.44h-3.83v.62h3.2l-2.33,2.33.44.44,2.33-2.33v3.2h.62v-3.83l.44-.44,2.06-2.06v4.27h.62v-4.9l.44-.44,2.65-2.65,1.1,1.89h4.36v4.75l-.13.13-3.33,3.33.44.44,3.02-3.02v3.53l-.13.13-2.58,2.58.44.44,2.26-2.26v3.29h.62v-3.29l2.26,2.26.44-.44-2.58-2.58-.13-.13v-3.53l3.02,3.02.44-.44-3.33-3.33-.13-.13v-4.75h4.36l1.1-1.89,2.65,2.65.44.44v4.9h.62v-4.27l2.06,2.06.44.44v3.83h.62v-3.2l2.33,2.33.44-.44-2.33-2.33h3.2v-.62h-3.83l-.44-.44-2.06-2.06h4.27v-.62h-4.9l-.44-.44-2.77-2.77,3.08-5.34h3.67l.13.13,3.33,3.33.44-.44-3.02-3.02h3.53l.13.13,2.58,2.58.44-.44-2.26-2.26h3.29v-.62h0Z"/>
  </g>
  <g>
    <path class="st0" d="M122.11,76.74h3.77l1.89-3.28-1.89-3.28h-3.77l-1.89,3.28,1.89,3.28h0ZM126.25,77.37h-4.5l-2.25-3.89,2.25-3.89h4.5l2.25,3.89-2.25,3.89h0Z"/>
    <path class="st0" d="M128.32,80.97h-8.64l-4.15-7.17-.19-.31.19-.31,4.15-7.17h8.64l4.15,7.17.19.31-.19.31-4.15,7.17h0ZM145.44,73.17h-3.29l2.26-2.26-.44-.44-2.58,2.58-.13.13h-3.53l3.02-3.02-.44-.44-3.33,3.33-.13.13h-3.67l-3.08-5.34,2.77-2.77.44-.44h4.9v-.62h-4.27l2.06-2.06.44-.44h3.83v-.62h-3.2l2.33-2.33-.44-.44-2.33,2.33v-3.2h-.62v3.83l-.44.44-2.06,2.06v-4.27h-.62v4.9l-.44.44-2.65,2.65-1.1-1.89h-4.36v-4.75l.13-.13,3.33-3.33-.44-.44-3.02,3.02v-3.53l.13-.13,2.58-2.58-.44-.44-2.26,2.26v-3.29h-.62v3.29l-2.26-2.26-.44.44,2.58,2.58.13.13v3.53l-3.02-3.02-.44.44,3.33,3.33.13.13v4.75h-4.36l-1.1,1.89-2.65-2.65-.44-.44v-4.9h-.62v4.27l-2.06-2.06-.44-.44v-3.83h-.62v3.2l-2.33-2.33-.44.44,2.33,2.33h-3.2v.62h3.83l.44.44,2.06,2.06h-4.27v.62h4.9l.44.44,2.77,2.77-3.08,5.34h-3.67l-.13-.13-3.33-3.33-.44.44,3.02,3.02h-3.53l-.13-.13-2.58-2.58-.44.44,2.26,2.26h-3.29v.62h3.29l-2.26,2.26.44.44,2.58-2.58.13-.13h3.53l-3.02,3.02.44.44,3.33-3.33.13-.13h3.67l3.08,5.34-2.77,2.77-.44.44h-4.9v.62h4.27l-2.06,2.06-.44.44h-3.83v.62h3.2l-2.33,2.33.44.44,2.33-2.33v3.2h.62v-3.83l.44-.44,2.06-2.06v4.27h.62v-4.9l.44-.44,2.65-2.65,1.1,1.89h4.36v4.75l-.13.13-3.33,3.33.44.44,3.02-3.02v3.53l-.13.13-2.58,2.58.44.44,2.26-2.26v3.29h.62v-3.29l2.26,2.26.44-.44-2.58-2.58-.13-.13v-3.53l3.02,3.02.44-.44-3.33-3.33-.13-.13v-4.75h4.36l1.1-1.89,2.65,2.65.44.44v4.9h.62v-4.27l2.06,2.06.44.44v3.83h.62v-3.2l2.33,2.33.44-.44-2.33-2.33h3.2v-.62h-3.83l-.44-.44-2.06-2.06h4.27v-.62h-4.9l-.44-.44-2.77-2.77,3.08-5.34h3.67l.13.13,3.33,3.33.44-.44-3.02-3.02h3.53l.13.13,2.58,2.58.44-.44-2.26-2.26h3.29v-.62h0Z"/>
  </g>
  <path class="st0" d="M237.59,633.94c-.64,0-1.18-.52-1.18-1.18s.52-1.18,1.18-1.18,1.18.52,1.18,1.18-.52,1.18-1.18,1.18h0ZM229.24,634.54c-.88,0-1.61-.67-1.71-1.53v-.2c0-.11,0-.21.03-.32.16-.79.86-1.39,1.69-1.39s1.54.6,1.69,1.39c.03.11.03.21.03.32v.2c-.09.86-.83,1.53-1.71,1.53h0ZM222.75,640.91c0,.83-.6,1.54-1.39,1.69-.11.03-.21.03-.32.03h-.2c-.86-.09-1.53-.83-1.53-1.71s.67-1.61,1.53-1.71h.2c.11,0,.21,0,.32.03.79.16,1.39.86,1.39,1.69h0ZM222.25,649.26c0,.64-.52,1.18-1.18,1.18s-1.18-.52-1.18-1.18.52-1.18,1.18-1.18,1.18.52,1.18,1.18h0ZM212.94,634.42c-.83,0-1.54-.6-1.69-1.39-.03-.11-.03-.21-.03-.32v-.2c.09-.86.83-1.53,1.71-1.53s1.61.67,1.71,1.53v.2c0,.11,0,.21-.03.32-.16.79-.86,1.39-1.69,1.39h0ZM219.43,624.61c0-.83.6-1.54,1.39-1.69.11-.03.21-.03.32-.03h.2c.86.09,1.53.83,1.53,1.71s-.67,1.61-1.53,1.71h-.2c-.11,0-.21,0-.32-.03-.79-.16-1.39-.86-1.39-1.69h0ZM219.91,616.26c0-.64.52-1.18,1.18-1.18s1.18.52,1.18,1.18-.52,1.18-1.18,1.18-1.18-.52-1.18-1.18h0ZM228.54,638.98c.33,0,.64.13.88.36.24.24.36.55.36.88,0,.24-.07.47-.2.67-.05.07-.11.15-.16.2-.07.07-.13.12-.2.16-.2.13-.43.2-.67.2-.33,0-.64-.13-.88-.36-.24-.24-.36-.55-.36-.88,0-.24.07-.47.2-.67.05-.07.11-.15.16-.2h0s.13-.12.2-.16c.2-.13.43-.2.67-.2h0ZM214.87,640.23c0,.33-.13.64-.36.88-.24.24-.55.36-.88.36-.24,0-.47-.07-.67-.2-.07-.05-.15-.11-.2-.16-.07-.07-.12-.13-.16-.2-.13-.2-.2-.43-.2-.67,0-.33.13-.64.36-.88.24-.24.55-.36.88-.36.24,0,.47.07.67.2.07.05.15.11.2.16h0s.12.13.16.2c.13.2.2.43.2.67h0ZM204.59,633.94c-.64,0-1.18-.52-1.18-1.18s.52-1.18,1.18-1.18,1.18.52,1.18,1.18-.52,1.18-1.18,1.18h0ZM213.62,626.54c-.33,0-.64-.13-.88-.36-.24-.24-.36-.55-.36-.88,0-.24.07-.47.2-.67.05-.07.11-.15.16-.2.07-.07.13-.12.2-.16.2-.13.43-.2.67-.2.33,0,.64.13.88.36.24.24.36.55.36.88,0,.24-.07.47-.2.67-.05.07-.11.15-.16.2-.07.07-.13.12-.2.16-.2.13-.43.2-.67.2h0ZM227.67,624.41c.24-.24.56-.36.88-.36.24,0,.47.07.67.2.07.05.15.11.2.16.07.07.12.13.16.2.31.48.25,1.14-.16,1.55-.43.43-1.07.48-1.55.16-.07-.05-.15-.11-.2-.16-.07-.07-.12-.13-.16-.2-.31-.48-.25-1.14.16-1.55h0ZM237.59,631.06c-.84,0-1.55.63-1.67,1.43h-2.74l3.09-3.09-.37-.37-3.47,3.47h-.96c-.16-1.08-1.1-1.93-2.22-1.93s-2.06.83-2.22,1.93h-5.29l3.47-3.47h4.9v-.52h-4.38l1.78-1.78c.31.23.68.35,1.06.35.45,0,.91-.17,1.24-.52.63-.63.68-1.61.17-2.3l.43-.43h3.04v-.52h-2.5l1.75-1.75-.37-.37-1.75,1.75v-2.5h-.52v3.04l-.43.43c-.7-.51-1.67-.45-2.3.17s-.68,1.61-.17,2.3l-1.78,1.78v-4.38h-.52v4.9l-3.47,3.47v-5.27c1.15-.09,2.05-1.07,2.05-2.25s-.91-2.14-2.05-2.25v-.95l3.47-3.47-.37-.37-3.09,3.09v-2.74c.82-.12,1.43-.83,1.43-1.67,0-.94-.76-1.7-1.7-1.7s-1.7.76-1.7,1.7c0,.84.63,1.55,1.43,1.67v2.74l-3.09-3.09-.37.37,3.47,3.47v.96c-1.08.16-1.93,1.1-1.93,2.22s.83,2.06,1.93,2.22v5.29l-3.47-3.47v-4.9h-.52v4.38l-1.78-1.78c.23-.31.35-.67.35-1.06,0-.47-.19-.92-.52-1.24-.33-.33-.78-.52-1.24-.52-.39,0-.75.12-1.06.35l-.43-.43v-3.04h-.52v2.5l-1.75-1.75-.37.37,1.75,1.75h-2.5v.52h3.04l.43.43c-.23.31-.35.67-.35,1.06,0,.47.19.92.52,1.24.33.33.78.52,1.24.52.39,0,.75-.12,1.06-.35l1.78,1.78h-4.38v.52h4.9l3.47,3.47h-5.27c-.09-1.15-1.07-2.05-2.25-2.05s-2.14.91-2.25,2.05h-.95l-3.47-3.47-.37.37,3.09,3.09h-2.74c-.12-.82-.83-1.43-1.67-1.43-.94,0-1.7.76-1.7,1.7s.76,1.7,1.7,1.7c.84,0,1.55-.63,1.67-1.43h2.74l-3.09,3.09.37.37,3.47-3.47h.96c.16,1.08,1.1,1.93,2.22,1.93s2.06-.83,2.22-1.93h5.29l-3.47,3.47h-4.9v.52h4.38l-1.78,1.78c-.31-.23-.67-.35-1.06-.35-.47,0-.92.19-1.24.52-.33.33-.52.78-.52,1.24,0,.39.12.75.35,1.06l-.43.43h-3.04v.52h2.5l-1.75,1.75.37.37,1.75-1.75v2.5h.52v-3.04l.43-.43c.31.23.67.35,1.06.35.47,0,.92-.19,1.24-.52.33-.33.52-.78.52-1.24,0-.39-.12-.75-.35-1.06l1.78-1.78v4.38h.52v-4.9l3.47-3.47v5.27c-1.15.09-2.05,1.07-2.05,2.25s.91,2.14,2.05,2.25v.95l-3.47,3.47.37.37,3.09-3.09v2.74c-.82.12-1.43.83-1.43,1.67,0,.94.76,1.7,1.7,1.7s1.7-.76,1.7-1.7c0-.84-.63-1.55-1.43-1.67v-2.74l3.09,3.09.37-.37-3.47-3.47v-.96c1.08-.16,1.93-1.1,1.93-2.22s-.83-2.06-1.93-2.22v-5.29l3.47,3.47v4.9h.52v-4.38l1.78,1.78c-.23.31-.35.67-.35,1.06,0,.47.19.92.52,1.24.33.33.78.52,1.24.52.39,0,.75-.12,1.06-.35l.43.43v3.04h.52v-2.5l1.75,1.75.37-.37-1.75-1.75h2.5v-.52h-3.04l-.43-.43c.23-.31.35-.67.35-1.06,0-.47-.19-.92-.52-1.24-.33-.33-.78-.52-1.24-.52-.39,0-.75.12-1.06.35l-1.78-1.78h4.38v-.52h-4.9l-3.47-3.47h5.27c.09,1.15,1.07,2.05,2.25,2.05s2.14-.91,2.25-2.05h.95l3.47,3.47.37-.37-3.09-3.09h2.74c.12.82.83,1.43,1.67,1.43.94,0,1.7-.76,1.7-1.7s-.76-1.7-1.7-1.7h0Z"/>
  <g>
    <path class="st0" d="M101.28,551.55c0-.67.55-1.22,1.22-1.22s1.22.55,1.22,1.22-.55,1.22-1.22,1.22-1.22-.55-1.22-1.22h0Z"/>
    <path class="st0" d="M88.37,542.69c.58-.33,1.32-.13,1.66.44.33.58.13,1.32-.44,1.66s-1.32.13-1.66-.44c-.33-.58-.13-1.32.44-1.66h0Z"/>
    <path class="st0" d="M116.62,529.17c-.58.33-1.32.13-1.66-.44s-.13-1.32.44-1.66,1.32-.13,1.66.44.13,1.32-.44,1.66h0Z"/>
    <path class="st0" d="M89.58,527.07c.58.33.78,1.08.44,1.66s-1.08.78-1.66.44-.78-1.08-.44-1.66,1.08-.78,1.66-.44h0Z"/>
    <path class="st0" d="M115.41,544.79c-.58-.33-.78-1.08-.44-1.66s1.08-.78,1.66-.44.78,1.08.44,1.66-1.08.78-1.66.44h0Z"/>
    <path class="st0" d="M102.49,521.53c.67,0,1.22-.55,1.22-1.22s-.55-1.22-1.22-1.22-1.22.55-1.22,1.22.55,1.22,1.22,1.22h0Z"/>
    <path class="st0" d="M102.49,539.99l-4.05,2.97.55-4.99-4.59-2.02,4.59-2.02-.55-4.99,4.05,2.97,4.05-2.97-.55,4.99,4.59,2.02-4.59,2.02.55,4.99-4.05-2.97h0ZM113.46,539.57l-.12-.47-3.32.9-3.21-1.86,4.99-2.21-4.99-2.21,3.21-1.86,3.32.9.12-.47-2.86-.76,3.48-2.01-.24-.41-3.48,2.01.76-2.86-.47-.12-.9,3.32-3.21,1.86.59-5.43-4.4,3.22v-3.72l2.44-2.44-.33-.33-2.09,2.09v-4.01h-.48v4.01l-2.09-2.09-.33.33,2.44,2.44v3.72l-4.4-3.22.59,5.43-3.21-1.86-.9-3.32-.47.12.76,2.86-3.48-2.01-.24.41,3.48,2.01-2.86.76.12.47,3.32-.9,3.21,1.86-4.99,2.21,4.99,2.21-3.21,1.86-3.32-.9-.12.47,2.86.76-3.48,2.01.24.41,3.48-2.01-.76,2.86.47.12.9-3.32,3.21-1.86-.59,5.43,4.42-3.22v3.72l-2.44,2.44.33.33,2.09-2.09v4.01h.48v-4.01l2.09,2.09.33-.33-2.44-2.44v-3.72l4.4,3.22-.59-5.43,3.21,1.86.9,3.32.47-.12-.76-2.86,3.48,2.01.24-.41-3.48-2.01,2.86-.76h-.01Z"/>
    <path class="st0" d="M102.49,537.71c-.99,0-1.81-.82-1.81-1.81s.82-1.81,1.81-1.81,1.81.82,1.81,1.81-.82,1.81-1.81,1.81h0ZM102.49,533.63c-1.26,0-2.29,1.03-2.29,2.29s1.03,2.29,2.29,2.29,2.29-1.03,2.29-2.29-1.03-2.29-2.29-2.29h0Z"/>
  </g>
  <g>
    <path class="st0" d="M83.75,366.37c0-.45.37-.83.83-.83s.83.37.83.83-.37.83-.83.83-.83-.37-.83-.83h0Z"/>
    <path class="st0" d="M74.91,360.31c.4-.23.91-.09,1.14.31s.09.91-.31,1.14-.91.09-1.14-.31-.09-.91.31-1.14h0Z"/>
    <path class="st0" d="M94.26,351.05c-.4.23-.91.09-1.14-.31s-.09-.91.31-1.14.91-.09,1.14.31.09.91-.31,1.14h0Z"/>
    <path class="st0" d="M75.74,349.6c.4.23.54.74.31,1.14s-.74.54-1.14.31-.54-.74-.31-1.14.74-.54,1.14-.31h0Z"/>
    <path class="st0" d="M93.43,361.74c-.4-.23-.54-.74-.31-1.14s.74-.54,1.14-.31.54.74.31,1.14-.74.54-1.14.31h0Z"/>
    <path class="st0" d="M84.58,345.82c.45,0,.83-.37.83-.83s-.37-.83-.83-.83-.83.37-.83.83.37.83.83.83h0Z"/>
    <path class="st0" d="M84.58,358.45l-2.77,2.03.37-3.41-3.14-1.39,3.14-1.39-.37-3.41,2.77,2.03,2.77-2.03-.37,3.41,3.14,1.39-3.14,1.39.37,3.41-2.77-2.03h0ZM92.09,358.17l-.08-.32-2.27.62-2.21-1.27,3.43-1.51-3.43-1.51,2.21-1.27,2.27.62.08-.32-1.95-.52,2.38-1.38-.16-.28-2.38,1.38.52-1.95-.32-.08-.62,2.27-2.21,1.27.4-3.72-3.02,2.21v-2.54l1.66-1.66-.23-.23-1.43,1.43v-2.74h-.33v2.74l-1.43-1.43-.23.23,1.66,1.66v2.54l-3.02-2.21.4,3.72-2.21-1.27-.62-2.27-.32.08.52,1.95-2.38-1.38-.16.28,2.38,1.38-1.95.52.08.32,2.27-.62,2.21,1.27-3.43,1.51,3.43,1.51-2.21,1.27-2.27-.62-.08.32,1.95.52-2.38,1.38.16.28,2.38-1.38-.52,1.95.32.08.62-2.27,2.21-1.27-.4,3.72,3.02-2.21v2.54l-1.66,1.66.23.23,1.43-1.43v2.74h.33v-2.74l1.43,1.43.23-.23-1.66-1.66v-2.54l3.02,2.21-.4-3.72,2.21,1.27.62,2.27.32-.08-.52-1.95,2.38,1.38.16-.28-2.38-1.38,1.95-.52h0Z"/>
    <path class="st0" d="M84.58,356.89c-.68,0-1.23-.56-1.23-1.23s.56-1.23,1.23-1.23,1.23.56,1.23,1.23-.56,1.23-1.23,1.23h0ZM84.58,354.1c-.86,0-1.57.71-1.57,1.57s.71,1.57,1.57,1.57,1.57-.71,1.57-1.57-.71-1.57-1.57-1.57h0Z"/>
  </g>
  <g>
    <polygon class="st0" points="169.35 680.77 169.41 682.67 171.02 683.67 170.95 681.77 169.35 680.77 169.35 680.77"/>
    <polygon class="st0" points="175.68 691.78 175.61 689.88 174 688.86 174.07 690.78 175.68 691.78 175.68 691.78"/>
    <polygon class="st0" points="166.2 686.33 167.89 687.23 169.56 686.33 167.89 685.44 166.2 686.33 166.2 686.33"/>
    <polygon class="st0" points="178.9 686.35 177.23 685.46 175.54 686.35 177.23 687.24 178.9 686.35 178.9 686.35"/>
    <polygon class="st0" points="169.45 691.83 171.06 690.83 171.13 688.93 169.52 689.93 169.45 691.83 169.45 691.83"/>
    <path class="st0" d="M173.8,687.15c-.12.17-.28.31-.45.41-.71.41-1.62.16-2.03-.55-.13-.23-.2-.5-.2-.74s.07-.51.2-.74c.12-.2.28-.37.47-.5h0s.04-.03.07-.04h.03s.04-.03.07-.04c.01,0,.03,0,.05-.03h.04s.04,0,.05-.03h0c.16-.05.32-.09.51-.09.82,0,1.49.67,1.49,1.49,0,.32-.11.62-.28.86h0ZM182.23,689.89l-.09-.33-2.3.62-.09.03-.29-.17-2.36-1.35,4.58-1.23-.09-.33-4.82,1.28-.09.03-.29-.17-2.11-1.22c.11-.23.16-.47.16-.72v-.07c0-.25-.07-.5-.17-.74l2.11-1.22.29-.17.09.03,4.82,1.28.09-.33-4.58-1.23,2.36-1.35.29-.17.09.03,2.3.62.09-.33-2.06-.55,2.86-1.65-.17-.29-2.86,1.65.55-2.06-.33-.09-.62,2.3-.03.09-.29.17-2.36,1.35,1.23-4.58-.33-.09-1.28,4.82-.03.09-.29.17-2.11,1.22c-.24-.35-.6-.59-1.02-.71-.09-.03-.2-.04-.31-.05v-2.78l.07-.07,3.52-3.52-.24-.24-3.36,3.36v-3.06l.07-.07,1.69-1.69-.24-.24-1.51,1.51v-3.31h-.35v3.31l-1.51-1.51-.24.24,1.69,1.69.07.07v3.06l-3.36-3.36-.24.24,3.52,3.52.07.07v2.78c-.25.03-.51.11-.75.24h0c-.24.13-.43.32-.58.52l-2.11-1.22-.29-.17-.03-.09-1.28-4.82-.33.09,1.23,4.58-2.36-1.35-.29-.17-.03-.09-.62-2.3-.33.09.55,2.06-2.86-1.65-.17.29,2.86,1.65-2.06.55.09.33,2.3-.62.09-.03.29.17,2.36,1.35-4.58,1.23.09.33,4.82-1.28.09-.03.29.17,2.11,1.22c-.11.24-.17.5-.17.78s.07.52.16.76l-2.11,1.22-.29.17-.09-.03-4.82-1.28-.09.33,4.58,1.23-2.36,1.35-.29.17-.09-.03-2.3-.62-.09.33,2.06.55-2.86,1.65.17.29,2.86-1.65-.55,2.06.33.09.62-2.3.03-.09.29-.17,2.36-1.35-1.23,4.58.33.09,1.28-4.82.03-.09.29-.17,2.1-1.22c.31.43.79.72,1.34.78v2.77l-.07.07-3.52,3.52.24.24,3.36-3.36v3.06l-.07.07-1.69,1.69.24.24,1.51-1.51v3.31h.35v-3.31l1.51,1.51.24-.24-1.69-1.69-.07-.07v-3.06l3.36,3.36.24-.24-3.52-3.52-.07-.07v-2.77c.25-.03.51-.11.72-.23h.03s.03-.01.05-.03c.2-.12.39-.29.54-.5l2.11,1.22.29.17.03.09,1.28,4.82.33-.09-1.23-4.58,2.36,1.35.29.17.03.09.62,2.3.33-.09-.55-2.06,2.86,1.65.17-.29-2.86-1.65,2.06-.55h0v-.04Z"/>
    <polygon class="st0" points="175.82 680.85 174.2 681.85 174.14 683.75 175.74 682.75 175.82 680.85 175.82 680.85"/>
  </g>
  <g>
    <polygon class="st0" points="504.73 678.73 504.82 681.34 507.03 682.71 506.94 680.12 504.73 678.73 504.73 678.73"/>
    <polygon class="st0" points="513.4 693.81 513.31 691.2 511.1 689.82 511.19 692.43 513.4 693.81 513.4 693.81"/>
    <polygon class="st0" points="500.42 686.35 502.72 687.57 505.02 686.35 502.72 685.14 500.42 686.35 500.42 686.35"/>
    <polygon class="st0" points="517.82 686.38 515.52 685.16 513.21 686.38 515.52 687.6 517.82 686.38 517.82 686.38"/>
    <polygon class="st0" points="504.88 693.89 507.09 692.51 507.17 689.91 504.97 691.29 504.88 693.89 504.88 693.89"/>
    <path class="st0" d="M510.83,687.46c-.17.23-.37.43-.63.58-.98.56-2.22.23-2.78-.75-.19-.32-.27-.67-.27-1.02s.08-.7.27-1c.16-.28.39-.51.64-.68h.01s.05-.04.08-.05c0,0,.03,0,.03-.01.03-.01.07-.03.08-.05.03,0,.04-.03.07-.03,0,0,.03,0,.04-.03.03,0,.05-.03.08-.03h.01c.21-.08.45-.12.7-.12,1.12,0,2.03.91,2.03,2.03,0,.44-.13.84-.37,1.18h.01ZM522.37,691.22l-.12-.45-3.14.84-.13.04-.41-.24-3.22-1.86,6.26-1.69-.12-.45-6.6,1.77-.13.04-.41-.24-2.89-1.67c.15-.32.21-.66.23-.99v-.09c0-.35-.08-.68-.23-1l2.89-1.67.41-.24.13.04,6.6,1.77.12-.45-6.26-1.69,3.22-1.86.41-.24.13.04,3.14.84.12-.45-2.82-.75,3.92-2.26-.24-.41-3.92,2.26.75-2.82-.45-.12-.84,3.14-.04.13-.41.24-3.22,1.86,1.69-6.26-.45-.12-1.77,6.6-.04.13-.41.24-2.89,1.67c-.33-.47-.83-.82-1.39-.96-.13-.04-.28-.07-.41-.07v-3.81l.09-.09,4.82-4.82-.33-.33-4.59,4.59v-4.19l.09-.09,2.3-2.3-.33-.33-2.06,2.06v-4.52h-.47v4.52l-2.06-2.06-.33.33,2.3,2.3.09.09v4.19l-4.59-4.59-.33.33,4.82,4.82.09.09v3.81c-.35.04-.71.15-1.02.32h0c-.32.19-.59.44-.79.72l-2.89-1.67-.41-.24-.04-.13-1.77-6.6-.45.12,1.69,6.26-3.22-1.86-.41-.24-.04-.13-.84-3.14-.45.12.75,2.82-3.92-2.26-.24.41,3.92,2.26-2.82.75.12.45,3.14-.84.13-.04.41.24,3.22,1.86-6.26,1.69.12.45,6.6-1.77.13-.04.41.24,2.89,1.67c-.15.32-.24.68-.24,1.06s.08.72.23,1.03l-2.89,1.66-.41.24-.13-.04-6.6-1.77-.12.45,6.26,1.69-3.22,1.86-.41.24-.13-.04-3.14-.84-.12.45,2.82.75-3.92,2.26.24.41,3.92-2.26-.75,2.82.45.12.84-3.14.04-.13.41-.24,3.22-1.86-1.69,6.26.45.12,1.77-6.6.04-.13.41-.24,2.89-1.66c.41.59,1.07.99,1.82,1.06v3.8l-.09.09-4.82,4.82.33.33,4.59-4.59v4.19l-.09.09-2.3,2.3.33.33,2.06-2.06v4.52h.47v-4.52l2.06,2.06.33-.33-2.3-2.3-.09-.09v-4.19l4.59,4.59.33-.33-4.82-4.82-.09-.09v-3.8c.36-.04.7-.15.99-.31,0,0,.03,0,.04-.03.03,0,.04-.03.07-.04.28-.17.54-.4.72-.68l2.89,1.67.41.24.04.13,1.77,6.6.45-.12-1.69-6.26,3.22,1.86.41.24.04.13.84,3.14.45-.12-.75-2.82,3.92,2.26.24-.41-3.92-2.26,2.82-.75h-.01Z"/>
    <polygon class="st0" points="513.59 678.85 511.38 680.22 511.29 682.82 513.49 681.44 513.59 678.85 513.59 678.85"/>
  </g>
  <g>
    <path class="st0" d="M376.12,651.36h3.77l1.89-3.28-1.89-3.28h-3.77l-1.89,3.28,1.89,3.28h0ZM380.26,651.99h-4.5l-2.25-3.89,2.25-3.89h4.5l2.25,3.89-2.25,3.89h0Z"/>
    <path class="st0" d="M382.34,655.59h-8.64l-4.15-7.17-.19-.31.19-.31,4.15-7.17h8.64l4.15,7.17.19.31-.19.31-4.15,7.17h0ZM399.46,647.77h-3.29l2.26-2.26-.44-.44-2.58,2.58-.13.13h-3.53l3.02-3.02-.44-.44-3.33,3.33-.13.13h-3.67l-3.08-5.34,2.77-2.77.44-.44h4.9v-.62h-4.27l2.06-2.06.44-.44h3.83v-.62h-3.2l2.33-2.33-.44-.44-2.33,2.33v-3.2h-.62v3.83l-.44.44-2.06,2.06v-4.27h-.62v4.9l-.44.44-2.65,2.65-1.1-1.89h-4.36v-4.75l.13-.13,3.33-3.33-.44-.44-3.02,3.02v-3.53l.13-.13,2.58-2.58-.44-.44-2.26,2.26v-3.29h-.62v3.29l-2.26-2.26-.44.44,2.58,2.58.13.13v3.53l-3.02-3.02-.44.44,3.33,3.33.13.13v4.75h-4.36l-1.1,1.89-2.65-2.65-.44-.44v-4.9h-.62v4.27l-2.06-2.06-.44-.44v-3.83h-.62v3.2l-2.33-2.33-.44.44,2.33,2.33h-3.2v.62h3.83l.44.44,2.06,2.06h-4.27v.62h4.9l.44.44,2.77,2.77-3.08,5.34h-3.67l-.13-.13-3.33-3.33-.44.44,3.02,3.02h-3.53l-.13-.13-2.58-2.58-.44.44,2.26,2.26h-3.29v.62h3.29l-2.26,2.26.44.44,2.58-2.58.13-.13h3.53l-3.02,3.02.44.44,3.33-3.33.13-.13h3.67l3.08,5.34-2.77,2.77-.44.44h-4.9v.62h4.27l-2.06,2.06-.44.44h-3.83v.62h3.2l-2.33,2.33.44.44,2.33-2.33v3.2h.62v-3.83l.44-.44,2.06-2.06v4.27h.62v-4.9l.44-.44,2.65-2.65,1.1,1.89h4.36v4.75l-.13.13-3.33,3.33.44.44,3.02-3.02v3.53l-.13.13-2.58,2.58.44.44,2.26-2.26v3.29h.62v-3.29l2.26,2.26.44-.44-2.58-2.58-.13-.13v-3.53l3.02,3.02.44-.44-3.33-3.33-.13-.13v-4.75h4.36l1.1-1.89,2.65,2.65.44.44v4.9h.62v-4.27l2.06,2.06.44.44v3.83h.62v-3.2l2.33,2.33.44-.44-2.33-2.33h3.2v-.62h-3.83l-.44-.44-2.06-2.06h4.27v-.62h-4.9l-.44-.44-2.77-2.77,3.08-5.34h3.67l.13.13,3.33,3.33.44-.44-3.02-3.02h3.53l.13.13,2.58,2.58.44-.44-2.26-2.26h3.29v-.62h0Z"/>
  </g>
  <g>
    <path class="st0" d="M125.29,443.64h3.77l1.89-3.28-1.89-3.28h-3.77l-1.89,3.28,1.89,3.28h0ZM129.42,444.26h-4.5l-2.25-3.89,2.25-3.89h4.5l2.25,3.89-2.25,3.89h0Z"/>
    <path class="st0" d="M131.49,447.86h-8.64l-4.15-7.17-.19-.31.19-.31,4.15-7.17h8.64l4.15,7.17.19.31-.19.31-4.15,7.17h0ZM148.61,440.06h-3.29l2.26-2.26-.44-.44-2.58,2.58-.13.13h-3.53l3.02-3.02-.44-.44-3.33,3.33-.13.13h-3.67l-3.08-5.34,2.77-2.77.44-.44h4.9v-.62h-4.27l2.06-2.06.44-.44h3.83v-.62h-3.2l2.33-2.33-.44-.44-2.33,2.33v-3.2h-.62v3.83l-.44.44-2.06,2.06v-4.27h-.62v4.9l-.44.44-2.65,2.65-1.1-1.89h-4.36v-4.75l.13-.13,3.33-3.33-.44-.44-3.02,3.02v-3.53l.13-.13,2.58-2.58-.44-.44-2.26,2.26v-3.29h-.62v3.29l-2.26-2.26-.44.44,2.58,2.58.13.13v3.53l-3.02-3.02-.44.44,3.33,3.33.13.13v4.75h-4.36l-1.1,1.89-2.65-2.65-.44-.44v-4.9h-.62v4.27l-2.06-2.06-.44-.44v-3.83h-.62v3.2l-2.33-2.33-.44.44,2.33,2.33h-3.2v.62h3.83l.44.44,2.06,2.06h-4.27v.62h4.9l.44.44,2.77,2.77-3.08,5.34h-3.67l-.13-.13-3.33-3.33-.44.44,3.02,3.02h-3.53l-.13-.13-2.58-2.58-.44.44,2.26,2.26h-3.29v.62h3.29l-2.26,2.26.44.44,2.58-2.58.13-.13h3.53l-3.02,3.02.44.44,3.33-3.33.13-.13h3.67l3.08,5.34-2.77,2.77-.44.44h-4.9v.62h4.27l-2.06,2.06-.44.44h-3.83v.62h3.2l-2.33,2.33.44.44,2.33-2.33v3.2h.62v-3.83l.44-.44,2.06-2.06v4.27h.62v-4.9l.44-.44,2.65-2.65,1.1,1.89h4.36v4.75l-.13.13-3.33,3.33.44.44,3.02-3.02v3.53l-.13.13-2.58,2.58.44.44,2.26-2.26v3.29h.62v-3.29l2.26,2.26.44-.44-2.58-2.58-.13-.13v-3.53l3.02,3.02.44-.44-3.33-3.33-.13-.13v-4.75h4.36l1.1-1.89,2.65,2.65.44.44v4.9h.62v-4.27l2.06,2.06.44.44v3.83h.62v-3.2l2.33,2.33.44-.44-2.33-2.33h3.2v-.62h-3.83l-.44-.44-2.06-2.06h4.27v-.62h-4.9l-.44-.44-2.77-2.77,3.08-5.34h3.67l.13.13,3.33,3.33.44-.44-3.02-3.02h3.53l.13.13,2.58,2.58.44-.44-2.26-2.26h3.29v-.62h0Z"/>
  </g>
  <path class="st0" d="M539.98,88.03c-.64,0-1.18-.52-1.18-1.18s.52-1.18,1.18-1.18,1.18.52,1.18,1.18-.52,1.18-1.18,1.18h0ZM531.63,88.64c-.88,0-1.61-.67-1.71-1.53v-.2c0-.11,0-.21.03-.32.16-.79.86-1.39,1.69-1.39s1.54.6,1.69,1.39c.03.11.03.21.03.32v.2c-.09.86-.83,1.53-1.71,1.53h0ZM525.14,95.01c0,.83-.6,1.54-1.39,1.69-.11.03-.21.03-.32.03h-.2c-.86-.09-1.53-.83-1.53-1.71s.67-1.61,1.53-1.71h.2c.11,0,.21,0,.32.03.79.16,1.39.86,1.39,1.69h0ZM524.64,103.36c0,.64-.52,1.18-1.18,1.18s-1.18-.52-1.18-1.18.52-1.18,1.18-1.18,1.18.52,1.18,1.18h0ZM515.33,88.52c-.83,0-1.54-.6-1.69-1.39-.03-.11-.03-.21-.03-.32v-.2c.09-.86.83-1.53,1.71-1.53s1.61.67,1.71,1.53v.2c0,.11,0,.21-.03.32-.16.79-.86,1.39-1.69,1.39h0ZM521.82,78.71c0-.83.6-1.54,1.39-1.69.11-.03.21-.03.32-.03h.2c.86.09,1.53.83,1.53,1.71s-.67,1.61-1.53,1.71h-.2c-.11,0-.21,0-.32-.03-.79-.16-1.39-.86-1.39-1.69h0ZM522.3,70.36c0-.64.52-1.18,1.18-1.18s1.18.52,1.18,1.18-.52,1.18-1.18,1.18-1.18-.52-1.18-1.18h0ZM530.93,93.08c.33,0,.64.13.88.36.24.24.36.55.36.88,0,.24-.07.47-.2.67-.05.07-.11.15-.16.2-.07.07-.13.12-.2.16-.2.13-.43.2-.67.2-.33,0-.64-.13-.88-.36-.24-.24-.36-.55-.36-.88,0-.24.07-.47.2-.67.05-.07.11-.15.16-.2h0s.13-.12.2-.16c.2-.13.43-.2.67-.2h0ZM517.25,94.32c0,.33-.13.64-.36.88-.24.24-.55.36-.88.36-.24,0-.47-.07-.67-.2-.07-.05-.15-.11-.2-.16-.07-.07-.12-.13-.16-.2-.13-.2-.2-.43-.2-.67,0-.33.13-.64.36-.88.24-.24.55-.36.88-.36.24,0,.47.07.67.2.07.05.15.11.2.16h0s.12.13.16.2c.13.2.2.43.2.67h0ZM506.98,88.03c-.64,0-1.18-.52-1.18-1.18s.52-1.18,1.18-1.18,1.18.52,1.18,1.18-.52,1.18-1.18,1.18h0ZM516.01,80.63c-.33,0-.64-.13-.88-.36-.24-.24-.36-.55-.36-.88,0-.24.07-.47.2-.67.05-.07.11-.15.16-.2.07-.07.13-.12.2-.16.2-.13.43-.2.67-.2.33,0,.64.13.88.36.24.24.36.55.36.88,0,.24-.07.47-.2.67-.05.07-.11.15-.16.2-.07.07-.13.12-.2.16-.2.13-.43.2-.67.2h0ZM530.06,78.51c.24-.24.56-.36.88-.36.24,0,.47.07.67.2.07.05.15.11.2.16.07.07.12.13.16.2.31.48.25,1.14-.16,1.55-.43.43-1.07.48-1.55.16-.07-.05-.15-.11-.2-.16-.07-.07-.12-.13-.16-.2-.31-.48-.25-1.14.16-1.55h0ZM539.98,85.16c-.84,0-1.55.63-1.67,1.43h-2.74l3.09-3.09-.37-.37-3.47,3.47h-.96c-.16-1.08-1.1-1.93-2.22-1.93s-2.06.83-2.22,1.93h-5.29l3.47-3.47h4.9v-.52h-4.38l1.78-1.78c.31.23.68.35,1.06.35.45,0,.91-.17,1.24-.52.63-.63.68-1.61.17-2.3l.43-.43h3.04v-.52h-2.5l1.75-1.75-.37-.37-1.75,1.75v-2.5h-.52v3.04l-.43.43c-.7-.51-1.67-.45-2.3.17s-.68,1.61-.17,2.3l-1.78,1.78v-4.38h-.52v4.9l-3.47,3.47v-5.27c1.15-.09,2.05-1.07,2.05-2.25s-.91-2.14-2.05-2.25v-.95l3.47-3.47-.37-.37-3.09,3.09v-2.74c.82-.12,1.43-.83,1.43-1.67,0-.94-.76-1.7-1.7-1.7s-1.7.76-1.7,1.7c0,.84.63,1.55,1.43,1.67v2.74l-3.09-3.09-.37.37,3.47,3.47v.96c-1.08.16-1.93,1.1-1.93,2.22s.83,2.06,1.93,2.22v5.29l-3.47-3.47v-4.9h-.52v4.38l-1.78-1.78c.23-.31.35-.67.35-1.06,0-.47-.19-.92-.52-1.24-.33-.33-.78-.52-1.24-.52-.39,0-.75.12-1.06.35l-.43-.43v-3.04h-.52v2.5l-1.75-1.75-.37.37,1.75,1.75h-2.5v.52h3.04l.43.43c-.23.31-.35.67-.35,1.06,0,.47.19.92.52,1.24.33.33.78.52,1.24.52.39,0,.75-.12,1.06-.35l1.78,1.78h-4.38v.52h4.9l3.47,3.47h-5.27c-.09-1.15-1.07-2.05-2.25-2.05s-2.14.91-2.25,2.05h-.95l-3.47-3.47-.37.37,3.09,3.09h-2.74c-.12-.82-.83-1.43-1.67-1.43-.94,0-1.7.76-1.7,1.7s.76,1.7,1.7,1.7c.84,0,1.55-.63,1.67-1.43h2.74l-3.09,3.09.37.37,3.47-3.47h.96c.16,1.08,1.1,1.93,2.22,1.93s2.06-.83,2.22-1.93h5.29l-3.47,3.47h-4.9v.52h4.38l-1.78,1.78c-.31-.23-.67-.35-1.06-.35-.47,0-.92.19-1.24.52-.33.33-.52.78-.52,1.24,0,.39.12.75.35,1.06l-.43.43h-3.04v.52h2.5l-1.75,1.75.37.37,1.75-1.75v2.5h.52v-3.04l.43-.43c.31.23.67.35,1.06.35.47,0,.92-.19,1.24-.52.33-.33.52-.78.52-1.24,0-.39-.12-.75-.35-1.06l1.78-1.78v4.38h.52v-4.9l3.47-3.47v5.27c-1.15.09-2.05,1.07-2.05,2.25s.91,2.14,2.05,2.25v.95l-3.47,3.47.37.37,3.09-3.09v2.74c-.82.12-1.43.83-1.43,1.67,0,.94.76,1.7,1.7,1.7s1.7-.76,1.7-1.7c0-.84-.63-1.55-1.43-1.67v-2.74l3.09,3.09.37-.37-3.47-3.47v-.96c1.08-.16,1.93-1.1,1.93-2.22s-.83-2.06-1.93-2.22v-5.29l3.47,3.47v4.9h.52v-4.38l1.78,1.78c-.23.31-.35.67-.35,1.06,0,.47.19.92.52,1.24.33.33.78.52,1.24.52.39,0,.75-.12,1.06-.35l.43.43v3.04h.52v-2.5l1.75,1.75.37-.37-1.75-1.75h2.5v-.52h-3.04l-.43-.43c.23-.31.35-.67.35-1.06,0-.47-.19-.92-.52-1.24-.33-.33-.78-.52-1.24-.52-.39,0-.75.12-1.06.35l-1.78-1.78h4.38v-.52h-4.9l-3.47-3.47h5.27c.09,1.15,1.07,2.05,2.25,2.05s2.14-.91,2.25-2.05h.95l3.47,3.47.37-.37-3.09-3.09h2.74c.12.82.83,1.43,1.67,1.43.94,0,1.7-.76,1.7-1.7s-.76-1.7-1.7-1.7h0Z"/>
  <g>
    <path class="st0" d="M251.12,338.75c0-.67.55-1.22,1.22-1.22s1.22.55,1.22,1.22-.55,1.22-1.22,1.22-1.22-.55-1.22-1.22h0Z"/>
    <path class="st0" d="M238.21,329.89c.58-.33,1.32-.13,1.66.44.33.58.13,1.32-.44,1.66s-1.32.13-1.66-.44c-.33-.58-.13-1.32.44-1.66h0Z"/>
    <path class="st0" d="M266.45,316.38c-.58.33-1.32.13-1.66-.44s-.13-1.32.44-1.66,1.32-.13,1.66.44.13,1.32-.44,1.66h0Z"/>
    <path class="st0" d="M239.41,314.28c.58.33.78,1.08.44,1.66s-1.08.78-1.66.44-.78-1.08-.44-1.66,1.08-.78,1.66-.44h0Z"/>
    <path class="st0" d="M265.25,331.99c-.58-.33-.78-1.08-.44-1.66s1.08-.78,1.66-.44.78,1.08.44,1.66-1.08.78-1.66.44h0Z"/>
    <path class="st0" d="M252.32,308.74c.67,0,1.22-.55,1.22-1.22s-.55-1.22-1.22-1.22-1.22.55-1.22,1.22.55,1.22,1.22,1.22h0Z"/>
    <path class="st0" d="M252.32,327.19l-4.05,2.97.55-4.99-4.59-2.02,4.59-2.02-.55-4.99,4.05,2.97,4.05-2.97-.55,4.99,4.59,2.02-4.59,2.02.55,4.99-4.05-2.97h0ZM263.3,326.77l-.12-.47-3.32.9-3.21-1.86,4.99-2.21-4.99-2.21,3.21-1.86,3.32.9.12-.47-2.86-.76,3.48-2.01-.24-.41-3.48,2.01.76-2.86-.47-.12-.9,3.32-3.21,1.86.59-5.43-4.4,3.22v-3.72l2.44-2.44-.33-.33-2.09,2.09v-4.01h-.48v4.01l-2.09-2.09-.33.33,2.44,2.44v3.72l-4.4-3.22.59,5.43-3.21-1.86-.9-3.32-.47.12.76,2.86-3.48-2.01-.24.41,3.48,2.01-2.86.76.12.47,3.32-.9,3.21,1.86-4.99,2.21,4.99,2.21-3.21,1.86-3.32-.9-.12.47,2.86.76-3.48,2.01.24.41,3.48-2.01-.76,2.86.47.12.9-3.32,3.21-1.86-.59,5.43,4.42-3.22v3.72l-2.44,2.44.33.33,2.09-2.09v4.01h.48v-4.01l2.09,2.09.33-.33-2.44-2.44v-3.72l4.4,3.22-.59-5.43,3.21,1.86.9,3.32.47-.12-.76-2.86,3.48,2.01.24-.41-3.48-2.01,2.86-.76h-.01Z"/>
    <path class="st0" d="M252.32,324.91c-.99,0-1.81-.82-1.81-1.81s.82-1.81,1.81-1.81,1.81.82,1.81,1.81-.82,1.81-1.81,1.81h0ZM252.32,320.83c-1.26,0-2.29,1.03-2.29,2.29s1.03,2.29,2.29,2.29,2.29-1.03,2.29-2.29-1.03-2.29-2.29-2.29h0Z"/>
  </g>
  <g>
    <path class="st0" d="M856.51,507.21c0-.45.37-.83.83-.83s.83.37.83.83-.37.83-.83.83-.83-.37-.83-.83h0Z"/>
    <path class="st0" d="M847.66,501.15c.4-.23.91-.09,1.14.31s.09.91-.31,1.14-.91.09-1.14-.31-.09-.91.31-1.14h0Z"/>
    <path class="st0" d="M867.01,491.89c-.4.23-.91.09-1.14-.31s-.09-.91.31-1.14.91-.09,1.14.31.09.91-.31,1.14h0Z"/>
    <path class="st0" d="M848.49,490.45c.4.23.54.74.31,1.14s-.74.54-1.14.31-.54-.74-.31-1.14.74-.54,1.14-.31h0Z"/>
    <path class="st0" d="M866.18,502.58c-.4-.23-.54-.74-.31-1.14s.74-.54,1.14-.31.54.74.31,1.14-.74.54-1.14.31h0Z"/>
    <path class="st0" d="M857.34,486.66c.45,0,.83-.37.83-.83s-.37-.83-.83-.83-.83.37-.83.83.37.83.83.83h0Z"/>
    <path class="st0" d="M857.34,499.29l-2.77,2.03.37-3.41-3.14-1.39,3.14-1.39-.37-3.41,2.77,2.03,2.77-2.03-.37,3.41,3.14,1.39-3.14,1.39.37,3.41-2.77-2.03h0ZM864.84,499.01l-.08-.32-2.27.62-2.21-1.27,3.43-1.51-3.43-1.51,2.21-1.27,2.27.62.08-.32-1.95-.52,2.38-1.38-.16-.28-2.38,1.38.52-1.95-.32-.08-.62,2.27-2.21,1.27.4-3.72-3.02,2.21v-2.54l1.66-1.66-.23-.23-1.43,1.43v-2.74h-.33v2.74l-1.43-1.43-.23.23,1.66,1.66v2.54l-3.02-2.21.4,3.72-2.21-1.27-.62-2.27-.32.08.52,1.95-2.38-1.38-.16.28,2.38,1.38-1.95.52.08.32,2.27-.62,2.21,1.27-3.43,1.51,3.43,1.51-2.21,1.27-2.27-.62-.08.32,1.95.52-2.38,1.38.16.28,2.38-1.38-.52,1.95.32.08.62-2.27,2.21-1.27-.4,3.72,3.02-2.21v2.54l-1.66,1.66.23.23,1.43-1.43v2.74h.33v-2.74l1.43,1.43.23-.23-1.66-1.66v-2.54l3.02,2.21-.4-3.72,2.21,1.27.62,2.27.32-.08-.52-1.95,2.38,1.38.16-.28-2.38-1.38,1.95-.52h0Z"/>
    <path class="st0" d="M857.34,497.74c-.68,0-1.23-.56-1.23-1.23s.56-1.23,1.23-1.23,1.23.56,1.23,1.23-.56,1.23-1.23,1.23h0ZM857.34,494.94c-.86,0-1.57.71-1.57,1.57s.71,1.57,1.57,1.57,1.57-.71,1.57-1.57-.71-1.57-1.57-1.57h0Z"/>
  </g>
  <g>
    <polygon class="st0" points="732.79 313.52 732.86 315.42 734.47 316.42 734.4 314.52 732.79 313.52 732.79 313.52"/>
    <polygon class="st0" points="739.12 324.53 739.06 322.63 737.45 321.62 737.52 323.53 739.12 324.53 739.12 324.53"/>
    <polygon class="st0" points="729.65 319.09 731.33 319.98 733.01 319.09 731.33 318.19 729.65 319.09 729.65 319.09"/>
    <polygon class="st0" points="742.35 319.1 740.67 318.22 738.99 319.1 740.67 320 742.35 319.1 742.35 319.1"/>
    <polygon class="st0" points="732.9 324.59 734.51 323.58 734.57 321.68 732.97 322.69 732.9 324.59 732.9 324.59"/>
    <path class="st0" d="M737.25,319.9c-.12.17-.28.31-.45.41-.71.41-1.62.16-2.03-.55-.13-.23-.2-.5-.2-.74s.07-.51.2-.74c.12-.2.28-.37.47-.5h0s.04-.03.07-.04h.03s.04-.03.07-.04c.01,0,.03,0,.05-.03h.04s.04,0,.05-.03h0c.16-.05.32-.09.51-.09.82,0,1.49.67,1.49,1.49,0,.32-.11.62-.28.86h0ZM745.68,322.65l-.09-.33-2.3.62-.09.03-.29-.17-2.36-1.35,4.58-1.23-.09-.33-4.82,1.28-.09.03-.29-.17-2.11-1.22c.11-.23.16-.47.16-.72v-.07c0-.25-.07-.5-.17-.74l2.11-1.22.29-.17.09.03,4.82,1.28.09-.33-4.58-1.23,2.36-1.35.29-.17.09.03,2.3.62.09-.33-2.06-.55,2.86-1.65-.17-.29-2.86,1.65.55-2.06-.33-.09-.62,2.3-.03.09-.29.17-2.36,1.35,1.23-4.58-.33-.09-1.28,4.82-.03.09-.29.17-2.11,1.22c-.24-.35-.6-.59-1.02-.71-.09-.03-.2-.04-.31-.05v-2.78l.07-.07,3.52-3.52-.24-.24-3.36,3.36v-3.06l.07-.07,1.69-1.69-.24-.24-1.51,1.51v-3.31h-.35v3.31l-1.51-1.51-.24.24,1.69,1.69.07.07v3.06l-3.36-3.36-.24.24,3.52,3.52.07.07v2.78c-.25.03-.51.11-.75.24h0c-.24.13-.43.32-.58.52l-2.11-1.22-.29-.17-.03-.09-1.28-4.82-.33.09,1.23,4.58-2.36-1.35-.29-.17-.03-.09-.62-2.3-.33.09.55,2.06-2.86-1.65-.17.29,2.86,1.65-2.06.55.09.33,2.3-.62.09-.03.29.17,2.36,1.35-4.58,1.23.09.33,4.82-1.28.09-.03.29.17,2.11,1.22c-.11.24-.17.5-.17.78s.07.52.16.76l-2.11,1.22-.29.17-.09-.03-4.82-1.28-.09.33,4.58,1.23-2.36,1.35-.29.17-.09-.03-2.3-.62-.09.33,2.06.55-2.86,1.65.17.29,2.86-1.65-.55,2.06.33.09.62-2.3.03-.09.29-.17,2.36-1.35-1.23,4.58.33.09,1.28-4.82.03-.09.29-.17,2.1-1.22c.31.43.79.72,1.34.78v2.77l-.07.07-3.52,3.52.24.24,3.36-3.36v3.06l-.07.07-1.69,1.69.24.24,1.51-1.51v3.31h.35v-3.31l1.51,1.51.24-.24-1.69-1.69-.07-.07v-3.06l3.36,3.36.24-.24-3.52-3.52-.07-.07v-2.77c.25-.03.51-.11.72-.23h.03s.03-.01.05-.03c.2-.12.39-.29.54-.5l2.11,1.22.29.17.03.09,1.28,4.82.33-.09-1.23-4.58,2.36,1.35.29.17.03.09.62,2.3.33-.09-.55-2.06,2.86,1.65.17-.29-2.86-1.65,2.06-.55h0v-.04Z"/>
    <polygon class="st0" points="739.27 313.6 737.65 314.6 737.58 316.5 739.19 315.5 739.27 313.6 739.27 313.6"/>
  </g>
  <g>
    <polygon class="st0" points="899.85 379.43 899.95 382.04 902.16 383.42 902.06 380.82 899.85 379.43 899.85 379.43"/>
    <polygon class="st0" points="908.52 394.51 908.43 391.9 906.22 390.52 906.32 393.13 908.52 394.51 908.52 394.51"/>
    <polygon class="st0" points="895.55 387.06 897.85 388.27 900.15 387.06 897.85 385.84 895.55 387.06 895.55 387.06"/>
    <polygon class="st0" points="912.94 387.08 910.64 385.86 908.34 387.08 910.64 388.3 912.94 387.08 912.94 387.08"/>
    <polygon class="st0" points="900 394.59 902.21 393.21 902.29 390.62 900.09 391.99 900 394.59 900 394.59"/>
    <path class="st0" d="M905.96,388.17c-.17.23-.37.43-.63.58-.98.56-2.22.23-2.78-.75-.19-.32-.27-.67-.27-1.02s.08-.7.27-1c.16-.28.39-.51.64-.68h.01s.05-.04.08-.05c0,0,.03,0,.03-.01.03-.01.07-.03.08-.05.03,0,.04-.03.07-.03,0,0,.03,0,.04-.03.03,0,.05-.03.08-.03h.01c.21-.08.45-.12.7-.12,1.12,0,2.03.91,2.03,2.03,0,.44-.13.84-.37,1.18h.01ZM917.49,391.93l-.12-.45-3.14.84-.13.04-.41-.24-3.22-1.86,6.26-1.69-.12-.45-6.6,1.77-.13.04-.41-.24-2.89-1.67c.15-.32.21-.66.23-.99v-.09c0-.35-.08-.68-.23-1l2.89-1.67.41-.24.13.04,6.6,1.77.12-.45-6.26-1.69,3.22-1.86.41-.24.13.04,3.14.84.12-.45-2.82-.75,3.92-2.26-.24-.41-3.92,2.26.75-2.82-.45-.12-.84,3.14-.04.13-.41.24-3.22,1.86,1.69-6.26-.45-.12-1.77,6.6-.04.13-.41.24-2.89,1.67c-.33-.47-.83-.82-1.39-.96-.13-.04-.28-.07-.41-.07v-3.81l.09-.09,4.82-4.82-.33-.33-4.59,4.59v-4.19l.09-.09,2.3-2.3-.33-.33-2.06,2.06v-4.52h-.47v4.52l-2.06-2.06-.33.33,2.3,2.3.09.09v4.19l-4.59-4.59-.33.33,4.82,4.82.09.09v3.81c-.35.04-.71.15-1.02.32h0c-.32.19-.59.44-.79.72l-2.89-1.67-.41-.24-.04-.13-1.77-6.6-.45.12,1.69,6.26-3.22-1.86-.41-.24-.04-.13-.84-3.14-.45.12.75,2.82-3.92-2.26-.24.41,3.92,2.26-2.82.75.12.45,3.14-.84.13-.04.41.24,3.22,1.86-6.26,1.69.12.45,6.6-1.77.13-.04.41.24,2.89,1.67c-.15.32-.24.68-.24,1.06s.08.72.23,1.03l-2.89,1.66-.41.24-.13-.04-6.6-1.77-.12.45,6.26,1.69-3.22,1.86-.41.24-.13-.04-3.14-.84-.12.45,2.82.75-3.92,2.26.24.41,3.92-2.26-.75,2.82.45.12.84-3.14.04-.13.41-.24,3.22-1.86-1.69,6.26.45.12,1.77-6.6.04-.13.41-.24,2.89-1.66c.41.59,1.07.99,1.82,1.06v3.8l-.09.09-4.82,4.82.33.33,4.59-4.59v4.19l-.09.09-2.3,2.3.33.33,2.06-2.06v4.52h.47v-4.52l2.06,2.06.33-.33-2.3-2.3-.09-.09v-4.19l4.59,4.59.33-.33-4.82-4.82-.09-.09v-3.8c.36-.04.7-.15.99-.31,0,0,.03,0,.04-.03.03,0,.04-.03.07-.04.28-.17.54-.4.72-.68l2.89,1.67.41.24.04.13,1.77,6.6.45-.12-1.69-6.26,3.22,1.86.41.24.04.13.84,3.14.45-.12-.75-2.82,3.92,2.26.24-.41-3.92-2.26,2.82-.75h-.01Z"/>
    <polygon class="st0" points="908.71 379.55 906.5 380.93 906.41 383.52 908.62 382.14 908.71 379.55 908.71 379.55"/>
  </g>
  <g>
    <path class="st0" d="M824.58,429.01h3.77l1.89-3.28-1.89-3.28h-3.77l-1.89,3.28,1.89,3.28h0ZM828.71,429.64h-4.5l-2.25-3.89,2.25-3.89h4.5l2.25,3.89-2.25,3.89h0Z"/>
    <path class="st0" d="M830.8,433.24h-8.64l-4.15-7.17-.19-.31.19-.31,4.15-7.17h8.64l4.15,7.17.19.31-.19.31-4.15,7.17h0ZM847.92,425.43h-3.29l2.26-2.26-.44-.44-2.58,2.58-.13.13h-3.53l3.02-3.02-.44-.44-3.33,3.33-.13.13h-3.67l-3.08-5.34,2.77-2.77.44-.44h4.9v-.62h-4.27l2.06-2.06.44-.44h3.83v-.62h-3.2l2.33-2.33-.44-.44-2.33,2.33v-3.2h-.62v3.83l-.44.44-2.06,2.06v-4.27h-.62v4.9l-.44.44-2.65,2.65-1.1-1.89h-4.36v-4.75l.13-.13,3.33-3.33-.44-.44-3.02,3.02v-3.53l.13-.13,2.58-2.58-.44-.44-2.26,2.26v-3.29h-.62v3.29l-2.26-2.26-.44.44,2.58,2.58.13.13v3.53l-3.02-3.02-.44.44,3.33,3.33.13.13v4.75h-4.36l-1.1,1.89-2.65-2.65-.44-.44v-4.9h-.62v4.27l-2.06-2.06-.44-.44v-3.83h-.62v3.2l-2.33-2.33-.44.44,2.33,2.33h-3.2v.62h3.83l.44.44,2.06,2.06h-4.27v.62h4.9l.44.44,2.77,2.77-3.08,5.34h-3.67l-.13-.13-3.33-3.33-.44.44,3.02,3.02h-3.53l-.13-.13-2.58-2.58-.44.44,2.26,2.26h-3.29v.62h3.29l-2.26,2.26.44.44,2.58-2.58.13-.13h3.53l-3.02,3.02.44.44,3.33-3.33.13-.13h3.67l3.08,5.34-2.77,2.77-.44.44h-4.9v.62h4.27l-2.06,2.06-.44.44h-3.83v.62h3.2l-2.33,2.33.44.44,2.33-2.33v3.2h.62v-3.83l.44-.44,2.06-2.06v4.27h.62v-4.9l.44-.44,2.65-2.65,1.1,1.89h4.36v4.75l-.13.13-3.33,3.33.44.44,3.02-3.02v3.53l-.13.13-2.58,2.58.44.44,2.26-2.26v3.29h.62v-3.29l2.26,2.26.44-.44-2.58-2.58-.13-.13v-3.53l3.02,3.02.44-.44-3.33-3.33-.13-.13v-4.75h4.36l1.1-1.89,2.65,2.65.44.44v4.9h.62v-4.27l2.06,2.06.44.44v3.83h.62v-3.2l2.33,2.33.44-.44-2.33-2.33h3.2v-.62h-3.83l-.44-.44-2.06-2.06h4.27v-.62h-4.9l-.44-.44-2.77-2.77,3.08-5.34h3.67l.13.13,3.33,3.33.44-.44-3.02-3.02h3.53l.13.13,2.58,2.58.44-.44-2.26-2.26h3.29v-.62h0Z"/>
  </g>
  <g>
    <path class="st0" d="M908.71,519.66h3.77l1.89-3.28-1.89-3.28h-3.77l-1.89,3.28,1.89,3.28h0ZM912.85,520.29h-4.5l-2.25-3.89,2.25-3.89h4.5l2.25,3.89-2.25,3.89h0Z"/>
    <path class="st0" d="M914.92,523.89h-8.64l-4.15-7.17-.19-.31.19-.31,4.15-7.17h8.64l4.15,7.17.19.31-.19.31-4.15,7.17h0ZM932.04,516.09h-3.29l2.26-2.26-.44-.44-2.58,2.58-.13.13h-3.53l3.02-3.02-.44-.44-3.33,3.33-.13.13h-3.67l-3.08-5.34,2.77-2.77.44-.44h4.9v-.62h-4.27l2.06-2.06.44-.44h3.83v-.62h-3.2l2.33-2.33-.44-.44-2.33,2.33v-3.2h-.62v3.83l-.44.44-2.06,2.06v-4.27h-.62v4.9l-.44.44-2.65,2.65-1.1-1.89h-4.36v-4.75l.13-.13,3.33-3.33-.44-.44-3.02,3.02v-3.53l.13-.13,2.58-2.58-.44-.44-2.26,2.26v-3.29h-.62v3.29l-2.26-2.26-.44.44,2.58,2.58.13.13v3.53l-3.02-3.02-.44.44,3.33,3.33.13.13v4.75h-4.36l-1.1,1.89-2.65-2.65-.44-.44v-4.9h-.62v4.27l-2.06-2.06-.44-.44v-3.83h-.62v3.2l-2.33-2.33-.44.44,2.33,2.33h-3.2v.62h3.83l.44.44,2.06,2.06h-4.27v.62h4.9l.44.44,2.77,2.77-3.08,5.34h-3.67l-.13-.13-3.33-3.33-.44.44,3.02,3.02h-3.53l-.13-.13-2.58-2.58-.44.44,2.26,2.26h-3.29v.62h3.29l-2.26,2.26.44.44,2.58-2.58.13-.13h3.53l-3.02,3.02.44.44,3.33-3.33.13-.13h3.67l3.08,5.34-2.77,2.77-.44.44h-4.9v.62h4.27l-2.06,2.06-.44.44h-3.83v.62h3.2l-2.33,2.33.44.44,2.33-2.33v3.2h.62v-3.83l.44-.44,2.06-2.06v4.27h.62v-4.9l.44-.44,2.65-2.65,1.1,1.89h4.36v4.75l-.13.13-3.33,3.33.44.44,3.02-3.02v3.53l-.13.13-2.58,2.58.44.44,2.26-2.26v3.29h.62v-3.29l2.26,2.26.44-.44-2.58-2.58-.13-.13v-3.53l3.02,3.02.44-.44-3.33-3.33-.13-.13v-4.75h4.36l1.1-1.89,2.65,2.65.44.44v4.9h.62v-4.27l2.06,2.06.44.44v3.83h.62v-3.2l2.33,2.33.44-.44-2.33-2.33h3.2v-.62h-3.83l-.44-.44-2.06-2.06h4.27v-.62h-4.9l-.44-.44-2.77-2.77,3.08-5.34h3.67l.13.13,3.33,3.33.44-.44-3.02-3.02h3.53l.13.13,2.58,2.58.44-.44-2.26-2.26h3.29v-.62h0Z"/>
  </g>
  <path class="st0" d="M841.24,113.61c-.64,0-1.18-.52-1.18-1.18s.52-1.18,1.18-1.18,1.18.52,1.18,1.18-.52,1.18-1.18,1.18h0ZM832.89,114.21c-.88,0-1.61-.67-1.71-1.53v-.2c0-.11,0-.21.03-.32.16-.79.86-1.39,1.69-1.39s1.54.6,1.69,1.39c.03.11.03.21.03.32v.2c-.09.86-.83,1.53-1.71,1.53h0ZM826.4,120.58c0,.83-.6,1.54-1.39,1.69-.11.03-.21.03-.32.03h-.2c-.86-.09-1.53-.83-1.53-1.71s.67-1.61,1.53-1.71h.2c.11,0,.21,0,.32.03.79.16,1.39.86,1.39,1.69h0ZM825.9,128.93c0,.64-.52,1.18-1.18,1.18s-1.18-.52-1.18-1.18.52-1.18,1.18-1.18,1.18.52,1.18,1.18h0ZM816.59,114.09c-.83,0-1.54-.6-1.69-1.39-.03-.11-.03-.21-.03-.32v-.2c.09-.86.83-1.53,1.71-1.53s1.61.67,1.71,1.53v.2c0,.11,0,.21-.03.32-.16.79-.86,1.39-1.69,1.39h0ZM823.08,104.28c0-.83.6-1.54,1.39-1.69.11-.03.21-.03.32-.03h.2c.86.09,1.53.83,1.53,1.71s-.67,1.61-1.53,1.71h-.2c-.11,0-.21,0-.32-.03-.79-.16-1.39-.86-1.39-1.69h0ZM823.56,95.93c0-.64.52-1.18,1.18-1.18s1.18.52,1.18,1.18-.52,1.18-1.18,1.18-1.18-.52-1.18-1.18h0ZM832.19,118.65c.33,0,.64.13.88.36.24.24.36.55.36.88,0,.24-.07.47-.2.67-.05.07-.11.15-.16.2-.07.07-.13.12-.2.16-.2.13-.43.2-.67.2-.33,0-.64-.13-.88-.36-.24-.24-.36-.55-.36-.88,0-.24.07-.47.2-.67.05-.07.11-.15.16-.2h0s.13-.12.2-.16c.2-.13.43-.2.67-.2h0ZM818.52,119.9c0,.33-.13.64-.36.88-.24.24-.55.36-.88.36-.24,0-.47-.07-.67-.2-.07-.05-.15-.11-.2-.16-.07-.07-.12-.13-.16-.2-.13-.2-.2-.43-.2-.67,0-.33.13-.64.36-.88.24-.24.55-.36.88-.36.24,0,.47.07.67.2.07.05.15.11.2.16h0s.12.13.16.2c.13.2.2.43.2.67h0ZM808.24,113.61c-.64,0-1.18-.52-1.18-1.18s.52-1.18,1.18-1.18,1.18.52,1.18,1.18-.52,1.18-1.18,1.18h0ZM817.27,106.21c-.33,0-.64-.13-.88-.36-.24-.24-.36-.55-.36-.88,0-.24.07-.47.2-.67.05-.07.11-.15.16-.2.07-.07.13-.12.2-.16.2-.13.43-.2.67-.2.33,0,.64.13.88.36.24.24.36.55.36.88,0,.24-.07.47-.2.67-.05.07-.11.15-.16.2-.07.07-.13.12-.2.16-.2.13-.43.2-.67.2h0ZM831.32,104.08c.24-.24.56-.36.88-.36.24,0,.47.07.67.2.07.05.15.11.2.16.07.07.12.13.16.2.31.48.25,1.14-.16,1.55-.43.43-1.07.48-1.55.16-.07-.05-.15-.11-.2-.16-.07-.07-.12-.13-.16-.2-.31-.48-.25-1.14.16-1.55h0ZM841.24,110.73c-.84,0-1.55.63-1.67,1.43h-2.74l3.09-3.09-.37-.37-3.47,3.47h-.96c-.16-1.08-1.1-1.93-2.22-1.93s-2.06.83-2.22,1.93h-5.29l3.47-3.47h4.9v-.52h-4.38l1.78-1.78c.31.23.68.35,1.06.35.45,0,.91-.17,1.24-.52.63-.63.68-1.61.17-2.3l.43-.43h3.04v-.52h-2.5l1.75-1.75-.37-.37-1.75,1.75v-2.5h-.52v3.04l-.43.43c-.7-.51-1.67-.45-2.3.17s-.68,1.61-.17,2.3l-1.78,1.78v-4.38h-.52v4.9l-3.47,3.47v-5.27c1.15-.09,2.05-1.07,2.05-2.25s-.91-2.14-2.05-2.25v-.95l3.47-3.47-.37-.37-3.09,3.09v-2.74c.82-.12,1.43-.83,1.43-1.67,0-.94-.76-1.7-1.7-1.7s-1.7.76-1.7,1.7c0,.84.63,1.55,1.43,1.67v2.74l-3.09-3.09-.37.37,3.47,3.47v.96c-1.08.16-1.93,1.1-1.93,2.22s.83,2.06,1.93,2.22v5.29l-3.47-3.47v-4.9h-.52v4.38l-1.78-1.78c.23-.31.35-.67.35-1.06,0-.47-.19-.92-.52-1.24-.33-.33-.78-.52-1.24-.52-.39,0-.75.12-1.06.35l-.43-.43v-3.04h-.52v2.5l-1.75-1.75-.37.37,1.75,1.75h-2.5v.52h3.04l.43.43c-.23.31-.35.67-.35,1.06,0,.47.19.92.52,1.24.33.33.78.52,1.24.52.39,0,.75-.12,1.06-.35l1.78,1.78h-4.38v.52h4.9l3.47,3.47h-5.27c-.09-1.15-1.07-2.05-2.25-2.05s-2.14.91-2.25,2.05h-.95l-3.47-3.47-.37.37,3.09,3.09h-2.74c-.12-.82-.83-1.43-1.67-1.43-.94,0-1.7.76-1.7,1.7s.76,1.7,1.7,1.7c.84,0,1.55-.63,1.67-1.43h2.74l-3.09,3.09.37.37,3.47-3.47h.96c.16,1.08,1.1,1.93,2.22,1.93s2.06-.83,2.22-1.93h5.29l-3.47,3.47h-4.9v.52h4.38l-1.78,1.78c-.31-.23-.67-.35-1.06-.35-.47,0-.92.19-1.24.52-.33.33-.52.78-.52,1.24,0,.39.12.75.35,1.06l-.43.43h-3.04v.52h2.5l-1.75,1.75.37.37,1.75-1.75v2.5h.52v-3.04l.43-.43c.31.23.67.35,1.06.35.47,0,.92-.19,1.24-.52.33-.33.52-.78.52-1.24,0-.39-.12-.75-.35-1.06l1.78-1.78v4.38h.52v-4.9l3.47-3.47v5.27c-1.15.09-2.05,1.07-2.05,2.25s.91,2.14,2.05,2.25v.95l-3.47,3.47.37.37,3.09-3.09v2.74c-.82.12-1.43.83-1.43,1.67,0,.94.76,1.7,1.7,1.7s1.7-.76,1.7-1.7c0-.84-.63-1.55-1.43-1.67v-2.74l3.09,3.09.37-.37-3.47-3.47v-.96c1.08-.16,1.93-1.1,1.93-2.22s-.83-2.06-1.93-2.22v-5.29l3.47,3.47v4.9h.52v-4.38l1.78,1.78c-.23.31-.35.67-.35,1.06,0,.47.19.92.52,1.24.33.33.78.52,1.24.52.39,0,.75-.12,1.06-.35l.43.43v3.04h.52v-2.5l1.75,1.75.37-.37-1.75-1.75h2.5v-.52h-3.04l-.43-.43c.23-.31.35-.67.35-1.06,0-.47-.19-.92-.52-1.24-.33-.33-.78-.52-1.24-.52-.39,0-.75.12-1.06.35l-1.78-1.78h4.38v-.52h-4.9l-3.47-3.47h5.27c.09,1.15,1.07,2.05,2.25,2.05s2.14-.91,2.25-2.05h.95l3.47,3.47.37-.37-3.09-3.09h2.74c.12.82.83,1.43,1.67,1.43.94,0,1.7-.76,1.7-1.7s-.76-1.7-1.7-1.7h0Z"/>
  <g>
    <path class="st0" d="M642.96,186.84c0-.67.55-1.22,1.22-1.22s1.22.55,1.22,1.22-.55,1.22-1.22,1.22-1.22-.55-1.22-1.22h0Z"/>
    <path class="st0" d="M630.05,177.98c.58-.33,1.32-.13,1.66.44.33.58.13,1.32-.44,1.66s-1.32.13-1.66-.44c-.33-.58-.13-1.32.44-1.66h0Z"/>
    <path class="st0" d="M658.3,164.46c-.58.33-1.32.13-1.66-.44s-.13-1.32.44-1.66,1.32-.13,1.66.44.13,1.32-.44,1.66h0Z"/>
    <path class="st0" d="M631.25,162.36c.58.33.78,1.08.44,1.66s-1.08.78-1.66.44-.78-1.08-.44-1.66,1.08-.78,1.66-.44h0Z"/>
    <path class="st0" d="M657.09,180.08c-.58-.33-.78-1.08-.44-1.66s1.08-.78,1.66-.44.78,1.08.44,1.66-1.08.78-1.66.44h0Z"/>
    <path class="st0" d="M644.17,156.82c.67,0,1.22-.55,1.22-1.22s-.55-1.22-1.22-1.22-1.22.55-1.22,1.22.55,1.22,1.22,1.22h0Z"/>
    <path class="st0" d="M644.17,175.27l-4.05,2.97.55-4.99-4.59-2.02,4.59-2.02-.55-4.99,4.05,2.97,4.05-2.97-.55,4.99,4.59,2.02-4.59,2.02.55,4.99-4.05-2.97h0ZM655.14,174.86l-.12-.47-3.32.9-3.21-1.86,4.99-2.21-4.99-2.21,3.21-1.86,3.32.9.12-.47-2.86-.76,3.48-2.01-.24-.41-3.48,2.01.76-2.86-.47-.12-.9,3.32-3.21,1.86.59-5.43-4.4,3.22v-3.72l2.44-2.44-.33-.33-2.09,2.09v-4.01h-.48v4.01l-2.09-2.09-.33.33,2.44,2.44v3.72l-4.4-3.22.59,5.43-3.21-1.86-.9-3.32-.47.12.76,2.86-3.48-2.01-.24.41,3.48,2.01-2.86.76.12.47,3.32-.9,3.21,1.86-4.99,2.21,4.99,2.21-3.21,1.86-3.32-.9-.12.47,2.86.76-3.48,2.01.24.41,3.48-2.01-.76,2.86.47.12.9-3.32,3.21-1.86-.59,5.43,4.42-3.22v3.72l-2.44,2.44.33.33,2.09-2.09v4.01h.48v-4.01l2.09,2.09.33-.33-2.44-2.44v-3.72l4.4,3.22-.59-5.43,3.21,1.86.9,3.32.47-.12-.76-2.86,3.48,2.01.24-.41-3.48-2.01,2.86-.76h-.01Z"/>
    <path class="st0" d="M644.17,173c-.99,0-1.81-.82-1.81-1.81s.82-1.81,1.81-1.81,1.81.82,1.81,1.81-.82,1.81-1.81,1.81h0ZM644.17,168.92c-1.26,0-2.29,1.03-2.29,2.29s1.03,2.29,2.29,2.29,2.29-1.03,2.29-2.29-1.03-2.29-2.29-2.29h0Z"/>
  </g>
  <g>
    <path class="st0" d="M939.47,76.7c0-.45.37-.83.83-.83s.83.37.83.83-.37.83-.83.83-.83-.37-.83-.83h0Z"/>
    <path class="st0" d="M930.63,70.64c.4-.23.91-.09,1.14.31s.09.91-.31,1.14-.91.09-1.14-.31-.09-.91.31-1.14h0Z"/>
    <path class="st0" d="M949.98,61.38c-.4.23-.91.09-1.14-.31s-.09-.91.31-1.14.91-.09,1.14.31.09.91-.31,1.14h0Z"/>
    <path class="st0" d="M931.46,59.93c.4.23.54.74.31,1.14s-.74.54-1.14.31-.54-.74-.31-1.14.74-.54,1.14-.31h0Z"/>
    <path class="st0" d="M949.15,72.07c-.4-.23-.54-.74-.31-1.14s.74-.54,1.14-.31.54.74.31,1.14-.74.54-1.14.31h0Z"/>
    <path class="st0" d="M940.3,56.15c.45,0,.83-.37.83-.83s-.37-.83-.83-.83-.83.37-.83.83.37.83.83.83h0Z"/>
    <path class="st0" d="M940.3,68.78l-2.77,2.03.37-3.41-3.14-1.39,3.14-1.39-.37-3.41,2.77,2.03,2.77-2.03-.37,3.41,3.14,1.39-3.14,1.39.37,3.41-2.77-2.03h0ZM947.81,68.5l-.08-.32-2.27.62-2.21-1.27,3.43-1.51-3.43-1.51,2.21-1.27,2.27.62.08-.32-1.95-.52,2.38-1.38-.16-.28-2.38,1.38.52-1.95-.32-.08-.62,2.27-2.21,1.27.4-3.72-3.02,2.21v-2.54l1.66-1.66-.23-.23-1.43,1.43v-2.74h-.33v2.74l-1.43-1.43-.23.23,1.66,1.66v2.54l-3.02-2.21.4,3.72-2.21-1.27-.62-2.27-.32.08.52,1.95-2.38-1.38-.16.28,2.38,1.38-1.95.52.08.32,2.27-.62,2.21,1.27-3.43,1.51,3.43,1.51-2.21,1.27-2.27-.62-.08.32,1.95.52-2.38,1.38.16.28,2.38-1.38-.52,1.95.32.08.62-2.27,2.21-1.27-.4,3.72,3.02-2.21v2.54l-1.66,1.66.23.23,1.43-1.43v2.74h.33v-2.74l1.43,1.43.23-.23-1.66-1.66v-2.54l3.02,2.21-.4-3.72,2.21,1.27.62,2.27.32-.08-.52-1.95,2.38,1.38.16-.28-2.38-1.38,1.95-.52h0Z"/>
    <path class="st0" d="M940.3,67.23c-.68,0-1.23-.56-1.23-1.23s.56-1.23,1.23-1.23,1.23.56,1.23,1.23-.56,1.23-1.23,1.23h0ZM940.3,64.43c-.86,0-1.57.71-1.57,1.57s.71,1.57,1.57,1.57,1.57-.71,1.57-1.57-.71-1.57-1.57-1.57h0Z"/>
  </g>
  <g>
    <polygon class="st0" points="811.06 215.52 811.13 217.42 812.74 218.42 812.67 216.52 811.06 215.52 811.06 215.52"/>
    <polygon class="st0" points="817.39 226.53 817.33 224.63 815.72 223.61 815.79 225.53 817.39 226.53 817.39 226.53"/>
    <polygon class="st0" points="807.92 221.08 809.61 221.98 811.28 221.08 809.61 220.19 807.92 221.08 807.92 221.08"/>
    <polygon class="st0" points="820.62 221.1 818.95 220.21 817.26 221.1 818.95 221.99 820.62 221.1 820.62 221.1"/>
    <polygon class="st0" points="811.17 226.58 812.78 225.58 812.84 223.68 811.24 224.68 811.17 226.58 811.17 226.58"/>
    <path class="st0" d="M815.52,221.9c-.12.17-.28.31-.45.41-.71.41-1.62.16-2.03-.55-.13-.23-.2-.5-.2-.74s.07-.51.2-.74c.12-.2.28-.37.47-.5h0s.04-.03.07-.04h.03s.04-.03.07-.04c.01,0,.03,0,.05-.03h.04s.04,0,.05-.03h0c.16-.05.32-.09.51-.09.82,0,1.49.67,1.49,1.49,0,.32-.11.62-.28.86h0ZM823.95,224.64l-.09-.33-2.3.62-.09.03-.29-.17-2.36-1.35,4.58-1.23-.09-.33-4.82,1.28-.09.03-.29-.17-2.11-1.22c.11-.23.16-.47.16-.72v-.07c0-.25-.07-.5-.17-.74l2.11-1.22.29-.17.09.03,4.82,1.28.09-.33-4.58-1.23,2.36-1.35.29-.17.09.03,2.3.62.09-.33-2.06-.55,2.86-1.65-.17-.29-2.86,1.65.55-2.06-.33-.09-.62,2.3-.03.09-.29.17-2.36,1.35,1.23-4.58-.33-.09-1.28,4.82-.03.09-.29.17-2.11,1.22c-.24-.35-.6-.59-1.02-.71-.09-.03-.2-.04-.31-.05v-2.78l.07-.07,3.52-3.52-.24-.24-3.36,3.36v-3.06l.07-.07,1.69-1.69-.24-.24-1.51,1.51v-3.31h-.35v3.31l-1.51-1.51-.24.24,1.69,1.69.07.07v3.06l-3.36-3.36-.24.24,3.52,3.52.07.07v2.78c-.25.03-.51.11-.75.24h0c-.24.13-.43.32-.58.52l-2.11-1.22-.29-.17-.03-.09-1.28-4.82-.33.09,1.23,4.58-2.36-1.35-.29-.17-.03-.09-.62-2.3-.33.09.55,2.06-2.86-1.65-.17.29,2.86,1.65-2.06.55.09.33,2.3-.62.09-.03.29.17,2.36,1.35-4.58,1.23.09.33,4.82-1.28.09-.03.29.17,2.11,1.22c-.11.24-.17.5-.17.78s.07.52.16.76l-2.11,1.22-.29.17-.09-.03-4.82-1.28-.09.33,4.58,1.23-2.36,1.35-.29.17-.09-.03-2.3-.62-.09.33,2.06.55-2.86,1.65.17.29,2.86-1.65-.55,2.06.33.09.62-2.3.03-.09.29-.17,2.36-1.35-1.23,4.58.33.09,1.28-4.82.03-.09.29-.17,2.1-1.22c.31.43.79.72,1.34.78v2.77l-.07.07-3.52,3.52.24.24,3.36-3.36v3.06l-.07.07-1.69,1.69.24.24,1.51-1.51v3.31h.35v-3.31l1.51,1.51.24-.24-1.69-1.69-.07-.07v-3.06l3.36,3.36.24-.24-3.52-3.52-.07-.07v-2.77c.25-.03.51-.11.72-.23h.03s.03-.01.05-.03c.2-.12.39-.29.54-.5l2.11,1.22.29.17.03.09,1.28,4.82.33-.09-1.23-4.58,2.36,1.35.29.17.03.09.62,2.3.33-.09-.55-2.06,2.86,1.65.17-.29-2.86-1.65,2.06-.55h0v-.04Z"/>
    <polygon class="st0" points="817.54 215.6 815.92 216.6 815.85 218.5 817.46 217.5 817.54 215.6 817.54 215.6"/>
  </g>
  <g>
    <polygon class="st0" points="708.02 129.18 708.11 131.79 710.32 133.17 710.23 130.57 708.02 129.18 708.02 129.18"/>
    <polygon class="st0" points="716.69 144.26 716.6 141.65 714.39 140.27 714.48 142.88 716.69 144.26 716.69 144.26"/>
    <polygon class="st0" points="703.71 136.81 706.01 138.03 708.32 136.81 706.01 135.59 703.71 136.81 703.71 136.81"/>
    <polygon class="st0" points="721.11 136.84 718.81 135.62 716.5 136.84 718.81 138.05 721.11 136.84 721.11 136.84"/>
    <polygon class="st0" points="708.17 144.34 710.38 142.96 710.46 140.37 708.26 141.75 708.17 144.34 708.17 144.34"/>
    <path class="st0" d="M714.12,137.92c-.17.23-.37.43-.63.58-.98.56-2.22.23-2.78-.75-.19-.32-.27-.67-.27-1.02s.08-.7.27-1c.16-.28.39-.51.64-.68h.01s.05-.04.08-.05c0,0,.03,0,.03-.01.03-.01.07-.03.08-.05.03,0,.04-.03.07-.03,0,0,.03,0,.04-.03.03,0,.05-.03.08-.03h.01c.21-.08.45-.12.7-.12,1.12,0,2.03.91,2.03,2.03,0,.44-.13.84-.37,1.18h.01ZM725.66,141.68l-.12-.45-3.14.84-.13.04-.41-.24-3.22-1.86,6.26-1.69-.12-.45-6.6,1.77-.13.04-.41-.24-2.89-1.67c.15-.32.21-.66.23-.99v-.09c0-.35-.08-.68-.23-1l2.89-1.67.41-.24.13.04,6.6,1.77.12-.45-6.26-1.69,3.22-1.86.41-.24.13.04,3.14.84.12-.45-2.82-.75,3.92-2.26-.24-.41-3.92,2.26.75-2.82-.45-.12-.84,3.14-.04.13-.41.24-3.22,1.86,1.69-6.26-.45-.12-1.77,6.6-.04.13-.41.24-2.89,1.67c-.33-.47-.83-.82-1.39-.96-.13-.04-.28-.07-.41-.07v-3.81l.09-.09,4.82-4.82-.33-.33-4.59,4.59v-4.19l.09-.09,2.3-2.3-.33-.33-2.06,2.06v-4.52h-.47v4.52l-2.06-2.06-.33.33,2.3,2.3.09.09v4.19l-4.59-4.59-.33.33,4.82,4.82.09.09v3.81c-.35.04-.71.15-1.02.32h0c-.32.19-.59.44-.79.72l-2.89-1.67-.41-.24-.04-.13-1.77-6.6-.45.12,1.69,6.26-3.22-1.86-.41-.24-.04-.13-.84-3.14-.45.12.75,2.82-3.92-2.26-.24.41,3.92,2.26-2.82.75.12.45,3.14-.84.13-.04.41.24,3.22,1.86-6.26,1.69.12.45,6.6-1.77.13-.04.41.24,2.89,1.67c-.15.32-.24.68-.24,1.06s.08.72.23,1.03l-2.89,1.66-.41.24-.13-.04-6.6-1.77-.12.45,6.26,1.69-3.22,1.86-.41.24-.13-.04-3.14-.84-.12.45,2.82.75-3.92,2.26.24.41,3.92-2.26-.75,2.82.45.12.84-3.14.04-.13.41-.24,3.22-1.86-1.69,6.26.45.12,1.77-6.6.04-.13.41-.24,2.89-1.66c.41.59,1.07.99,1.82,1.06v3.8l-.09.09-4.82,4.82.33.33,4.59-4.59v4.19l-.09.09-2.3,2.3.33.33,2.06-2.06v4.52h.47v-4.52l2.06,2.06.33-.33-2.3-2.3-.09-.09v-4.19l4.59,4.59.33-.33-4.82-4.82-.09-.09v-3.8c.36-.04.7-.15.99-.31,0,0,.03,0,.04-.03.03,0,.04-.03.07-.04.28-.17.54-.4.72-.68l2.89,1.67.41.24.04.13,1.77,6.6.45-.12-1.69-6.26,3.22,1.86.41.24.04.13.84,3.14.45-.12-.75-2.82,3.92,2.26.24-.41-3.92-2.26,2.82-.75h-.01Z"/>
    <polygon class="st0" points="716.88 129.3 714.67 130.68 714.58 133.28 716.79 131.9 716.88 129.3 716.88 129.3"/>
  </g>
  <g>
    <path class="st0" d="M906.87,214.84h3.77l1.89-3.28-1.89-3.28h-3.77l-1.89,3.28,1.89,3.28h0ZM911.01,215.46h-4.5l-2.25-3.89,2.25-3.89h4.5l2.25,3.89-2.25,3.89h0Z"/>
    <path class="st0" d="M913.09,219.06h-8.64l-4.15-7.17-.19-.31.19-.31,4.15-7.17h8.64l4.15,7.17.19.31-.19.31-4.15,7.17h0ZM930.21,211.25h-3.29l2.26-2.26-.44-.44-2.58,2.58-.13.13h-3.53l3.02-3.02-.44-.44-3.33,3.33-.13.13h-3.67l-3.08-5.34,2.77-2.77.44-.44h4.9v-.62h-4.27l2.06-2.06.44-.44h3.83v-.62h-3.2l2.33-2.33-.44-.44-2.33,2.33v-3.2h-.62v3.83l-.44.44-2.06,2.06v-4.27h-.62v4.9l-.44.44-2.65,2.65-1.1-1.89h-4.36v-4.75l.13-.13,3.33-3.33-.44-.44-3.02,3.02v-3.53l.13-.13,2.58-2.58-.44-.44-2.26,2.26v-3.29h-.62v3.29l-2.26-2.26-.44.44,2.58,2.58.13.13v3.53l-3.02-3.02-.44.44,3.33,3.33.13.13v4.75h-4.36l-1.1,1.89-2.65-2.65-.44-.44v-4.9h-.62v4.27l-2.06-2.06-.44-.44v-3.83h-.62v3.2l-2.33-2.33-.44.44,2.33,2.33h-3.2v.62h3.83l.44.44,2.06,2.06h-4.27v.62h4.9l.44.44,2.77,2.77-3.08,5.34h-3.67l-.13-.13-3.33-3.33-.44.44,3.02,3.02h-3.53l-.13-.13-2.58-2.58-.44.44,2.26,2.26h-3.29v.62h3.29l-2.26,2.26.44.44,2.58-2.58.13-.13h3.53l-3.02,3.02.44.44,3.33-3.33.13-.13h3.67l3.08,5.34-2.77,2.77-.44.44h-4.9v.62h4.27l-2.06,2.06-.44.44h-3.83v.62h3.2l-2.33,2.33.44.44,2.33-2.33v3.2h.62v-3.83l.44-.44,2.06-2.06v4.27h.62v-4.9l.44-.44,2.65-2.65,1.1,1.89h4.36v4.75l-.13.13-3.33,3.33.44.44,3.02-3.02v3.53l-.13.13-2.58,2.58.44.44,2.26-2.26v3.29h.62v-3.29l2.26,2.26.44-.44-2.58-2.58-.13-.13v-3.53l3.02,3.02.44-.44-3.33-3.33-.13-.13v-4.75h4.36l1.1-1.89,2.65,2.65.44.44v4.9h.62v-4.27l2.06,2.06.44.44v3.83h.62v-3.2l2.33,2.33.44-.44-2.33-2.33h3.2v-.62h-3.83l-.44-.44-2.06-2.06h4.27v-.62h-4.9l-.44-.44-2.77-2.77,3.08-5.34h3.67l.13.13,3.33,3.33.44-.44-3.02-3.02h3.53l.13.13,2.58,2.58.44-.44-2.26-2.26h3.29v-.62h0Z"/>
  </g>
  <g>
    <path class="st0" d="M666.96,78.92h3.77l1.89-3.28-1.89-3.28h-3.77l-1.89,3.28,1.89,3.28h0ZM671.1,79.55h-4.5l-2.25-3.89,2.25-3.89h4.5l2.25,3.89-2.25,3.89h0Z"/>
    <path class="st0" d="M673.17,83.15h-8.64l-4.15-7.17-.19-.31.19-.31,4.15-7.17h8.64l4.15,7.17.19.31-.19.31-4.15,7.17h0ZM690.29,75.35h-3.29l2.26-2.26-.44-.44-2.58,2.58-.13.13h-3.53l3.02-3.02-.44-.44-3.33,3.33-.13.13h-3.67l-3.08-5.34,2.77-2.77.44-.44h4.9v-.62h-4.27l2.06-2.06.44-.44h3.83v-.62h-3.2l2.33-2.33-.44-.44-2.33,2.33v-3.2h-.62v3.83l-.44.44-2.06,2.06v-4.27h-.62v4.9l-.44.44-2.65,2.65-1.1-1.89h-4.36v-4.75l.13-.13,3.33-3.33-.44-.44-3.02,3.02v-3.53l.13-.13,2.58-2.58-.44-.44-2.26,2.26v-3.29h-.62v3.29l-2.26-2.26-.44.44,2.58,2.58.13.13v3.53l-3.02-3.02-.44.44,3.33,3.33.13.13v4.75h-4.36l-1.1,1.89-2.65-2.65-.44-.44v-4.9h-.62v4.27l-2.06-2.06-.44-.44v-3.83h-.62v3.2l-2.33-2.33-.44.44,2.33,2.33h-3.2v.62h3.83l.44.44,2.06,2.06h-4.27v.62h4.9l.44.44,2.77,2.77-3.08,5.34h-3.67l-.13-.13-3.33-3.33-.44.44,3.02,3.02h-3.53l-.13-.13-2.58-2.58-.44.44,2.26,2.26h-3.29v.62h3.29l-2.26,2.26.44.44,2.58-2.58.13-.13h3.53l-3.02,3.02.44.44,3.33-3.33.13-.13h3.67l3.08,5.34-2.77,2.77-.44.44h-4.9v.62h4.27l-2.06,2.06-.44.44h-3.83v.62h3.2l-2.33,2.33.44.44,2.33-2.33v3.2h.62v-3.83l.44-.44,2.06-2.06v4.27h.62v-4.9l.44-.44,2.65-2.65,1.1,1.89h4.36v4.75l-.13.13-3.33,3.33.44.44,3.02-3.02v3.53l-.13.13-2.58,2.58.44.44,2.26-2.26v3.29h.62v-3.29l2.26,2.26.44-.44-2.58-2.58-.13-.13v-3.53l3.02,3.02.44-.44-3.33-3.33-.13-.13v-4.75h4.36l1.1-1.89,2.65,2.65.44.44v4.9h.62v-4.27l2.06,2.06.44.44v3.83h.62v-3.2l2.33,2.33.44-.44-2.33-2.33h3.2v-.62h-3.83l-.44-.44-2.06-2.06h4.27v-.62h-4.9l-.44-.44-2.77-2.77,3.08-5.34h3.67l.13.13,3.33,3.33.44-.44-3.02-3.02h3.53l.13.13,2.58,2.58.44-.44-2.26-2.26h3.29v-.62h0Z"/>
  </g>
  <path class="st0" d="M595.48,510.12c-.64,0-1.18-.52-1.18-1.18s.52-1.18,1.18-1.18,1.18.52,1.18,1.18-.52,1.18-1.18,1.18h0ZM587.13,510.72c-.88,0-1.61-.67-1.71-1.53v-.2c0-.11,0-.21.03-.32.16-.79.86-1.39,1.69-1.39s1.54.6,1.69,1.39c.03.11.03.21.03.32v.2c-.09.86-.83,1.53-1.71,1.53h0ZM580.64,517.09c0,.83-.6,1.54-1.39,1.69-.11.03-.21.03-.32.03h-.2c-.86-.09-1.53-.83-1.53-1.71s.67-1.61,1.53-1.71h.2c.11,0,.21,0,.32.03.79.16,1.39.86,1.39,1.69h0ZM580.14,525.44c0,.64-.52,1.18-1.18,1.18s-1.18-.52-1.18-1.18.52-1.18,1.18-1.18,1.18.52,1.18,1.18h0ZM570.83,510.6c-.83,0-1.54-.6-1.69-1.39-.03-.11-.03-.21-.03-.32v-.2c.09-.86.83-1.53,1.71-1.53s1.61.67,1.71,1.53v.2c0,.11,0,.21-.03.32-.16.79-.86,1.39-1.69,1.39h0ZM577.32,500.79c0-.83.6-1.54,1.39-1.69.11-.03.21-.03.32-.03h.2c.86.09,1.53.83,1.53,1.71s-.67,1.61-1.53,1.71h-.2c-.11,0-.21,0-.32-.03-.79-.16-1.39-.86-1.39-1.69h0ZM577.8,492.44c0-.64.52-1.18,1.18-1.18s1.18.52,1.18,1.18-.52,1.18-1.18,1.18-1.18-.52-1.18-1.18h0ZM586.43,515.17c.33,0,.64.13.88.36.24.24.36.55.36.88,0,.24-.07.47-.2.67-.05.07-.11.15-.16.2-.07.07-.13.12-.2.16-.2.13-.43.2-.67.2-.33,0-.64-.13-.88-.36-.24-.24-.36-.55-.36-.88,0-.24.07-.47.2-.67.05-.07.11-.15.16-.2h0s.13-.12.2-.16c.2-.13.43-.2.67-.2h0ZM572.76,516.41c0,.33-.13.64-.36.88-.24.24-.55.36-.88.36-.24,0-.47-.07-.67-.2-.07-.05-.15-.11-.2-.16-.07-.07-.12-.13-.16-.2-.13-.2-.2-.43-.2-.67,0-.33.13-.64.36-.88.24-.24.55-.36.88-.36.24,0,.47.07.67.2.07.05.15.11.2.16h0s.12.13.16.2c.13.2.2.43.2.67h0ZM562.48,510.12c-.64,0-1.18-.52-1.18-1.18s.52-1.18,1.18-1.18,1.18.52,1.18,1.18-.52,1.18-1.18,1.18h0ZM571.51,502.72c-.33,0-.64-.13-.88-.36-.24-.24-.36-.55-.36-.88,0-.24.07-.47.2-.67.05-.07.11-.15.16-.2.07-.07.13-.12.2-.16.2-.13.43-.2.67-.2.33,0,.64.13.88.36.24.24.36.55.36.88,0,.24-.07.47-.2.67-.05.07-.11.15-.16.2-.07.07-.13.12-.2.16-.2.13-.43.2-.67.2h0ZM585.56,500.59c.24-.24.56-.36.88-.36.24,0,.47.07.67.2.07.05.15.11.2.16.07.07.12.13.16.2.31.48.25,1.14-.16,1.55-.43.43-1.07.48-1.55.16-.07-.05-.15-.11-.2-.16-.07-.07-.12-.13-.16-.2-.31-.48-.25-1.14.16-1.55h0ZM595.48,507.24c-.84,0-1.55.63-1.67,1.43h-2.74l3.09-3.09-.37-.37-3.47,3.47h-.96c-.16-1.08-1.1-1.93-2.22-1.93s-2.06.83-2.22,1.93h-5.29l3.47-3.47h4.9v-.52h-4.38l1.78-1.78c.31.23.68.35,1.06.35.45,0,.91-.17,1.24-.52.63-.63.68-1.61.17-2.3l.43-.43h3.04v-.52h-2.5l1.75-1.75-.37-.37-1.75,1.75v-2.5h-.52v3.04l-.43.43c-.7-.51-1.67-.45-2.3.17s-.68,1.61-.17,2.3l-1.78,1.78v-4.38h-.52v4.9l-3.47,3.47v-5.27c1.15-.09,2.05-1.07,2.05-2.25s-.91-2.14-2.05-2.25v-.95l3.47-3.47-.37-.37-3.09,3.09v-2.74c.82-.12,1.43-.83,1.43-1.67,0-.94-.76-1.7-1.7-1.7s-1.7.76-1.7,1.7c0,.84.63,1.55,1.43,1.67v2.74l-3.09-3.09-.37.37,3.47,3.47v.96c-1.08.16-1.93,1.1-1.93,2.22s.83,2.06,1.93,2.22v5.29l-3.47-3.47v-4.9h-.52v4.38l-1.78-1.78c.23-.31.35-.67.35-1.06,0-.47-.19-.92-.52-1.24-.33-.33-.78-.52-1.24-.52-.39,0-.75.12-1.06.35l-.43-.43v-3.04h-.52v2.5l-1.75-1.75-.37.37,1.75,1.75h-2.5v.52h3.04l.43.43c-.23.31-.35.67-.35,1.06,0,.47.19.92.52,1.24.33.33.78.52,1.24.52.39,0,.75-.12,1.06-.35l1.78,1.78h-4.38v.52h4.9l3.47,3.47h-5.27c-.09-1.15-1.07-2.05-2.25-2.05s-2.14.91-2.25,2.05h-.95l-3.47-3.47-.37.37,3.09,3.09h-2.74c-.12-.82-.83-1.43-1.67-1.43-.94,0-1.7.76-1.7,1.7s.76,1.7,1.7,1.7c.84,0,1.55-.63,1.67-1.43h2.74l-3.09,3.09.37.37,3.47-3.47h.96c.16,1.08,1.1,1.93,2.22,1.93s2.06-.83,2.22-1.93h5.29l-3.47,3.47h-4.9v.52h4.38l-1.78,1.78c-.31-.23-.67-.35-1.06-.35-.47,0-.92.19-1.24.52-.33.33-.52.78-.52,1.24,0,.39.12.75.35,1.06l-.43.43h-3.04v.52h2.5l-1.75,1.75.37.37,1.75-1.75v2.5h.52v-3.04l.43-.43c.31.23.67.35,1.06.35.47,0,.92-.19,1.24-.52.33-.33.52-.78.52-1.24,0-.39-.12-.75-.35-1.06l1.78-1.78v4.38h.52v-4.9l3.47-3.47v5.27c-1.15.09-2.05,1.07-2.05,2.25s.91,2.14,2.05,2.25v.95l-3.47,3.47.37.37,3.09-3.09v2.74c-.82.12-1.43.83-1.43,1.67,0,.94.76,1.7,1.7,1.7s1.7-.76,1.7-1.7c0-.84-.63-1.55-1.43-1.67v-2.74l3.09,3.09.37-.37-3.47-3.47v-.96c1.08-.16,1.93-1.1,1.93-2.22s-.83-2.06-1.93-2.22v-5.29l3.47,3.47v4.9h.52v-4.38l1.78,1.78c-.23.31-.35.67-.35,1.06,0,.47.19.92.52,1.24.33.33.78.52,1.24.52.39,0,.75-.12,1.06-.35l.43.43v3.04h.52v-2.5l1.75,1.75.37-.37-1.75-1.75h2.5v-.52h-3.04l-.43-.43c.23-.31.35-.67.35-1.06,0-.47-.19-.92-.52-1.24-.33-.33-.78-.52-1.24-.52-.39,0-.75.12-1.06.35l-1.78-1.78h4.38v-.52h-4.9l-3.47-3.47h5.27c.09,1.15,1.07,2.05,2.25,2.05s2.14-.91,2.25-2.05h.95l3.47,3.47.37-.37-3.09-3.09h2.74c.12.82.83,1.43,1.67,1.43.94,0,1.7-.76,1.7-1.7s-.76-1.7-1.7-1.7h0Z"/>
  <g>
    <path class="st0" d="M731.8,560.57c0-.67.55-1.22,1.22-1.22s1.22.55,1.22,1.22-.55,1.22-1.22,1.22-1.22-.55-1.22-1.22h0Z"/>
    <path class="st0" d="M718.88,551.71c.58-.33,1.32-.13,1.66.44.33.58.13,1.32-.44,1.66s-1.32.13-1.66-.44c-.33-.58-.13-1.32.44-1.66h0Z"/>
    <path class="st0" d="M747.13,538.19c-.58.33-1.32.13-1.66-.44s-.13-1.32.44-1.66,1.32-.13,1.66.44.13,1.32-.44,1.66h0Z"/>
    <path class="st0" d="M720.09,536.09c.58.33.78,1.08.44,1.66s-1.08.78-1.66.44-.78-1.08-.44-1.66,1.08-.78,1.66-.44h0Z"/>
    <path class="st0" d="M745.93,553.81c-.58-.33-.78-1.08-.44-1.66s1.08-.78,1.66-.44.78,1.08.44,1.66-1.08.78-1.66.44h0Z"/>
    <path class="st0" d="M733,530.55c.67,0,1.22-.55,1.22-1.22s-.55-1.22-1.22-1.22-1.22.55-1.22,1.22.55,1.22,1.22,1.22h0Z"/>
    <path class="st0" d="M733,549.01l-4.05,2.97.55-4.99-4.59-2.02,4.59-2.02-.55-4.99,4.05,2.97,4.05-2.97-.55,4.99,4.59,2.02-4.59,2.02.55,4.99-4.05-2.97h0ZM743.97,548.59l-.12-.47-3.32.9-3.21-1.86,4.99-2.21-4.99-2.21,3.21-1.86,3.32.9.12-.47-2.86-.76,3.48-2.01-.24-.41-3.48,2.01.76-2.86-.47-.12-.9,3.32-3.21,1.86.59-5.43-4.4,3.22v-3.72l2.44-2.44-.33-.33-2.09,2.09v-4.01h-.48v4.01l-2.09-2.09-.33.33,2.44,2.44v3.72l-4.4-3.22.59,5.43-3.21-1.86-.9-3.32-.47.12.76,2.86-3.48-2.01-.24.41,3.48,2.01-2.86.76.12.47,3.32-.9,3.21,1.86-4.99,2.21,4.99,2.21-3.21,1.86-3.32-.9-.12.47,2.86.76-3.48,2.01.24.41,3.48-2.01-.76,2.86.47.12.9-3.32,3.21-1.86-.59,5.43,4.42-3.22v3.72l-2.44,2.44.33.33,2.09-2.09v4.01h.48v-4.01l2.09,2.09.33-.33-2.44-2.44v-3.72l4.4,3.22-.59-5.43,3.21,1.86.9,3.32.47-.12-.76-2.86,3.48,2.01.24-.41-3.48-2.01,2.86-.76h-.01Z"/>
    <path class="st0" d="M733,546.73c-.99,0-1.81-.82-1.81-1.81s.82-1.81,1.81-1.81,1.81.82,1.81,1.81-.82,1.81-1.81,1.81h0ZM733,542.65c-1.26,0-2.29,1.03-2.29,2.29s1.03,2.29,2.29,2.29,2.29-1.03,2.29-2.29-1.03-2.29-2.29-2.29h0Z"/>
  </g>
  <g>
    <path class="st0" d="M559.95,426.4c0-.45.37-.83.83-.83s.83.37.83.83-.37.83-.83.83-.83-.37-.83-.83h0Z"/>
    <path class="st0" d="M551.11,420.34c.4-.23.91-.09,1.14.31s.09.91-.31,1.14-.91.09-1.14-.31-.09-.91.31-1.14h0Z"/>
    <path class="st0" d="M570.46,411.08c-.4.23-.91.09-1.14-.31s-.09-.91.31-1.14.91-.09,1.14.31.09.91-.31,1.14h0Z"/>
    <path class="st0" d="M551.94,409.64c.4.23.54.74.31,1.14s-.74.54-1.14.31-.54-.74-.31-1.14.74-.54,1.14-.31h0Z"/>
    <path class="st0" d="M569.63,421.77c-.4-.23-.54-.74-.31-1.14s.74-.54,1.14-.31.54.74.31,1.14-.74.54-1.14.31h0Z"/>
    <path class="st0" d="M560.78,405.85c.45,0,.83-.37.83-.83s-.37-.83-.83-.83-.83.37-.83.83.37.83.83.83h0Z"/>
    <path class="st0" d="M560.78,418.48l-2.77,2.03.37-3.41-3.14-1.39,3.14-1.39-.37-3.41,2.77,2.03,2.77-2.03-.37,3.41,3.14,1.39-3.14,1.39.37,3.41-2.77-2.03h0ZM568.29,418.2l-.08-.32-2.27.62-2.21-1.27,3.43-1.51-3.43-1.51,2.21-1.27,2.27.62.08-.32-1.95-.52,2.38-1.38-.16-.28-2.38,1.38.52-1.95-.32-.08-.62,2.27-2.21,1.27.4-3.72-3.02,2.21v-2.54l1.66-1.66-.23-.23-1.43,1.43v-2.74h-.33v2.74l-1.43-1.43-.23.23,1.66,1.66v2.54l-3.02-2.21.4,3.72-2.21-1.27-.62-2.27-.32.08.52,1.95-2.38-1.38-.16.28,2.38,1.38-1.95.52.08.32,2.27-.62,2.21,1.27-3.43,1.51,3.43,1.51-2.21,1.27-2.27-.62-.08.32,1.95.52-2.38,1.38.16.28,2.38-1.38-.52,1.95.32.08.62-2.27,2.21-1.27-.4,3.72,3.02-2.21v2.54l-1.66,1.66.23.23,1.43-1.43v2.74h.33v-2.74l1.43,1.43.23-.23-1.66-1.66v-2.54l3.02,2.21-.4-3.72,2.21,1.27.62,2.27.32-.08-.52-1.95,2.38,1.38.16-.28-2.38-1.38,1.95-.52h0Z"/>
    <path class="st0" d="M560.78,416.93c-.68,0-1.23-.56-1.23-1.23s.56-1.23,1.23-1.23,1.23.56,1.23,1.23-.56,1.23-1.23,1.23h0ZM560.78,414.13c-.86,0-1.57.71-1.57,1.57s.71,1.57,1.57,1.57,1.57-.71,1.57-1.57-.71-1.57-1.57-1.57h0Z"/>
  </g>
  <g>
    <polygon class="st0" points="811.66 704.26 811.73 706.16 813.33 707.16 813.27 705.26 811.66 704.26 811.66 704.26"/>
    <polygon class="st0" points="817.99 715.27 817.92 713.37 816.32 712.35 816.38 714.27 817.99 715.27 817.99 715.27"/>
    <polygon class="st0" points="808.52 709.83 810.2 710.72 811.87 709.83 810.2 708.93 808.52 709.83 808.52 709.83"/>
    <polygon class="st0" points="821.21 709.84 819.54 708.96 817.86 709.84 819.54 710.74 821.21 709.84 821.21 709.84"/>
    <polygon class="st0" points="811.77 715.32 813.37 714.32 813.44 712.42 811.83 713.42 811.77 715.32 811.77 715.32"/>
    <path class="st0" d="M816.12,710.64c-.12.17-.28.31-.45.41-.71.41-1.62.16-2.03-.55-.13-.23-.2-.5-.2-.74s.07-.51.2-.74c.12-.2.28-.37.47-.5h0s.04-.03.07-.04h.03s.04-.03.07-.04c.01,0,.03,0,.05-.03h.04s.04,0,.05-.03h0c.16-.05.32-.09.51-.09.82,0,1.49.67,1.49,1.49,0,.32-.11.62-.28.86h0ZM824.55,713.38l-.09-.33-2.3.62-.09.03-.29-.17-2.36-1.35,4.58-1.23-.09-.33-4.82,1.28-.09.03-.29-.17-2.11-1.22c.11-.23.16-.47.16-.72v-.07c0-.25-.07-.5-.17-.74l2.11-1.22.29-.17.09.03,4.82,1.28.09-.33-4.58-1.23,2.36-1.35.29-.17.09.03,2.3.62.09-.33-2.06-.55,2.86-1.65-.17-.29-2.86,1.65.55-2.06-.33-.09-.62,2.3-.03.09-.29.17-2.36,1.35,1.23-4.58-.33-.09-1.28,4.82-.03.09-.29.17-2.11,1.22c-.24-.35-.6-.59-1.02-.71-.09-.03-.2-.04-.31-.05v-2.78l.07-.07,3.52-3.52-.24-.24-3.36,3.36v-3.06l.07-.07,1.69-1.69-.24-.24-1.51,1.51v-3.31h-.35v3.31l-1.51-1.51-.24.24,1.69,1.69.07.07v3.06l-3.36-3.36-.24.24,3.52,3.52.07.07v2.78c-.25.03-.51.11-.75.24h0c-.24.13-.43.32-.58.52l-2.11-1.22-.29-.17-.03-.09-1.28-4.82-.33.09,1.23,4.58-2.36-1.35-.29-.17-.03-.09-.62-2.3-.33.09.55,2.06-2.86-1.65-.17.29,2.86,1.65-2.06.55.09.33,2.3-.62.09-.03.29.17,2.36,1.35-4.58,1.23.09.33,4.82-1.28.09-.03.29.17,2.11,1.22c-.11.24-.17.5-.17.78s.07.52.16.76l-2.11,1.22-.29.17-.09-.03-4.82-1.28-.09.33,4.58,1.23-2.36,1.35-.29.17-.09-.03-2.3-.62-.09.33,2.06.55-2.86,1.65.17.29,2.86-1.65-.55,2.06.33.09.62-2.3.03-.09.29-.17,2.36-1.35-1.23,4.58.33.09,1.28-4.82.03-.09.29-.17,2.1-1.22c.31.43.79.72,1.34.78v2.77l-.07.07-3.52,3.52.24.24,3.36-3.36v3.06l-.07.07-1.69,1.69.24.24,1.51-1.51v3.31h.35v-3.31l1.51,1.51.24-.24-1.69-1.69-.07-.07v-3.06l3.36,3.36.24-.24-3.52-3.52-.07-.07v-2.77c.25-.03.51-.11.72-.23h.03s.03-.01.05-.03c.2-.12.39-.29.54-.5l2.11,1.22.29.17.03.09,1.28,4.82.33-.09-1.23-4.58,2.36,1.35.29.17.03.09.62,2.3.33-.09-.55-2.06,2.86,1.65.17-.29-2.86-1.65,2.06-.55h0v-.04Z"/>
    <polygon class="st0" points="818.14 704.34 816.52 705.34 816.45 707.24 818.06 706.24 818.14 704.34 818.14 704.34"/>
  </g>
  <g>
    <polygon class="st0" points="643.3 731.99 643.39 734.6 645.6 735.98 645.51 733.38 643.3 731.99 643.3 731.99"/>
    <polygon class="st0" points="651.97 747.07 651.88 744.46 649.67 743.08 649.76 745.69 651.97 747.07 651.97 747.07"/>
    <polygon class="st0" points="638.99 739.62 641.29 740.84 643.59 739.62 641.29 738.4 638.99 739.62 638.99 739.62"/>
    <polygon class="st0" points="656.39 739.64 654.09 738.43 651.78 739.64 654.09 740.86 656.39 739.64 656.39 739.64"/>
    <polygon class="st0" points="643.45 747.15 645.66 745.77 645.74 743.18 643.54 744.56 643.45 747.15 643.45 747.15"/>
    <path class="st0" d="M649.4,740.73c-.17.23-.37.43-.63.58-.98.56-2.22.23-2.78-.75-.19-.32-.27-.67-.27-1.02s.08-.7.27-1c.16-.28.39-.51.64-.68h.01s.05-.04.08-.05c0,0,.03,0,.03-.01.03-.01.07-.03.08-.05.03,0,.04-.03.07-.03,0,0,.03,0,.04-.03.03,0,.05-.03.08-.03h.01c.21-.08.45-.12.7-.12,1.12,0,2.03.91,2.03,2.03,0,.44-.13.84-.37,1.18h.01ZM660.94,744.49l-.12-.45-3.14.84-.13.04-.41-.24-3.22-1.86,6.26-1.69-.12-.45-6.6,1.77-.13.04-.41-.24-2.89-1.67c.15-.32.21-.66.23-.99v-.09c0-.35-.08-.68-.23-1l2.89-1.67.41-.24.13.04,6.6,1.77.12-.45-6.26-1.69,3.22-1.86.41-.24.13.04,3.14.84.12-.45-2.82-.75,3.92-2.26-.24-.41-3.92,2.26.75-2.82-.45-.12-.84,3.14-.04.13-.41.24-3.22,1.86,1.69-6.26-.45-.12-1.77,6.6-.04.13-.41.24-2.89,1.67c-.33-.47-.83-.82-1.39-.96-.13-.04-.28-.07-.41-.07v-3.81l.09-.09,4.82-4.82-.33-.33-4.59,4.59v-4.19l.09-.09,2.3-2.3-.33-.33-2.06,2.06v-4.52h-.47v4.52l-2.06-2.06-.33.33,2.3,2.3.09.09v4.19l-4.59-4.59-.33.33,4.82,4.82.09.09v3.81c-.35.04-.71.15-1.02.32h0c-.32.19-.59.44-.79.72l-2.89-1.67-.41-.24-.04-.13-1.77-6.6-.45.12,1.69,6.26-3.22-1.86-.41-.24-.04-.13-.84-3.14-.45.12.75,2.82-3.92-2.26-.24.41,3.92,2.26-2.82.75.12.45,3.14-.84.13-.04.41.24,3.22,1.86-6.26,1.69.12.45,6.6-1.77.13-.04.41.24,2.89,1.67c-.15.32-.24.68-.24,1.06s.08.72.23,1.03l-2.89,1.66-.41.24-.13-.04-6.6-1.77-.12.45,6.26,1.69-3.22,1.86-.41.24-.13-.04-3.14-.84-.12.45,2.82.75-3.92,2.26.24.41,3.92-2.26-.75,2.82.45.12.84-3.14.04-.13.41-.24,3.22-1.86-1.69,6.26.45.12,1.77-6.6.04-.13.41-.24,2.89-1.66c.41.59,1.07.99,1.82,1.06v3.8l-.09.09-4.82,4.82.33.33,4.59-4.59v4.19l-.09.09-2.3,2.3.33.33,2.06-2.06v4.52h.47v-4.52l2.06,2.06.33-.33-2.3-2.3-.09-.09v-4.19l4.59,4.59.33-.33-4.82-4.82-.09-.09v-3.8c.36-.04.7-.15.99-.31,0,0,.03,0,.04-.03.03,0,.04-.03.07-.04.28-.17.54-.4.72-.68l2.89,1.67.41.24.04.13,1.77,6.6.45-.12-1.69-6.26,3.22,1.86.41.24.04.13.84,3.14.45-.12-.75-2.82,3.92,2.26.24-.41-3.92-2.26,2.82-.75h-.01Z"/>
    <polygon class="st0" points="652.16 732.11 649.95 733.49 649.86 736.09 652.06 734.71 652.16 732.11 652.16 732.11"/>
  </g>
  <g>
    <path class="st0" d="M637.05,452.1h3.77l1.89-3.28-1.89-3.28h-3.77l-1.89,3.28,1.89,3.28h0ZM641.19,452.73h-4.5l-2.25-3.89,2.25-3.89h4.5l2.25,3.89-2.25,3.89h0Z"/>
    <path class="st0" d="M643.27,456.33h-8.64l-4.15-7.17-.19-.31.19-.31,4.15-7.17h8.64l4.15,7.17.19.31-.19.31-4.15,7.17h0ZM660.39,448.51h-3.29l2.26-2.26-.44-.44-2.58,2.58-.13.13h-3.53l3.02-3.02-.44-.44-3.33,3.33-.13.13h-3.67l-3.08-5.34,2.77-2.77.44-.44h4.9v-.62h-4.27l2.06-2.06.44-.44h3.83v-.62h-3.2l2.33-2.33-.44-.44-2.33,2.33v-3.2h-.62v3.83l-.44.44-2.06,2.06v-4.27h-.62v4.9l-.44.44-2.65,2.65-1.1-1.89h-4.36v-4.75l.13-.13,3.33-3.33-.44-.44-3.02,3.02v-3.53l.13-.13,2.58-2.58-.44-.44-2.26,2.26v-3.29h-.62v3.29l-2.26-2.26-.44.44,2.58,2.58.13.13v3.53l-3.02-3.02-.44.44,3.33,3.33.13.13v4.75h-4.36l-1.1,1.89-2.65-2.65-.44-.44v-4.9h-.62v4.27l-2.06-2.06-.44-.44v-3.83h-.62v3.2l-2.33-2.33-.44.44,2.33,2.33h-3.2v.62h3.83l.44.44,2.06,2.06h-4.27v.62h4.9l.44.44,2.77,2.77-3.08,5.34h-3.67l-.13-.13-3.33-3.33-.44.44,3.02,3.02h-3.53l-.13-.13-2.58-2.58-.44.44,2.26,2.26h-3.29v.62h3.29l-2.26,2.26.44.44,2.58-2.58.13-.13h3.53l-3.02,3.02.44.44,3.33-3.33.13-.13h3.67l3.08,5.34-2.77,2.77-.44.44h-4.9v.62h4.27l-2.06,2.06-.44.44h-3.83v.62h3.2l-2.33,2.33.44.44,2.33-2.33v3.2h.62v-3.83l.44-.44,2.06-2.06v4.27h.62v-4.9l.44-.44,2.65-2.65,1.1,1.89h4.36v4.75l-.13.13-3.33,3.33.44.44,3.02-3.02v3.53l-.13.13-2.58,2.58.44.44,2.26-2.26v3.29h.62v-3.29l2.26,2.26.44-.44-2.58-2.58-.13-.13v-3.53l3.02,3.02.44-.44-3.33-3.33-.13-.13v-4.75h4.36l1.1-1.89,2.65,2.65.44.44v4.9h.62v-4.27l2.06,2.06.44.44v3.83h.62v-3.2l2.33,2.33.44-.44-2.33-2.33h3.2v-.62h-3.83l-.44-.44-2.06-2.06h4.27v-.62h-4.9l-.44-.44-2.77-2.77,3.08-5.34h3.67l.13.13,3.33,3.33.44-.44-3.02-3.02h3.53l.13.13,2.58,2.58.44-.44-2.26-2.26h3.29v-.62h0Z"/>
  </g>
  <g>
    <path class="st0" d="M395.22,440.39h3.77l1.89-3.28-1.89-3.28h-3.77l-1.89,3.28,1.89,3.28h0ZM399.36,441.01h-4.5l-2.25-3.89,2.25-3.89h4.5l2.25,3.89-2.25,3.89h0Z"/>
    <path class="st0" d="M401.43,444.61h-8.64l-4.15-7.17-.19-.31.19-.31,4.15-7.17h8.64l4.15,7.17.19.31-.19.31-4.15,7.17h0ZM418.54,436.81h-3.29l2.26-2.26-.44-.44-2.58,2.58-.13.13h-3.53l3.02-3.02-.44-.44-3.33,3.33-.13.13h-3.67l-3.08-5.34,2.77-2.77.44-.44h4.9v-.62h-4.27l2.06-2.06.44-.44h3.83v-.62h-3.2l2.33-2.33-.44-.44-2.33,2.33v-3.2h-.62v3.83l-.44.44-2.06,2.06v-4.27h-.62v4.9l-.44.44-2.65,2.65-1.1-1.89h-4.36v-4.75l.13-.13,3.33-3.33-.44-.44-3.02,3.02v-3.53l.13-.13,2.58-2.58-.44-.44-2.26,2.26v-3.29h-.62v3.29l-2.26-2.26-.44.44,2.58,2.58.13.13v3.53l-3.02-3.02-.44.44,3.33,3.33.13.13v4.75h-4.36l-1.1,1.89-2.65-2.65-.44-.44v-4.9h-.62v4.27l-2.06-2.06-.44-.44v-3.83h-.62v3.2l-2.33-2.33-.44.44,2.33,2.33h-3.2v.62h3.83l.44.44,2.06,2.06h-4.27v.62h4.9l.44.44,2.77,2.77-3.08,5.34h-3.67l-.13-.13-3.33-3.33-.44.44,3.02,3.02h-3.53l-.13-.13-2.58-2.58-.44.44,2.26,2.26h-3.29v.62h3.29l-2.26,2.26.44.44,2.58-2.58.13-.13h3.53l-3.02,3.02.44.44,3.33-3.33.13-.13h3.67l3.08,5.34-2.77,2.77-.44.44h-4.9v.62h4.27l-2.06,2.06-.44.44h-3.83v.62h3.2l-2.33,2.33.44.44,2.33-2.33v3.2h.62v-3.83l.44-.44,2.06-2.06v4.27h.62v-4.9l.44-.44,2.65-2.65,1.1,1.89h4.36v4.75l-.13.13-3.33,3.33.44.44,3.02-3.02v3.53l-.13.13-2.58,2.58.44.44,2.26-2.26v3.29h.62v-3.29l2.26,2.26.44-.44-2.58-2.58-.13-.13v-3.53l3.02,3.02.44-.44-3.33-3.33-.13-.13v-4.75h4.36l1.1-1.89,2.65,2.65.44.44v4.9h.62v-4.27l2.06,2.06.44.44v3.83h.62v-3.2l2.33,2.33.44-.44-2.33-2.33h3.2v-.62h-3.83l-.44-.44-2.06-2.06h4.27v-.62h-4.9l-.44-.44-2.77-2.77,3.08-5.34h3.67l.13.13,3.33,3.33.44-.44-3.02-3.02h3.53l.13.13,2.58,2.58.44-.44-2.26-2.26h3.29v-.62h0Z"/>
  </g>
</svg>