<?xml version="1.0" encoding="UTF-8"?>
<svg id="Layer_1" xmlns="http://www.w3.org/2000/svg" version="1.1" viewBox="0 0 350 350">
  <!-- Generator: Adobe Illustrator 30.0.0, SVG Export Plug-In . SVG Version: 2.1.1 Build 123)  -->
  <defs>
    <style>
      .st0 {
        fill: #eeb45e;
      }

      .st1 {
        fill: #d8923c;
      }

      .st2 {
        fill: #382512;
      }

      .st3 {
        fill: #e6a54b;
      }
    </style>
  </defs>
  <circle class="st3" cx="175" cy="175" r="175"/>
  <path class="st1" d="M175,349.06c96.13,0,174.06-77.93,174.06-174.06,0-72.4-44.21-134.47-107.09-160.7,3.74,17.03,6.93,36.89,22.04,52.85,26.81,28.34,26.81,43.66,41.36,88.09s-22.21,34.47-52.85,92.67-58.21,28.35-112.6,36.78c-41.51,6.43-95.5-18.81-120.11-30.79,28.77,56.48,87.46,95.17,155.19,95.17h0Z"/>
  <path class="st0" d="M161.46,31.15c-30.64-12.26-60.6,19.15-69.03,32.94-8.43,13.79-14.55,24.51-13.79,42.89s-27.57,4.6-37.53,25.28c-9.96,20.68-21.45,51.32,0,62.04s85.02,19.91,97.28-6.89c12.26-26.81-.77-59.74,6.89-78.13s49.02-22.21,44.43-40.6c-4.6-18.38-28.25-37.53-28.25-37.53h0Z"/>
  <rect class="st2" x="52.41" y="211.14" width="44.79" height="30.68" rx="13.91" ry="13.91" transform="translate(-163.7 224.77) rotate(-71.31)"/>
  <rect class="st2" x="86.28" y="77.71" width="30.68" height="44.79" rx="13.91" ry="13.91" transform="translate(-39.45 78.97) rotate(-36.05)"/>
  <rect class="st2" x="148.69" y="281.74" width="44.79" height="30.68" rx="13.91" ry="13.91" transform="translate(-171.49 284.15) rotate(-57.9)"/>
  <rect class="st2" x="174.71" y="131.28" width="30.68" height="44.79" rx="13.91" ry="13.91" transform="translate(-6.64 298.74) rotate(-75.37)"/>
  <rect class="st2" x="141.11" y="211.13" width="44.79" height="30.68" rx="13.91" ry="13.91" transform="translate(-61.98 61.61) rotate(-18)"/>
  <rect class="st2" x="162.04" y="42.23" width="44.79" height="30.68" rx="13.91" ry="13.91" transform="translate(13.31 147.28) rotate(-45)"/>
  <rect class="st2" x="259.59" y="115.84" width="44.79" height="30.68" rx="13.91" ry="13.91" transform="translate(112.06 391.66) rotate(-81.83)"/>
  <rect class="st2" x="266.64" y="220.18" width="30.68" height="44.79" rx="13.91" ry="13.91" transform="translate(-64.51 377.85) rotate(-62.03)"/>
</svg>