<?xml version="1.0" encoding="UTF-8"?>
<svg id="Layer_1" xmlns="http://www.w3.org/2000/svg" version="1.1" viewBox="0 0 47.36 50.59">
  <!-- Generator: Adobe Illustrator 30.0.0, SVG Export Plug-In . SVG Version: 2.1.1 Build 123)  -->
  <defs>
    <style>
      .st0 {
        fill: #c52f21;
      }
    </style>
  </defs>
  <path class="st0" d="M38.68,18.73h-.66v-9.13C38.02,4.32,33.7,0,28.42,0h-9.46C13.68,0,9.36,4.32,9.36,9.6v9.13h-.66c-1.49,0-2.69,1.21-2.69,2.69v26.48c0,1.49,1.21,2.69,2.69,2.69h29.98c1.49,0,2.69-1.21,2.69-2.69v-26.48c0-1.49-1.21-2.69-2.69-2.69ZM25.45,34.99v9h-3.53v-9c-1.89-.72-3.23-2.52-3.23-4.66,0-2.76,2.24-5,5-5s5,2.24,5,5c0,2.14-1.35,3.95-3.23,4.66h-.01ZM32.32,18.73H15.05v-9.57c0-2.47,2.02-4.5,4.5-4.5h8.27c2.47,0,4.5,2.02,4.5,4.5v9.57Z"/>
</svg>