<?xml version="1.0" encoding="UTF-8"?>
<svg id="Layer_1" xmlns="http://www.w3.org/2000/svg" version="1.1" viewBox="0 0 262.4 168.31">
  <!-- Generator: Adobe Illustrator 30.0.0, SVG Export Plug-In . SVG Version: 2.1.1 Build 123)  -->
  <defs>
    <style>
      .st0 {
        fill: #c52f21;
      }

      .st1 {
        fill: #fff;
      }

      .st2 {
        fill: #181c25;
      }
    </style>
  </defs>
  <g>
    <g>
      <path class="st1" d="M43.52,86.65c-1.87.83-3.69,1.43-5.45,1.8-1.76.37-3.66.56-5.7.56-5.56,0-9.94-1.56-13.13-4.67-3.2-3.11-4.79-7.56-4.79-13.36,0-5.43,1.74-9.93,5.23-13.52,3.49-3.59,8.08-5.38,13.79-5.38,1.91,0,3.61.13,5.12.4,1.5.26,3.07.7,4.69,1.3l-2.36,6.5c-1.23-.45-2.41-.77-3.53-.97-1.13-.2-2.35-.3-3.66-.3-2.92,0-5.45,1.02-7.59,3.07s-3.21,4.83-3.21,8.33c0,3.5.93,6.45,2.8,8.49s4.43,3.06,7.68,3.06c.85,0,1.92-.14,3.22-.41,1.3-.27,2.65-.72,4.05-1.36l2.86,6.45h0Z"/>
      <path class="st1" d="M72.2,88.39h-7.84v-14.49c0-1.87-.34-3.28-1.02-4.21-.68-.93-1.7-1.39-3.06-1.39s-2.52.52-3.39,1.57-1.3,2.37-1.3,3.99v14.54s-7.87,0-7.87,0v-37.74h7.87v16.03h.1c.96-1.48,2.1-2.58,3.41-3.31,1.31-.73,2.79-1.1,4.43-1.1,2.89,0,5.05.87,6.5,2.61,1.44,1.74,2.16,4.36,2.16,7.84v15.66h0Z"/>
      <path class="st1" d="M94.51,69.42c-.32-.07-.64-.12-.97-.15s-.7-.05-1.1-.05c-2.07,0-3.62.61-4.63,1.83-1.01,1.22-1.52,2.94-1.52,5.17v12.17h-7.87v-25.49s7.87,0,7.87,0v4.73h.1c.62-1.73,1.48-3.02,2.6-3.89,1.12-.86,2.49-1.3,4.12-1.3.36,0,.72.03,1.08.07s.72.12,1.11.2l-.8,6.7h0Z"/>
      <path class="st1" d="M102.95,59.39c-1.36,0-2.47-.42-3.34-1.24-.86-.83-1.3-1.86-1.3-3.09s.43-2.32,1.3-3.12,1.97-1.21,3.34-1.21,2.49.4,3.35,1.21c.85.81,1.28,1.85,1.28,3.12s-.43,2.32-1.28,3.12c-.85.81-1.97,1.21-3.35,1.21h0ZM106.83,88.39h-7.87v-25.49h7.87v25.49h0Z"/>
      <path class="st1" d="M110.89,86.18l3.21-5.23c.86.66,1.88,1.24,3.06,1.72,1.18.48,2.49.72,3.93.72,1.01,0,1.84-.19,2.49-.56s.97-.92.97-1.66c0-.58-.24-1.04-.71-1.38-.47-.34-1.41-.66-2.83-.96-3.17-.66-5.47-1.6-6.9-2.81s-2.14-2.94-2.14-5.2c0-2.59,1.03-4.66,3.1-6.21,2.06-1.55,4.59-2.33,7.58-2.33,1.56,0,3.04.2,4.46.61,1.41.41,2.71,1.01,3.91,1.8l-2.96,5.05c-1.01-.65-1.97-1.12-2.89-1.43s-1.85-.46-2.81-.46c-1.01,0-1.83.19-2.45.57s-.93.87-.93,1.47c0,.7.31,1.2.92,1.51.62.31,1.76.63,3.44.96,2.95.6,5.06,1.53,6.32,2.8s1.89,2.98,1.89,5.14c0,2.61-.98,4.71-2.95,6.31-1.97,1.6-4.58,2.4-7.83,2.4-1.78,0-3.47-.23-5.09-.69s-3.22-1.17-4.79-2.15h0Z"/>
      <path class="st1" d="M151.82,88c-.8.33-1.69.59-2.68.76s-1.99.26-3,.26c-2.79,0-4.89-.67-6.3-2.02-1.41-1.34-2.12-3.35-2.12-6.02v-12.27h-4.13v-5.8h4.13v-6.18l7.84-2.24v8.41h5.72v5.8h-5.72v11.77c0,.98.19,1.69.57,2.13.38.44,1,.66,1.84.66.42,0,.81-.05,1.2-.16.38-.11.75-.24,1.1-.41l1.54,5.3h0Z"/>
      <path class="st1" d="M196.21,88.39h-7.84v-14.54c0-1.86-.34-3.25-1.02-4.17s-1.7-1.38-3.06-1.38-2.35.56-3.16,1.67c-.82,1.11-1.22,2.5-1.22,4.16v14.26h-7.87v-14.69c0-1.81-.33-3.16-1-4.06s-1.67-1.34-3.01-1.34-2.42.53-3.22,1.59-1.21,2.51-1.21,4.33v14.16h-7.87v-25.49h7.87v3.98s.1,0,.1,0c.81-1.36,1.96-2.47,3.42-3.32,1.47-.85,3.07-1.28,4.82-1.28s3.33.39,4.56,1.18,2.17,1.98,2.84,3.57c.98-1.59,2.18-2.78,3.61-3.57,1.43-.79,3.08-1.18,4.95-1.18,2.77,0,4.85.85,6.24,2.56,1.39,1.71,2.08,4.27,2.08,7.69v15.86h0s0,0,0,0Z"/>
      <path class="st1" d="M223.64,88.39h-7.44v-3.66s-.1,0-.1,0c-.85,1.43-1.9,2.5-3.17,3.21s-2.71,1.07-4.32,1.07c-2.21,0-4.1-.68-5.69-2.03s-2.38-3.25-2.38-5.69.78-4.28,2.35-5.78c1.57-1.49,4.02-2.46,7.36-2.91l6-.8v-.5c0-1.21-.39-2.13-1.17-2.75s-1.86-.93-3.24-.93c-1.05,0-2.21.17-3.5.52s-2.59.91-3.92,1.67l-2.66-4.66c1.74-1.01,3.47-1.75,5.19-2.2,1.72-.46,3.59-.69,5.62-.69,3.8,0,6.6.91,8.39,2.71,1.79,1.81,2.69,4.53,2.69,8.17v15.24h0ZM216.25,78.04v-1.72l-4.63.6c-1.28.17-2.24.55-2.88,1.16-.64.61-.96,1.37-.96,2.3s.31,1.63.93,2.2c.62.57,1.47.86,2.53.86,1.48,0,2.68-.51,3.61-1.53.93-1.02,1.39-2.31,1.39-3.87h0Z"/>
      <path class="st1" d="M227.3,86.18l3.21-5.23c.86.66,1.88,1.24,3.06,1.72,1.18.48,2.49.72,3.93.72,1.01,0,1.84-.19,2.49-.56s.97-.92.97-1.66c0-.58-.24-1.04-.71-1.38-.47-.34-1.41-.66-2.83-.96-3.17-.66-5.47-1.6-6.9-2.81s-2.14-2.94-2.14-5.2c0-2.59,1.03-4.66,3.1-6.21,2.06-1.55,4.59-2.33,7.58-2.33,1.56,0,3.04.2,4.46.61s2.71,1.01,3.91,1.8l-2.96,5.05c-1.01-.65-1.97-1.12-2.89-1.43s-1.85-.46-2.81-.46c-1.01,0-1.83.19-2.45.57s-.93.87-.93,1.47.31,1.2.92,1.51c.62.31,1.76.63,3.43.96,2.95.6,5.06,1.53,6.32,2.8s1.89,2.98,1.89,5.14c0,2.61-.98,4.71-2.95,6.31-1.97,1.6-4.58,2.4-7.83,2.4-1.78,0-3.47-.23-5.09-.69-1.62-.46-3.22-1.17-4.79-2.15h0,0Z"/>
      <path class="st1" d="M80.28,132.19c-5.13,0-9.3-1.67-12.51-5.02s-4.82-7.67-4.82-12.98c0-5.59,1.62-10.14,4.87-13.66s7.59-5.26,13.03-5.26c5.08,0,9.19,1.66,12.35,4.98,3.15,3.32,4.73,7.73,4.73,13.22,0,2.99-.41,5.72-1.23,8.19-.82,2.47-2.13,4.48-3.92,6.02l5.43,5.03-6.1,5.25-5.9-6.47c-.78.2-1.73.36-2.84.5s-2.14.2-3.09.2h0s0,0,0,0ZM80.63,102.19c-2.81,0-5.04,1.06-6.71,3.17-1.67,2.12-2.5,4.92-2.5,8.4s.83,6.33,2.49,8.39c1.66,2.06,3.83,3.09,6.52,3.09s4.99-1.01,6.61-3.03c1.62-2.02,2.43-4.78,2.43-8.3s-.78-6.54-2.34-8.61c-1.56-2.07-3.73-3.11-6.5-3.11h0Z"/>
      <path class="st1" d="M127.31,131.56h-7.84s0-3.89,0-3.89h-.13c-.96,1.49-2.09,2.62-3.4,3.37-1.3.75-2.77,1.13-4.39,1.13-2.95,0-5.17-.9-6.65-2.69-1.48-1.79-2.22-4.47-2.22-8.04v-15.39h7.84v14.69c0,1.79.36,3.14,1.07,4.05.71.91,1.78,1.36,3.21,1.36s2.54-.49,3.39-1.48c.85-.99,1.27-2.33,1.27-4.02v-14.59h7.84s0,25.49,0,25.49h0Z"/>
      <path class="st1" d="M156.83,121.06h-16.63c.13,1.84.75,3.21,1.86,4.11,1.1.9,2.63,1.34,4.57,1.34.73,0,1.74-.22,3.03-.66,1.29-.44,2.54-1.13,3.75-2.08l3.49,4.46c-1.74,1.38-3.53,2.38-5.38,3.01s-3.88.95-6.1.95c-4.12,0-7.31-1.14-9.58-3.42-2.27-2.28-3.41-5.46-3.41-9.55s1.2-7.38,3.61-9.93c2.41-2.55,5.45-3.83,9.14-3.83s6.37,1.07,8.49,3.2c2.13,2.13,3.19,5.23,3.19,9.3v3.11s0,0,0,0h0ZM149.54,116.23c0-1.97-.37-3.38-1.11-4.22s-1.85-1.26-3.32-1.26c-1.26,0-2.35.49-3.27,1.47s-1.48,2.32-1.68,4.01h9.39s0,0,0,0Z"/>
      <path class="st1" d="M158.95,129.35l3.21-5.23c.86.66,1.88,1.24,3.06,1.72,1.18.48,2.49.72,3.93.72,1.01,0,1.84-.19,2.49-.56s.97-.92.97-1.66c0-.58-.24-1.04-.71-1.38-.47-.34-1.41-.66-2.83-.96-3.17-.66-5.47-1.6-6.9-2.81s-2.14-2.94-2.14-5.2c0-2.59,1.03-4.66,3.1-6.21s4.59-2.33,7.58-2.33c1.56,0,3.04.2,4.46.61s2.71,1.01,3.91,1.8l-2.96,5.05c-1.01-.65-1.97-1.12-2.89-1.43s-1.85-.46-2.81-.46c-1.01,0-1.83.19-2.45.57s-.93.87-.93,1.47c0,.7.31,1.2.92,1.51.62.31,1.76.63,3.43.96,2.95.6,5.06,1.53,6.32,2.8s1.89,2.98,1.89,5.14c0,2.61-.98,4.71-2.95,6.31s-4.58,2.4-7.83,2.4c-1.78,0-3.47-.23-5.09-.68-1.62-.46-3.22-1.17-4.79-2.15h0Z"/>
      <path class="st1" d="M199.88,131.17c-.8.33-1.69.59-2.68.76-.99.17-1.99.26-3,.26-2.79,0-4.89-.67-6.3-2.02s-2.12-3.35-2.12-6.02v-12.27h-4.13v-5.8h4.13v-6.18l7.84-2.24v8.41s5.72,0,5.72,0v5.8h-5.72v11.77c0,.98.19,1.69.57,2.13.38.44,1,.66,1.84.66.42,0,.81-.05,1.2-.16.38-.11.75-.24,1.1-.41l1.54,5.3h0Z"/>
    </g>
    <path class="st2" d="M257.7,70.91l.09-.15c3.22-5.49,1.59-12.53-3.7-16.06-2.22-1.48-4.66-2.6-7.24-3.35-2.48-.71-5.1-1.08-7.77-1.08-4.77,0-9.22,1.22-12.99,3.52-3.67-2.35-8.2-3.53-13.53-3.53-3.06,0-5.99.37-8.7,1.09-1.69.45-3.38,1.08-5.06,1.85-3.11-1.91-6.83-2.93-10.9-2.93-2.89,0-5.61.49-8.12,1.45-2.41-.95-5.06-1.45-7.84-1.45-2.08,0-4.1.28-6.04.84-.74-.14-1.51-.22-2.3-.22h-6.59c-.74-2.36-2.19-4.48-4.22-6-3.01-2.27-6.9-2.99-10.52-1.96l-7.84,2.24c-3.05.87-5.54,2.88-7.07,5.49-1.54-.26-3.1-.4-4.7-.4-1.26,0-2.5.1-3.71.26-.78-2.79-2.27-5.31-4.42-7.34-3.06-2.89-7.18-4.48-11.58-4.48s-8.42,1.53-11.52,4.43c-2.28,2.12-3.83,4.8-4.58,7.77-.18,0-.36-.02-.55-.02h-7.87c-2.01,0-3.9.5-5.57,1.37-1.63-.77-3.39-1.34-5.26-1.66-.02-6.61-5.38-11.97-12-11.97h-7.87c-2.51,0-4.84.77-6.77,2.09-.09-.02-.19-.04-.28-.06-2.18-.39-4.61-.58-7.22-.58-8.92,0-16.66,3.12-22.4,9.01-5.64,5.8-8.62,13.37-8.62,21.88,0,11.37,4.58,18.21,8.42,21.95,3.78,3.68,10.58,8.08,21.51,8.08,2.86,0,5.62-.28,8.2-.82.88-.19,1.77-.42,2.66-.68,1.39.57,2.91.88,4.51.88h6.02c-1.84,4.14-2.8,8.79-2.8,13.79,0,8.37,2.82,15.74,8.16,21.3,5.36,5.58,12.5,8.58,20.66,8.7.57.02,1.15,0,1.75-.01l1.72,1.88c2.36,2.59,5.61,3.91,8.87,3.91,2.78,0,5.57-.96,7.83-2.91l4.58-3.95c2.18.71,4.54,1.08,7.03,1.08,2.03,0,3.98-.27,5.84-.8.68.12,1.37.18,2.08.18h7.84c2.35,0,4.54-.69,6.39-1.86,3.04,1.44,6.89,2.48,11.71,2.48,3.54,0,6.89-.54,9.99-1.6.6-.21,1.19-.45,1.79-.7,1.09.45,2.19.86,3.31,1.17,2.67.75,5.47,1.13,8.33,1.13,4.99,0,9.38-1.18,13.09-3.48,2.72,1.84,6.7,3.48,12.28,3.48,1.7,0,3.41-.15,5.08-.44,1.85-.33,3.6-.83,5.22-1.5,4.47-1.86,7.38-6.24,7.38-11.08,0-1.13-.16-2.26-.48-3.35l-1.54-5.3c-.3-1.04-.74-2.03-1.3-2.94,1.75-2.08,2.8-4.77,2.8-7.7v-5.8c0-1.83-.43-3.56-1.16-5.11,1.43-.1,2.82-.33,4.16-.71.6.09,1.22.14,1.85.14h7.44c1.51,0,2.95-.29,4.28-.8.3.1.6.2.9.29,2.67.76,5.48,1.14,8.36,1.14,6.06,0,11.25-1.71,15.4-5.09,4.76-3.87,7.38-9.42,7.38-15.62,0-3.9-.97-6.99-2.26-9.39Z"/>
    <g>
      <path class="st1" d="M43.52,86.65c-1.87.83-3.69,1.43-5.45,1.8-1.76.37-3.66.56-5.7.56-5.56,0-9.94-1.56-13.13-4.67-3.2-3.11-4.79-7.56-4.79-13.36,0-5.43,1.74-9.93,5.23-13.52,3.49-3.59,8.08-5.38,13.79-5.38,1.91,0,3.61.13,5.12.4,1.5.26,3.07.7,4.69,1.3l-2.36,6.5c-1.23-.45-2.41-.77-3.53-.97-1.13-.2-2.35-.3-3.66-.3-2.92,0-5.45,1.02-7.59,3.07s-3.21,4.83-3.21,8.33c0,3.5.93,6.45,2.8,8.49s4.43,3.06,7.68,3.06c.85,0,1.92-.14,3.22-.41,1.3-.27,2.65-.72,4.05-1.36l2.86,6.45h0Z"/>
      <path class="st1" d="M72.2,88.39h-7.84v-14.49c0-1.87-.34-3.28-1.02-4.21-.68-.93-1.7-1.39-3.06-1.39s-2.52.52-3.39,1.57-1.3,2.37-1.3,3.99v14.54s-7.87,0-7.87,0v-37.74h7.87v16.03h.1c.96-1.48,2.1-2.58,3.41-3.31,1.31-.73,2.79-1.1,4.43-1.1,2.89,0,5.05.87,6.5,2.61,1.44,1.74,2.16,4.36,2.16,7.84v15.66h0Z"/>
      <path class="st1" d="M94.51,69.42c-.32-.07-.64-.12-.97-.15s-.7-.05-1.1-.05c-2.07,0-3.62.61-4.63,1.83-1.01,1.22-1.52,2.94-1.52,5.17v12.17h-7.87v-25.49s7.87,0,7.87,0v4.73h.1c.62-1.73,1.48-3.02,2.6-3.89,1.12-.86,2.49-1.3,4.12-1.3.36,0,.72.03,1.08.07s.72.12,1.11.2l-.8,6.7h0Z"/>
      <path class="st1" d="M102.95,59.39c-1.36,0-2.47-.42-3.34-1.24-.86-.83-1.3-1.86-1.3-3.09s.43-2.32,1.3-3.12,1.97-1.21,3.34-1.21,2.49.4,3.35,1.21c.85.81,1.28,1.85,1.28,3.12s-.43,2.32-1.28,3.12c-.85.81-1.97,1.21-3.35,1.21h0ZM106.83,88.39h-7.87v-25.49h7.87v25.49h0Z"/>
      <path class="st1" d="M110.89,86.18l3.21-5.23c.86.66,1.88,1.24,3.06,1.72,1.18.48,2.49.72,3.93.72,1.01,0,1.84-.19,2.49-.56s.97-.92.97-1.66c0-.58-.24-1.04-.71-1.38-.47-.34-1.41-.66-2.83-.96-3.17-.66-5.47-1.6-6.9-2.81s-2.14-2.94-2.14-5.2c0-2.59,1.03-4.66,3.1-6.21,2.06-1.55,4.59-2.33,7.58-2.33,1.56,0,3.04.2,4.46.61,1.41.41,2.71,1.01,3.91,1.8l-2.96,5.05c-1.01-.65-1.97-1.12-2.89-1.43s-1.85-.46-2.81-.46c-1.01,0-1.83.19-2.45.57s-.93.87-.93,1.47c0,.7.31,1.2.92,1.51.62.31,1.76.63,3.44.96,2.95.6,5.06,1.53,6.32,2.8s1.89,2.98,1.89,5.14c0,2.61-.98,4.71-2.95,6.31-1.97,1.6-4.58,2.4-7.83,2.4-1.78,0-3.47-.23-5.09-.69s-3.22-1.17-4.79-2.15h0Z"/>
      <path class="st1" d="M151.82,88c-.8.33-1.69.59-2.68.76s-1.99.26-3,.26c-2.79,0-4.89-.67-6.3-2.02-1.41-1.34-2.12-3.35-2.12-6.02v-12.27h-4.13v-5.8h4.13v-6.18l7.84-2.24v8.41h5.72v5.8h-5.72v11.77c0,.98.19,1.69.57,2.13.38.44,1,.66,1.84.66.42,0,.81-.05,1.2-.16.38-.11.75-.24,1.1-.41l1.54,5.3h0Z"/>
      <path class="st1" d="M196.21,88.39h-7.84v-14.54c0-1.86-.34-3.25-1.02-4.17s-1.7-1.38-3.06-1.38-2.35.56-3.16,1.67c-.82,1.11-1.22,2.5-1.22,4.16v14.26h-7.87v-14.69c0-1.81-.33-3.16-1-4.06s-1.67-1.34-3.01-1.34-2.42.53-3.22,1.59-1.21,2.51-1.21,4.33v14.16h-7.87v-25.49h7.87v3.98s.1,0,.1,0c.81-1.36,1.96-2.47,3.42-3.32,1.47-.85,3.07-1.28,4.82-1.28s3.33.39,4.56,1.18,2.17,1.98,2.84,3.57c.98-1.59,2.18-2.78,3.61-3.57,1.43-.79,3.08-1.18,4.95-1.18,2.77,0,4.85.85,6.24,2.56,1.39,1.71,2.08,4.27,2.08,7.69v15.86h0s0,0,0,0Z"/>
      <path class="st1" d="M223.64,88.39h-7.44v-3.66s-.1,0-.1,0c-.85,1.43-1.9,2.5-3.17,3.21s-2.71,1.07-4.32,1.07c-2.21,0-4.1-.68-5.69-2.03s-2.38-3.25-2.38-5.69.78-4.28,2.35-5.78c1.57-1.49,4.02-2.46,7.36-2.91l6-.8v-.5c0-1.21-.39-2.13-1.17-2.75s-1.86-.93-3.24-.93c-1.05,0-2.21.17-3.5.52s-2.59.91-3.92,1.67l-2.66-4.66c1.74-1.01,3.47-1.75,5.19-2.2,1.72-.46,3.59-.69,5.62-.69,3.8,0,6.6.91,8.39,2.71,1.79,1.81,2.69,4.53,2.69,8.17v15.24h0ZM216.25,78.04v-1.72l-4.63.6c-1.28.17-2.24.55-2.88,1.16-.64.61-.96,1.37-.96,2.3s.31,1.63.93,2.2c.62.57,1.47.86,2.53.86,1.48,0,2.68-.51,3.61-1.53.93-1.02,1.39-2.31,1.39-3.87h0Z"/>
      <path class="st1" d="M227.3,86.18l3.21-5.23c.86.66,1.88,1.24,3.06,1.72,1.18.48,2.49.72,3.93.72,1.01,0,1.84-.19,2.49-.56s.97-.92.97-1.66c0-.58-.24-1.04-.71-1.38-.47-.34-1.41-.66-2.83-.96-3.17-.66-5.47-1.6-6.9-2.81s-2.14-2.94-2.14-5.2c0-2.59,1.03-4.66,3.1-6.21,2.06-1.55,4.59-2.33,7.58-2.33,1.56,0,3.04.2,4.46.61s2.71,1.01,3.91,1.8l-2.96,5.05c-1.01-.65-1.97-1.12-2.89-1.43s-1.85-.46-2.81-.46c-1.01,0-1.83.19-2.45.57s-.93.87-.93,1.47.31,1.2.92,1.51c.62.31,1.76.63,3.43.96,2.95.6,5.06,1.53,6.32,2.8s1.89,2.98,1.89,5.14c0,2.61-.98,4.71-2.95,6.31-1.97,1.6-4.58,2.4-7.83,2.4-1.78,0-3.47-.23-5.09-.69-1.62-.46-3.22-1.17-4.79-2.15h0,0Z"/>
      <path class="st1" d="M80.28,132.19c-5.13,0-9.3-1.67-12.51-5.02s-4.82-7.67-4.82-12.98c0-5.59,1.62-10.14,4.87-13.66s7.59-5.26,13.03-5.26c5.08,0,9.19,1.66,12.35,4.98,3.15,3.32,4.73,7.73,4.73,13.22,0,2.99-.41,5.72-1.23,8.19-.82,2.47-2.13,4.48-3.92,6.02l5.43,5.03-6.1,5.25-5.9-6.47c-.78.2-1.73.36-2.84.5s-2.14.2-3.09.2h0s0,0,0,0ZM80.63,102.19c-2.81,0-5.04,1.06-6.71,3.17-1.67,2.12-2.5,4.92-2.5,8.4s.83,6.33,2.49,8.39c1.66,2.06,3.83,3.09,6.52,3.09s4.99-1.01,6.61-3.03c1.62-2.02,2.43-4.78,2.43-8.3s-.78-6.54-2.34-8.61c-1.56-2.07-3.73-3.11-6.5-3.11h0Z"/>
      <path class="st1" d="M127.31,131.56h-7.84s0-3.89,0-3.89h-.13c-.96,1.49-2.09,2.62-3.4,3.37-1.3.75-2.77,1.13-4.39,1.13-2.95,0-5.17-.9-6.65-2.69-1.48-1.79-2.22-4.47-2.22-8.04v-15.39h7.84v14.69c0,1.79.36,3.14,1.07,4.05.71.91,1.78,1.36,3.21,1.36s2.54-.49,3.39-1.48c.85-.99,1.27-2.33,1.27-4.02v-14.59h7.84s0,25.49,0,25.49h0Z"/>
      <path class="st1" d="M156.83,121.06h-16.63c.13,1.84.75,3.21,1.86,4.11,1.1.9,2.63,1.34,4.57,1.34.73,0,1.74-.22,3.03-.66,1.29-.44,2.54-1.13,3.75-2.08l3.49,4.46c-1.74,1.38-3.53,2.38-5.38,3.01s-3.88.95-6.1.95c-4.12,0-7.31-1.14-9.58-3.42-2.27-2.28-3.41-5.46-3.41-9.55s1.2-7.38,3.61-9.93c2.41-2.55,5.45-3.83,9.14-3.83s6.37,1.07,8.49,3.2c2.13,2.13,3.19,5.23,3.19,9.3v3.11s0,0,0,0h0ZM149.54,116.23c0-1.97-.37-3.38-1.11-4.22s-1.85-1.26-3.32-1.26c-1.26,0-2.35.49-3.27,1.47s-1.48,2.32-1.68,4.01h9.39s0,0,0,0Z"/>
      <path class="st1" d="M158.95,129.35l3.21-5.23c.86.66,1.88,1.24,3.06,1.72,1.18.48,2.49.72,3.93.72,1.01,0,1.84-.19,2.49-.56s.97-.92.97-1.66c0-.58-.24-1.04-.71-1.38-.47-.34-1.41-.66-2.83-.96-3.17-.66-5.47-1.6-6.9-2.81s-2.14-2.94-2.14-5.2c0-2.59,1.03-4.66,3.1-6.21s4.59-2.33,7.58-2.33c1.56,0,3.04.2,4.46.61s2.71,1.01,3.91,1.8l-2.96,5.05c-1.01-.65-1.97-1.12-2.89-1.43s-1.85-.46-2.81-.46c-1.01,0-1.83.19-2.45.57s-.93.87-.93,1.47c0,.7.31,1.2.92,1.51.62.31,1.76.63,3.43.96,2.95.6,5.06,1.53,6.32,2.8s1.89,2.98,1.89,5.14c0,2.61-.98,4.71-2.95,6.31s-4.58,2.4-7.83,2.4c-1.78,0-3.47-.23-5.09-.68-1.62-.46-3.22-1.17-4.79-2.15h0Z"/>
      <path class="st1" d="M199.88,131.17c-.8.33-1.69.59-2.68.76-.99.17-1.99.26-3,.26-2.79,0-4.89-.67-6.3-2.02s-2.12-3.35-2.12-6.02v-12.27h-4.13v-5.8h4.13v-6.18l7.84-2.24v8.41s5.72,0,5.72,0v5.8h-5.72v11.77c0,.98.19,1.69.57,2.13.38.44,1,.66,1.84.66.42,0,.81-.05,1.2-.16.38-.11.75-.24,1.1-.41l1.54,5.3h0Z"/>
    </g>
  </g>
  <path class="st0" d="M225.44,35.49c-.48,0-.88-.39-.88-.88s.39-.88.88-.88.88.39.88.88-.39.88-.88.88h0ZM219.2,35.94c-.66,0-1.2-.5-1.28-1.14,0-.05,0-.1,0-.15,0-.08,0-.16.02-.24.12-.59.64-1.04,1.26-1.04s1.15.45,1.26,1.04c.02.08.02.16.02.24,0,.05,0,.1,0,.15-.07.64-.62,1.14-1.28,1.14h0ZM214.35,40.7c0,.62-.45,1.15-1.04,1.26-.08.02-.16.02-.24.02-.05,0-.1,0-.15,0-.64-.07-1.14-.62-1.14-1.28s.5-1.2,1.14-1.28c.05,0,.1,0,.15,0,.08,0,.16,0,.24.02.59.12,1.04.64,1.04,1.26h0ZM213.98,46.94c0,.48-.39.88-.88.88s-.88-.39-.88-.88.39-.88.88-.88.88.39.88.88h0ZM207.02,35.85c-.62,0-1.15-.45-1.26-1.04-.02-.08-.02-.16-.02-.24,0-.05,0-.1,0-.15.07-.64.62-1.14,1.28-1.14s1.2.5,1.28,1.14c0,.05,0,.1,0,.15,0,.08,0,.16-.02.24-.12.59-.64,1.04-1.26,1.04h0ZM211.87,28.52c0-.62.45-1.15,1.04-1.26.08-.02.16-.02.24-.02.05,0,.1,0,.15,0,.64.07,1.14.62,1.14,1.28s-.5,1.2-1.14,1.28c-.05,0-.1,0-.15,0-.08,0-.16,0-.24-.02-.59-.12-1.04-.64-1.04-1.26h0ZM212.23,22.28c0-.48.39-.88.88-.88s.88.39.88.88-.39.88-.88.88-.88-.39-.88-.88h0ZM218.68,39.26c.25,0,.48.1.66.27.18.18.27.41.27.66,0,.18-.05.35-.15.5-.04.05-.08.11-.12.15-.05.05-.1.09-.15.12-.15.1-.32.15-.5.15-.25,0-.48-.1-.66-.27-.18-.18-.27-.41-.27-.66,0-.18.05-.35.15-.5.04-.05.08-.11.12-.15h0s.1-.09.15-.12c.15-.1.32-.15.5-.15h0ZM208.46,40.19c0,.25-.1.48-.27.66-.18.18-.41.27-.66.27-.18,0-.35-.05-.5-.15-.05-.04-.11-.08-.15-.12-.05-.05-.09-.1-.12-.15-.1-.15-.15-.32-.15-.5,0-.25.1-.48.27-.66.18-.18.41-.27.66-.27.18,0,.35.05.5.15.05.04.11.08.15.12h0s.09.1.12.15c.1.15.15.32.15.5h0ZM200.78,35.49c-.48,0-.88-.39-.88-.88s.39-.88.88-.88.88.39.88.88-.39.88-.88.88h0ZM207.53,29.96c-.25,0-.48-.1-.66-.27-.18-.18-.27-.41-.27-.66,0-.18.05-.35.15-.5.04-.05.08-.11.12-.15.05-.05.1-.09.15-.12.15-.1.32-.15.5-.15.25,0,.48.1.66.27.18.18.27.41.27.66,0,.18-.05.35-.15.5-.04.05-.08.11-.12.15-.05.05-.1.09-.15.12-.15.1-.32.15-.5.15h0ZM218.03,28.37c.18-.18.42-.27.66-.27.18,0,.35.05.5.15.05.04.11.08.15.12.05.05.09.1.12.15.23.36.19.85-.12,1.16-.32.32-.8.36-1.16.12-.05-.04-.11-.08-.15-.12-.05-.05-.09-.1-.12-.15-.23-.36-.19-.85.12-1.16h0ZM225.44,33.34c-.63,0-1.16.47-1.25,1.07h-2.05l2.31-2.31-.28-.28-2.59,2.59h-.72c-.12-.81-.82-1.44-1.66-1.44s-1.54.62-1.66,1.44h-3.95l2.59-2.59h3.66v-.39h-3.27l1.33-1.33c.23.17.51.26.79.26.34,0,.68-.13.93-.39.47-.47.51-1.2.13-1.72l.32-.32h2.27v-.39h-1.87l1.31-1.31-.28-.28-1.31,1.31v-1.87h-.39v2.27l-.32.32c-.52-.38-1.25-.34-1.72.13-.47.47-.51,1.2-.13,1.72l-1.33,1.33v-3.27h-.39v3.66l-2.59,2.59v-3.94c.86-.07,1.53-.8,1.53-1.68s-.68-1.6-1.53-1.68v-.71l2.59-2.59-.28-.28-2.31,2.31v-2.05c.61-.09,1.07-.62,1.07-1.25,0-.7-.57-1.27-1.27-1.27s-1.27.57-1.27,1.27c0,.63.47,1.16,1.07,1.25v2.05l-2.31-2.31-.28.28,2.59,2.59v.72c-.81.12-1.44.82-1.44,1.66s.62,1.54,1.44,1.66v3.95l-2.59-2.59v-3.66h-.39v3.27l-1.33-1.33c.17-.23.26-.5.26-.79,0-.35-.14-.69-.39-.93-.25-.25-.58-.39-.93-.39-.29,0-.56.09-.79.26l-.32-.32v-2.27h-.39v1.87l-1.31-1.31-.28.28,1.31,1.31h-1.87v.39h2.27l.32.32c-.17.23-.26.5-.26.79,0,.35.14.69.39.93.25.25.58.39.93.39.29,0,.56-.09.79-.26l1.33,1.33h-3.27v.39h3.66l2.59,2.59h-3.94c-.07-.86-.8-1.53-1.68-1.53s-1.6.68-1.68,1.53h-.71l-2.59-2.59-.28.28,2.31,2.31h-2.05c-.09-.61-.62-1.07-1.25-1.07-.7,0-1.27.57-1.27,1.27s.57,1.27,1.27,1.27c.63,0,1.16-.47,1.25-1.07h2.05l-2.31,2.31.28.28,2.59-2.59h.72c.12.81.82,1.44,1.66,1.44s1.54-.62,1.66-1.44h3.95l-2.59,2.59h-3.66v.39h3.27l-1.33,1.33c-.23-.17-.5-.26-.79-.26-.35,0-.69.14-.93.39-.25.25-.39.58-.39.93,0,.29.09.56.26.79l-.32.32h-2.27v.39h1.87l-1.31,1.31.28.28,1.31-1.31v1.87h.39v-2.27l.32-.32c.23.17.5.26.79.26.35,0,.69-.14.93-.39.25-.25.39-.58.39-.93,0-.29-.09-.56-.26-.79l1.33-1.33v3.27h.39v-3.66l2.59-2.59v3.94c-.86.07-1.53.8-1.53,1.68s.68,1.6,1.53,1.68v.71l-2.59,2.59.28.28,2.31-2.31v2.05c-.61.09-1.07.62-1.07,1.25,0,.7.57,1.27,1.27,1.27s1.27-.57,1.27-1.27c0-.63-.47-1.16-1.07-1.25v-2.05l2.31,2.31.28-.28-2.59-2.59v-.72c.81-.12,1.44-.82,1.44-1.66s-.62-1.54-1.44-1.66v-3.95l2.59,2.59v3.66h.39v-3.27l1.33,1.33c-.17.23-.26.5-.26.79,0,.35.14.69.39.93.25.25.58.39.93.39.29,0,.56-.09.79-.26l.32.32v2.27h.39v-1.87l1.31,1.31.28-.28-1.31-1.31h1.87v-.39h-2.27l-.32-.32c.17-.23.26-.5.26-.79,0-.35-.14-.69-.39-.93-.25-.25-.58-.39-.93-.39-.29,0-.56.09-.79.26l-1.33-1.33h3.27v-.39h-3.66l-2.59-2.59h3.94c.07.86.8,1.53,1.68,1.53s1.6-.68,1.68-1.53h.71l2.59,2.59.28-.28-2.31-2.31h2.05c.09.61.62,1.07,1.25,1.07.7,0,1.27-.57,1.27-1.27s-.57-1.27-1.27-1.27h0Z"/>
  <g>
    <path class="st0" d="M33.6,136.64c0-.5.41-.91.91-.91s.91.41.91.91-.41.91-.91.91-.91-.41-.91-.91h0Z"/>
    <path class="st0" d="M23.95,130.02c.43-.25.99-.1,1.24.33.25.43.1.99-.33,1.24-.43.25-.99.1-1.24-.33-.25-.43-.1-.99.33-1.24h0Z"/>
    <path class="st0" d="M45.06,119.92c-.43.25-.99.1-1.24-.33-.25-.43-.1-.99.33-1.24.43-.25.99-.1,1.24.33.25.43.1.99-.33,1.24h0Z"/>
    <path class="st0" d="M24.85,118.35c.43.25.58.81.33,1.24-.25.43-.81.58-1.24.33s-.58-.81-.33-1.24c.25-.43.81-.58,1.24-.33h0Z"/>
    <path class="st0" d="M44.16,131.59c-.43-.25-.58-.81-.33-1.24s.81-.58,1.24-.33.58.81.33,1.24-.81.58-1.24.33h0Z"/>
    <path class="st0" d="M34.5,114.21c.5,0,.91-.41.91-.91s-.41-.91-.91-.91-.91.41-.91.91.41.91.91.91h0Z"/>
    <path class="st0" d="M34.5,128l-3.03,2.22.41-3.73-3.43-1.51,3.43-1.51-.41-3.73,3.03,2.22,3.03-2.22-.41,3.73,3.43,1.51-3.43,1.51.41,3.73-3.03-2.22h0ZM42.7,127.69l-.09-.35-2.48.67-2.4-1.39,3.73-1.65-3.73-1.65,2.4-1.39,2.48.67.09-.35-2.14-.57,2.6-1.5-.18-.31-2.6,1.5.57-2.14-.35-.09-.67,2.48-2.4,1.39.44-4.06-3.29,2.41v-2.78l1.82-1.82-.25-.25-1.56,1.56v-3h-.36v3l-1.56-1.56-.25.25,1.82,1.82v2.78l-3.29-2.41.44,4.06-2.4-1.39-.67-2.48-.35.09.57,2.14-2.6-1.5-.18.31,2.6,1.5-2.14.57.09.35,2.48-.67,2.4,1.39-3.73,1.65,3.73,1.65-2.4,1.39-2.48-.67-.09.35,2.14.57-2.6,1.5.18.31,2.6-1.5-.57,2.14.35.09.67-2.48,2.4-1.39-.44,4.06,3.3-2.41v2.78l-1.82,1.82.25.25,1.56-1.56v3h.36v-3l1.56,1.56.25-.25-1.82-1.82v-2.78l3.29,2.41-.44-4.06,2.4,1.39.67,2.48.35-.09-.57-2.14,2.6,1.5.18-.31-2.6-1.5,2.14-.57h0Z"/>
    <path class="st0" d="M34.5,126.3c-.74,0-1.35-.61-1.35-1.35s.61-1.35,1.35-1.35,1.35.61,1.35,1.35-.61,1.35-1.35,1.35h0ZM34.5,123.25c-.94,0-1.71.77-1.71,1.71s.77,1.71,1.71,1.71,1.71-.77,1.71-1.71-.77-1.71-1.71-1.71h0Z"/>
  </g>
  <g>
    <path class="st0" d="M78.71,47.1c0-.34.28-.62.62-.62s.62.28.62.62-.28.62-.62.62-.62-.28-.62-.62h0Z"/>
    <path class="st0" d="M72.1,42.57c.3-.17.68-.07.85.23.17.3.07.68-.23.85-.3.17-.68.07-.85-.23-.17-.3-.07-.68.23-.85h0Z"/>
    <path class="st0" d="M86.56,35.65c-.3.17-.68.07-.85-.23-.17-.3-.07-.68.23-.85.3-.17.68-.07.85.23.17.3.07.68-.23.85h0Z"/>
    <path class="st0" d="M72.72,34.57c.3.17.4.55.23.85s-.55.4-.85.23-.4-.55-.23-.85.55-.4.85-.23h0Z"/>
    <path class="st0" d="M85.94,43.64c-.3-.17-.4-.55-.23-.85s.55-.4.85-.23.4.55.23.85-.55.4-.85.23h0Z"/>
    <path class="st0" d="M79.33,31.74c.34,0,.62-.28.62-.62s-.28-.62-.62-.62-.62.28-.62.62.28.62.62.62h0Z"/>
    <path class="st0" d="M79.33,41.18l-2.07,1.52.28-2.55-2.35-1.04,2.35-1.04-.28-2.55,2.07,1.52,2.07-1.52-.28,2.55,2.35,1.04-2.35,1.04.28,2.55-2.07-1.52h0ZM84.94,40.97l-.06-.24-1.7.46-1.65-.95,2.56-1.13-2.56-1.13,1.65-.95,1.7.46.06-.24-1.46-.39,1.78-1.03-.12-.21-1.78,1.03.39-1.46-.24-.06-.46,1.7-1.65.95.3-2.78-2.26,1.65v-1.9l1.24-1.24-.17-.17-1.07,1.07v-2.05h-.25v2.05l-1.07-1.07-.17.17,1.24,1.24v1.9l-2.26-1.65.3,2.78-1.65-.95-.46-1.7-.24.06.39,1.46-1.78-1.03-.12.21,1.78,1.03-1.46.39.06.24,1.7-.46,1.65.95-2.56,1.13,2.56,1.13-1.65.95-1.7-.46-.06.24,1.46.39-1.78,1.03.12.21,1.78-1.03-.39,1.46.24.06.46-1.7,1.65-.95-.3,2.78,2.26-1.65v1.9l-1.24,1.24.17.17,1.07-1.07v2.05h.25v-2.05l1.07,1.07.17-.17-1.24-1.24v-1.9l2.26,1.65-.3-2.78,1.65.95.46,1.7.24-.06-.39-1.46,1.78,1.03.12-.21-1.78-1.03,1.46-.39h0Z"/>
    <path class="st0" d="M79.33,40.02c-.51,0-.92-.42-.92-.92s.42-.92.92-.92.92.42.92.92-.42.92-.92.92h0ZM79.33,37.93c-.64,0-1.17.53-1.17,1.17s.53,1.17,1.17,1.17,1.17-.53,1.17-1.17-.53-1.17-1.17-1.17h0Z"/>
  </g>
  <g>
    <polygon class="st0" points="187.65 17.29 187.7 18.71 188.9 19.46 188.85 18.04 187.65 17.29 187.65 17.29"/>
    <polygon class="st0" points="192.38 25.52 192.33 24.1 191.13 23.34 191.18 24.77 192.38 25.52 192.38 25.52"/>
    <polygon class="st0" points="185.3 21.45 186.56 22.12 187.81 21.45 186.56 20.78 185.3 21.45 185.3 21.45"/>
    <polygon class="st0" points="194.79 21.46 193.54 20.8 192.28 21.46 193.54 22.13 194.79 21.46 194.79 21.46"/>
    <polygon class="st0" points="187.73 25.56 188.93 24.81 188.98 23.39 187.78 24.14 187.73 25.56 187.73 25.56"/>
    <path class="st0" d="M190.98,22.06c-.09.13-.21.23-.34.31-.53.31-1.21.12-1.52-.41-.1-.17-.15-.37-.15-.55s.05-.38.15-.55c.09-.15.21-.28.35-.37,0,0,0,0,0,0,.02,0,.03-.02.05-.03,0,0,0,0,.02,0,.02,0,.03-.02.05-.03.01,0,.02,0,.04-.02,0,0,.02,0,.03,0,.01,0,.03,0,.04-.02h0c.12-.04.24-.07.38-.07.61,0,1.11.5,1.11,1.11,0,.24-.08.46-.21.64h0ZM197.28,24.11l-.07-.25-1.72.46-.07.02-.22-.13-1.76-1.01,3.42-.92-.07-.25-3.6.96-.07.02-.22-.13-1.58-.91c.08-.17.12-.35.12-.54v-.05c0-.19-.05-.37-.13-.55l1.58-.91.22-.13.07.02,3.6.96.07-.25-3.42-.92,1.76-1.01.22-.13.07.02,1.72.46.07-.25-1.54-.41,2.14-1.23-.13-.22-2.14,1.23.41-1.54-.25-.07-.46,1.72-.02.07-.22.13-1.76,1.01.92-3.42-.25-.07-.96,3.6-.02.07-.22.13-1.58.91c-.18-.26-.45-.44-.76-.53-.07-.02-.15-.03-.23-.04v-2.08l.05-.05,2.63-2.63-.18-.18-2.51,2.51v-2.29l.05-.05,1.26-1.26-.18-.18-1.13,1.13v-2.47h-.26v2.47l-1.13-1.13-.18.18,1.26,1.26.05.05v2.29l-2.51-2.51-.18.18,2.63,2.63.05.05v2.08c-.19.02-.38.08-.56.18h0c-.18.1-.32.24-.43.39l-1.58-.91-.22-.13-.02-.07-.96-3.6-.25.07.92,3.42-1.76-1.01-.22-.13-.02-.07-.46-1.72-.25.07.41,1.54-2.14-1.23-.13.22,2.14,1.23-1.54.41.07.25,1.72-.46.07-.02.22.13,1.76,1.01-3.42.92.07.25,3.6-.96.07-.02.22.13,1.58.91c-.08.18-.13.37-.13.58s.05.39.12.57l-1.58.91-.22.13-.07-.02-3.6-.96-.07.25,3.42.92-1.76,1.01-.22.13-.07-.02-1.72-.46-.07.25,1.54.41-2.14,1.23.13.22,2.14-1.23-.41,1.54.25.07.46-1.72.02-.07.22-.13,1.76-1.01-.92,3.42.25.07.96-3.6.02-.07.22-.13,1.57-.91c.23.32.59.54,1,.58v2.07l-.05.05-2.63,2.63.18.18,2.51-2.51v2.29l-.05.05-1.26,1.26.18.18,1.13-1.13v2.47h.26v-2.47l1.13,1.13.18-.18-1.26-1.26-.05-.05v-2.29l2.51,2.51.18-.18-2.63-2.63-.05-.05v-2.07c.19-.02.38-.08.54-.17,0,0,.01,0,.02,0,.01,0,.02-.01.04-.02.15-.09.29-.22.4-.37l1.58.91.22.13.02.07.96,3.6.25-.07-.92-3.42,1.76,1.01.22.13.02.07.46,1.72.25-.07-.41-1.54,2.14,1.23.13-.22-2.14-1.23,1.54-.41h0s0,0,0,0Z"/>
    <polygon class="st0" points="192.49 17.35 191.28 18.1 191.23 19.52 192.43 18.77 192.49 17.35 192.49 17.35"/>
  </g>
  <g>
    <polygon class="st0" points="47.91 144.13 47.98 146.08 49.63 147.11 49.56 145.17 47.91 144.13 47.91 144.13"/>
    <polygon class="st0" points="54.39 155.4 54.32 153.45 52.67 152.42 52.74 154.37 54.39 155.4 54.39 155.4"/>
    <polygon class="st0" points="44.69 149.83 46.41 150.74 48.13 149.83 46.41 148.92 44.69 149.83 44.69 149.83"/>
    <polygon class="st0" points="57.69 149.85 55.97 148.94 54.25 149.85 55.97 150.76 57.69 149.85 57.69 149.85"/>
    <polygon class="st0" points="48.02 155.46 49.67 154.43 49.73 152.49 48.09 153.52 48.02 155.46 48.02 155.46"/>
    <path class="st0" d="M52.47,150.66c-.13.17-.28.32-.47.43-.73.42-1.66.17-2.08-.56-.14-.24-.2-.5-.2-.76s.06-.52.2-.75c.12-.21.29-.38.48-.51,0,0,0,0,.01,0,.02-.01.04-.03.06-.04,0,0,.02,0,.02-.01.02-.01.05-.02.06-.04.02,0,.03-.02.05-.02,0,0,.02,0,.03-.02.02,0,.04-.02.06-.02,0,0,0,0,.01,0,.16-.06.34-.09.52-.09.84,0,1.52.68,1.52,1.52,0,.33-.1.63-.28.88h0ZM61.09,153.47l-.09-.34-2.35.63-.1.03-.31-.18-2.41-1.39,4.68-1.26-.09-.34-4.93,1.32-.1.03-.31-.18-2.16-1.25c.11-.24.16-.49.17-.74v-.07c0-.26-.06-.51-.17-.75l2.16-1.25.31-.18.1.03,4.93,1.32.09-.34-4.68-1.26,2.41-1.39.31-.18.1.03,2.35.63.09-.34-2.11-.56,2.93-1.69-.18-.31-2.93,1.69.56-2.11-.34-.09-.63,2.35-.03.1-.31.18-2.41,1.39,1.26-4.68-.34-.09-1.32,4.93-.03.1-.31.18-2.16,1.25c-.25-.35-.62-.61-1.04-.72-.1-.03-.21-.05-.31-.05v-2.85l.07-.07,3.6-3.6-.25-.25-3.43,3.43v-3.13l.07-.07,1.72-1.72-.25-.25-1.54,1.54v-3.38h-.35v3.38l-1.54-1.54-.25.25,1.72,1.72.07.07v3.13l-3.43-3.43-.25.25,3.6,3.6.07.07v2.85c-.26.03-.53.11-.76.24h0c-.24.14-.44.33-.59.54l-2.16-1.25-.31-.18-.03-.1-1.32-4.93-.34.09,1.26,4.68-2.41-1.39-.31-.18-.03-.1-.63-2.35-.34.09.56,2.11-2.93-1.69-.18.31,2.93,1.69-2.11.56.09.34,2.35-.63.1-.03.31.18,2.41,1.39-4.68,1.26.09.34,4.93-1.32.1-.03.31.18,2.16,1.25c-.11.24-.18.51-.18.79s.06.54.17.77l-2.16,1.24-.31.18-.1-.03-4.93-1.32-.09.34,4.68,1.26-2.41,1.39-.31.18-.1-.03-2.35-.63-.09.34,2.11.56-2.93,1.69.18.31,2.93-1.69-.56,2.11.34.09.63-2.35.03-.1.31-.18,2.41-1.39-1.26,4.68.34.09,1.32-4.93.03-.1.31-.18,2.16-1.24c.31.44.8.74,1.36.79v2.84l-.07.07-3.6,3.6.25.25,3.43-3.43v3.13l-.07.07-1.72,1.72.25.25,1.54-1.54v3.38h.35v-3.38l1.54,1.54.25-.25-1.72-1.72-.07-.07v-3.13l3.43,3.43.25-.25-3.6-3.6-.07-.07v-2.84c.27-.03.52-.11.74-.23,0,0,.02,0,.03-.02.02,0,.03-.02.05-.03.21-.13.4-.3.54-.51l2.16,1.25.31.18.03.1,1.32,4.93.34-.09-1.26-4.68,2.41,1.39.31.18.03.1.63,2.35.34-.09-.56-2.11,2.93,1.69.18-.31-2.93-1.69,2.11-.56h0s0,0,0,0Z"/>
    <polygon class="st0" points="54.53 144.22 52.88 145.25 52.81 147.19 54.46 146.16 54.53 144.22 54.53 144.22"/>
  </g>
  <g>
    <path class="st0" d="M229.11,124.36h2.82l1.41-2.45-1.41-2.45h-2.82l-1.41,2.45,1.41,2.45h0ZM232.2,124.83h-3.36l-1.68-2.91,1.68-2.91h3.36l1.68,2.91-1.68,2.91h0Z"/>
    <path class="st0" d="M233.76,127.52h-6.46l-3.1-5.36-.14-.23.14-.23,3.1-5.36h6.46l3.1,5.36.14.23-.14.23-3.1,5.36h0ZM246.55,121.68h-2.46l1.69-1.69-.33-.33-1.93,1.93-.1.1h-2.64l2.26-2.26-.33-.33-2.49,2.49-.1.1h-2.74l-2.3-3.99,2.07-2.07.33-.33h3.66v-.46h-3.19l1.54-1.54.33-.33h2.86v-.46h-2.39l1.74-1.74-.33-.33-1.74,1.74v-2.39h-.46v2.86l-.33.33-1.54,1.54v-3.19h-.46v3.66l-.33.33-1.98,1.98-.82-1.41h-3.26v-3.55l.1-.1,2.49-2.49-.33-.33-2.26,2.26v-2.64l.1-.1,1.93-1.93-.33-.33-1.69,1.69v-2.46h-.46v2.46l-1.69-1.69-.33.33,1.93,1.93.1.1v2.64l-2.26-2.26-.33.33,2.49,2.49.1.1v3.55h-3.26l-.82,1.41-1.98-1.98-.33-.33v-3.66h-.46v3.19l-1.54-1.54-.33-.33v-2.86h-.46v2.39l-1.74-1.74-.33.33,1.74,1.74h-2.39v.46h2.86l.33.33,1.54,1.54h-3.19v.46h3.66l.33.33,2.07,2.07-2.3,3.99h-2.74l-.1-.1-2.49-2.49-.33.33,2.26,2.26h-2.64l-.1-.1-1.93-1.93-.33.33,1.69,1.69h-2.46v.46h2.46l-1.69,1.69.33.33,1.93-1.93.1-.1h2.64l-2.26,2.26.33.33,2.49-2.49.1-.1h2.74l2.3,3.99-2.07,2.07-.33.33h-3.66v.46h3.19l-1.54,1.54-.33.33h-2.86v.46h2.39l-1.74,1.74.33.33,1.74-1.74v2.39h.46v-2.86l.33-.33,1.54-1.54v3.19h.46v-3.66l.33-.33,1.98-1.98.82,1.41h3.26v3.55l-.1.1-2.49,2.49.33.33,2.26-2.26v2.64l-.1.1-1.93,1.93.33.33,1.69-1.69v2.46h.46v-2.46l1.69,1.69.33-.33-1.93-1.93-.1-.1v-2.64l2.26,2.26.33-.33-2.49-2.49-.1-.1v-3.55h3.26l.82-1.41,1.98,1.98.33.33v3.66h.46v-3.19l1.54,1.54.33.33v2.86h.46v-2.39l1.74,1.74.33-.33-1.74-1.74h2.39v-.46h-2.86l-.33-.33-1.54-1.54h3.19v-.46h-3.66l-.33-.33-2.07-2.07,2.3-3.99h2.74l.1.1,2.49,2.49.33-.33-2.26-2.26h2.64l.1.1,1.93,1.93.33-.33-1.69-1.69h2.46v-.46h0Z"/>
  </g>
  <g>
    <path class="st0" d="M49.82,22.79h2.82l1.41-2.45-1.41-2.45h-2.82l-1.41,2.45,1.41,2.45h0ZM52.91,23.26h-3.36l-1.68-2.91,1.68-2.91h3.36l1.68,2.91-1.68,2.91h0Z"/>
    <path class="st0" d="M54.46,25.95h-6.46l-3.1-5.36-.14-.23.14-.23,3.1-5.36h6.46l3.1,5.36.14.23-.14.23-3.1,5.36h0ZM67.25,20.12h-2.46l1.69-1.69-.33-.33-1.93,1.93-.1.1h-2.64l2.26-2.26-.33-.33-2.49,2.49-.1.1h-2.74l-2.3-3.99,2.07-2.07.33-.33h3.66v-.46h-3.19l1.54-1.54.33-.33h2.86v-.46h-2.39l1.74-1.74-.33-.33-1.74,1.74v-2.39h-.46v2.86l-.33.33-1.54,1.54v-3.19h-.46v3.66l-.33.33-1.98,1.98-.82-1.41h-3.26v-3.55l.1-.1,2.49-2.49-.33-.33-2.26,2.26v-2.64l.1-.1,1.93-1.93-.33-.33-1.69,1.69v-2.46h-.46v2.46l-1.69-1.69-.33.33,1.93,1.93.1.1v2.64l-2.26-2.26-.33.33,2.49,2.49.1.1v3.55h-3.26l-.82,1.41-1.98-1.98-.33-.33v-3.66h-.46v3.19l-1.54-1.54-.33-.33v-2.86h-.46v2.39l-1.74-1.74-.33.33,1.74,1.74h-2.39v.46h2.86l.33.33,1.54,1.54h-3.19v.46h3.66l.33.33,2.07,2.07-2.3,3.99h-2.74l-.1-.1-2.49-2.49-.33.33,2.26,2.26h-2.64l-.1-.1-1.93-1.93-.33.33,1.69,1.69h-2.46v.46h2.46l-1.69,1.69.33.33,1.93-1.93.1-.1h2.64l-2.26,2.26.33.33,2.49-2.49.1-.1h2.74l2.3,3.99-2.07,2.07-.33.33h-3.66v.46h3.19l-1.54,1.54-.33.33h-2.86v.46h2.39l-1.74,1.74.33.33,1.74-1.74v2.39h.46v-2.86l.33-.33,1.54-1.54v3.19h.46v-3.66l.33-.33,1.98-1.98.82,1.41h3.26v3.55l-.1.1-2.49,2.49.33.33,2.26-2.26v2.64l-.1.1-1.93,1.93.33.33,1.69-1.69v2.46h.46v-2.46l1.69,1.69.33-.33-1.93-1.93-.1-.1v-2.64l2.26,2.26.33-.33-2.49-2.49-.1-.1v-3.55h3.26l.82-1.41,1.98,1.98.33.33v3.66h.46v-3.19l1.54,1.54.33.33v2.86h.46v-2.39l1.74,1.74.33-.33-1.74-1.74h2.39v-.46h-2.86l-.33-.33-1.54-1.54h3.19v-.46h-3.66l-.33-.33-2.07-2.07,2.3-3.99h2.74l.1.1,2.49,2.49.33-.33-2.26-2.26h2.64l.1.1,1.93,1.93.33-.33-1.69-1.69h2.46v-.46h0s0,0,0,0Z"/>
  </g>
</svg>